SplineFontDB: 3.0
FontName: Jost-Semi
FullName: Jost* 600 Semi
FamilyName: Jost*
Weight: Semi
Copyright: Copyright (c) 2018, Owen Earl,,,
UComments: "2018-6-8: Created with FontForge (http://fontforge.org)"
Version: 003.400
ItalicAngle: 0
UnderlinePosition: -100
UnderlineWidth: 50
Ascent: 800
Descent: 200
InvalidEm: 0
LayerCount: 2
Layer: 0 0 "Back" 1
Layer: 1 0 "Fore" 0
XUID: [1021 69 1495626776 9435324]
FSType: 0
OS2Version: 0
OS2_WeightWidthSlopeOnly: 0
OS2_UseTypoMetrics: 0
CreationTime: 1528479894
ModificationTime: 1577663848
PfmFamily: 17
TTFWeight: 600
TTFWidth: 5
LineGap: 100
VLineGap: 0
OS2TypoAscent: 825
OS2TypoAOffset: 0
OS2TypoDescent: -225
OS2TypoDOffset: 0
OS2TypoLinegap: 100
OS2WinAscent: 900
OS2WinAOffset: 0
OS2WinDescent: 300
OS2WinDOffset: 0
HheadAscent: 1030
HheadAOffset: 0
HheadDescent: -350
HheadDOffset: 0
OS2CapHeight: 700
OS2XHeight: 460
OS2Vendor: 'PfEd'
Lookup: 1 0 0 "alt a" { "alt a"  } ['ss01' ('DFLT' <'dflt' > 'latn' <'dflt' > ) ]
Lookup: 1 0 0 "Tabular Numbers lookup" { "Tabular Numbers lookup"  } ['tnum' ('DFLT' <'dflt' > 'grek' <'dflt' > 'latn' <'dflt' > ) ]
Lookup: 258 0 0 "Lets get our kern on" { "kernin like nobodys business" [150,0,0] } ['kern' ('DFLT' <'dflt' > 'latn' <'dflt' > ) ]
MarkAttachClasses: 1
DEI: 91125
KernClass2: 16 14 "kernin like nobodys business"
 43 slash seven V W Wcircumflex uni040E uni0423
 175 quotedbl quotesingle asterisk grave dieresis ordfeminine macron degree acute ordmasculine circumflex breve dotaccent ring tilde quoteleft quoteright quotedblleft quotedblright
 25 nine question F P uni0420
 131 A L backslash Agrave Aacute Acircumflex Atilde Adieresis Aring Amacron Abreve Aogonek Lacute uni013B Lslash uni0410 uni0414 uni041C
 58 three eight B C germandbls uni0411 uni0412 uni0417 uni0421
 29 K X Z uni0416 uni041A uni0425
 157 at D G O Ograve Oacute Ocircumflex Otilde Odieresis Oslash Dcaron Dcroat Gcircumflex Gbreve Gdotaccent uni0122 Omacron Obreve uni041E uni0424 uni042D uni042E

StartChar: H
Encoding: 72 72 0
Width: 764
VWidth: 0
Flags: HMW
LayerCount: 2
Fore
SplineSet
123 307 m 1
 123 438 l 1
 638 438 l 1
 638 307 l 1
 123 307 l 1
546 700 m 1
 690 700 l 1
 690 0 l 1
 546 0 l 1
 546 700 l 1
76 700 m 1
 220 700 l 1
 220 0 l 1
 76 0 l 1
 76 700 l 1
EndSplineSet
EndChar

StartChar: O
Encoding: 79 79 1
Width: 811
VWidth: 0
Flags: HMW
LayerCount: 2
Fore
SplineSet
188 350 m 0
 188 216 277 120 406 120 c 0
 535 120 624 216 624 350 c 0
 624 484 538 580 406 580 c 0
 277 580 188 484 188 350 c 0
36 350 m 0
 36 562 196 714 406 714 c 0
 618 714 776 562 776 350 c 0
 776 138 621 -18 406 -18 c 0
 191 -18 36 138 36 350 c 0
EndSplineSet
EndChar

StartChar: I
Encoding: 73 73 2
Width: 297
VWidth: 0
Flags: HMW
LayerCount: 2
Fore
SplineSet
76 700 m 1
 222 700 l 1
 222 0 l 1
 76 0 l 1
 76 700 l 1
EndSplineSet
EndChar

StartChar: C
Encoding: 67 67 3
Width: 695
VWidth: 0
Flags: HMW
LayerCount: 2
Fore
SplineSet
192 350 m 0
 192 211 296 124 416 124 c 0
 515 124 583 166 630 220 c 1
 630 58 l 1
 573 12 512 -14 410 -14 c 0
 194 -14 36 134 36 350 c 0
 36 566 194 714 410 714 c 0
 512 714 573 688 630 642 c 1
 630 480 l 1
 583 534 515 576 416 576 c 0
 296 576 192 489 192 350 c 0
EndSplineSet
EndChar

StartChar: E
Encoding: 69 69 4
Width: 587
VWidth: 0
Flags: HMW
LayerCount: 2
Fore
SplineSet
168 0 m 1
 168 122 l 1
 522 122 l 1
 522 0 l 1
 168 0 l 1
168 578 m 1
 168 700 l 1
 522 700 l 1
 522 578 l 1
 168 578 l 1
168 312 m 1
 168 431 l 1
 502 431 l 1
 502 312 l 1
 168 312 l 1
76 700 m 1
 216 700 l 1
 216 0 l 1
 76 0 l 1
 76 700 l 1
EndSplineSet
EndChar

StartChar: F
Encoding: 70 70 6
Width: 537
VWidth: 0
Flags: HMW
LayerCount: 2
Fore
SplineSet
168 574 m 1
 168 700 l 1
 482 700 l 1
 482 574 l 1
 168 574 l 1
168 298 m 1
 168 418 l 1
 472 418 l 1
 472 298 l 1
 168 298 l 1
76 700 m 1
 216 700 l 1
 216 0 l 1
 76 0 l 1
 76 700 l 1
EndSplineSet
EndChar

StartChar: G
Encoding: 71 71 7
Width: 802
VWidth: 0
Flags: HMW
LayerCount: 2
Fore
SplineSet
416 260 m 1
 416 374 l 1
 762 374 l 1
 770 160 642 -18 410 -18 c 0
 192 -18 36 132 36 350 c 0
 36 568 196 714 414 714 c 0
 556 714 659 651 723 554 c 1
 600 482 l 1
 564 542 504 586 414 586 c 0
 288 586 186 496 186 350 c 0
 186 204 284 110 414 110 c 0
 528 110 593 176 616 260 c 1
 416 260 l 1
EndSplineSet
EndChar

StartChar: T
Encoding: 84 84 8
Width: 532
VWidth: 0
Flags: HMW
LayerCount: 2
Fore
SplineSet
6 570 m 1
 6 700 l 1
 527 700 l 1
 527 570 l 1
 338 570 l 1
 338 0 l 1
 194 0 l 1
 194 570 l 1
 6 570 l 1
EndSplineSet
EndChar

StartChar: L
Encoding: 76 76 9
Width: 504
VWidth: 0
Flags: HMW
LayerCount: 2
Fore
SplineSet
76 700 m 1
 220 700 l 1
 220 126 l 1
 499 126 l 1
 499 0 l 1
 76 0 l 1
 76 700 l 1
EndSplineSet
EndChar

StartChar: D
Encoding: 68 68 10
Width: 717
VWidth: 0
Flags: HMW
LayerCount: 2
Fore
SplineSet
76 700 m 1
 224 700 l 1
 224 0 l 1
 76 0 l 1
 76 700 l 1
314 0 m 2
 168 0 l 1
 168 131 l 1
 310 131 l 2
 433 131 534 196 534 350 c 0
 534 504 433 569 310 569 c 2
 168 569 l 1
 168 700 l 1
 314 700 l 2
 536 700 682 563 682 350 c 0
 682 137 536 0 314 0 c 2
EndSplineSet
EndChar

StartChar: Q
Encoding: 81 81 11
Width: 841
VWidth: 0
Flags: HMW
LayerCount: 2
Fore
SplineSet
188 350 m 0
 188 208 287 112 416 112 c 0
 545 112 637 202 637 336 c 0
 637 470 548 580 408 580 c 0
 279 580 188 484 188 350 c 0
36 350 m 0
 36 562 198 714 408 714 c 0
 620 714 776 562 776 350 c 0
 776 138 623 -18 408 -18 c 0
 193 -18 36 138 36 350 c 0
363 300 m 1
 519 300 l 1
 846 -8 l 1
 686 -8 l 1
 363 300 l 1
EndSplineSet
EndChar

StartChar: A
Encoding: 65 65 12
Width: 712
VWidth: 0
Flags: HMW
LayerCount: 2
Fore
SplineSet
173 158 m 1
 190 272 l 1
 526 272 l 1
 543 158 l 1
 173 158 l 1
356 472 m 1
 252 231 l 1
 255 199 l 1
 164 0 l 1
 1 0 l 1
 356 742 l 1
 712 0 l 1
 549 0 l 1
 460 192 l 1
 461 229 l 1
 356 472 l 1
EndSplineSet
EndChar

StartChar: R
Encoding: 82 82 13
Width: 620
VWidth: 0
Flags: HMW
LayerCount: 2
Fore
SplineSet
236 326 m 1
 388 326 l 1
 616 0 l 1
 445 0 l 1
 236 326 l 1
76 700 m 1
 220 700 l 1
 220 0 l 1
 76 0 l 1
 76 700 l 1
164 576 m 1
 164 700 l 1
 312 700 l 2
 478 700 574 609 574 476 c 0
 574 343 478 254 312 254 c 2
 164 254 l 1
 164 368 l 1
 303 368 l 2
 377 368 425 406 425 472 c 0
 425 538 377 576 303 576 c 2
 164 576 l 1
EndSplineSet
EndChar

StartChar: V
Encoding: 86 86 14
Width: 712
VWidth: 0
Flags: HMW
LayerCount: 2
Fore
SplineSet
356 246 m 1
 544 700 l 1
 712 700 l 1
 356 -42 l 1
 1 700 l 1
 168 700 l 1
 356 246 l 1
EndSplineSet
EndChar

StartChar: M
Encoding: 77 77 15
Width: 866
VWidth: 0
Flags: HMW
LayerCount: 2
Fore
SplineSet
232 391 m 1
 186 0 l 1
 36 0 l 1
 140 735 l 1
 434 284 l 1
 726 735 l 1
 832 0 l 1
 681 0 l 1
 636 391 l 1
 434 65 l 1
 232 391 l 1
EndSplineSet
EndChar

StartChar: W
Encoding: 87 87 16
Width: 1042
VWidth: 0
Flags: HMW
LayerCount: 2
Fore
SplineSet
718 266 m 1
 868 700 l 1
 1036 700 l 1
 742 -39 l 1
 521 418 l 1
 300 -39 l 1
 6 700 l 1
 175 700 l 1
 326 266 l 1
 521 735 l 1
 718 266 l 1
EndSplineSet
EndChar

StartChar: N
Encoding: 78 78 17
Width: 787
VWidth: 0
Flags: HMW
LayerCount: 2
Fore
SplineSet
573 700 m 1
 712 700 l 1
 712 -35 l 1
 216 432 l 1
 216 0 l 1
 76 0 l 1
 76 735 l 1
 573 268 l 1
 573 700 l 1
EndSplineSet
EndChar

StartChar: a
Encoding: 97 97 18
Width: 521
VWidth: 0
Flags: HMW
LayerCount: 2
Fore
SplineSet
157 144 m 0
 157 103 188 80 232 80 c 0
 290 80 340 116 340 184 c 1
 356 124 l 1
 356 36 272 -10 188 -10 c 0
 100 -10 26 42 26 136 c 0
 26 224 91 281 206 281 c 0
 293 281 352 250 374 226 c 1
 374 164 l 1
 338 190 291 204 242 204 c 0
 182 204 157 182 157 144 c 0
106 330 m 1
 58 418 l 1
 106 443 176 472 262 472 c 0
 379 472 466 419 466 326 c 2
 466 0 l 1
 340 0 l 1
 340 298 l 2
 340 349 305 370 248 370 c 0
 184 370 125 343 106 330 c 1
EndSplineSet
Substitution2: "alt a" a.alt
EndChar

StartChar: X
Encoding: 88 88 19
Width: 646
VWidth: 0
Flags: HMW
LayerCount: 2
Fore
SplineSet
450 700 m 1
 626 700 l 1
 410 362 l 1
 641 0 l 1
 464 0 l 1
 326 250 l 1
 182 0 l 1
 6 0 l 1
 242 362 l 1
 31 700 l 1
 207 700 l 1
 327 480 l 1
 450 700 l 1
EndSplineSet
EndChar

StartChar: K
Encoding: 75 75 20
Width: 659
VWidth: 0
Flags: HMW
LayerCount: 2
Fore
SplineSet
76 700 m 1
 224 700 l 1
 224 0 l 1
 76 0 l 1
 76 700 l 1
473 700 m 1
 644 700 l 1
 354 372 l 1
 658 0 l 1
 484 0 l 1
 182 368 l 1
 473 700 l 1
EndSplineSet
EndChar

StartChar: Y
Encoding: 89 89 21
Width: 630
VWidth: 0
Flags: HMW
LayerCount: 2
Fore
SplineSet
465 700 m 1
 630 700 l 1
 389 290 l 1
 389 0 l 1
 242 0 l 1
 242 289 l 1
 1 700 l 1
 166 700 l 1
 315 418 l 1
 465 700 l 1
EndSplineSet
EndChar

StartChar: B
Encoding: 66 66 22
Width: 632
VWidth: 0
Flags: HMW
LayerCount: 2
Fore
SplineSet
184 354 m 1
 184 420 l 1
 297 420 l 2
 359 420 398 452 398 504 c 0
 398 556 359 586 297 586 c 2
 220 586 l 1
 220 114 l 1
 312 114 l 2
 384 114 438 146 438 218 c 0
 438 286 384 316 312 316 c 2
 184 316 l 1
 184 394 l 1
 324 394 l 2
 459 394 586 338 586 200 c 0
 586 61 480 0 324 0 c 2
 76 0 l 1
 76 700 l 1
 310 700 l 2
 448 700 546 642 546 523 c 0
 546 415 448 354 310 354 c 2
 184 354 l 1
EndSplineSet
EndChar

StartChar: Z
Encoding: 90 90 23
Width: 597
VWidth: 0
Flags: HMW
LayerCount: 2
Fore
SplineSet
50 570 m 1
 50 700 l 1
 582 700 l 1
 240 126 l 1
 551 126 l 1
 551 0 l 1
 11 0 l 1
 350 570 l 1
 50 570 l 1
EndSplineSet
EndChar

StartChar: o
Encoding: 111 111 24
Width: 576
VWidth: 0
Flags: HMW
LayerCount: 2
Fore
SplineSet
33 230 m 0
 33 373 142 470 288 470 c 0
 434 470 544 373 544 230 c 0
 544 87 434 -10 288 -10 c 0
 142 -10 33 87 33 230 c 0
166 230 m 0
 166 152 220 100 288 100 c 0
 356 100 410 152 410 230 c 0
 410 308 356 360 288 360 c 0
 220 360 166 308 166 230 c 0
EndSplineSet
EndChar

StartChar: J
Encoding: 74 74 25
Width: 303
VWidth: 0
Flags: HMW
LayerCount: 2
Fore
SplineSet
-70 -76 m 1
 -52 -96 -22 -109 10 -109 c 0
 40 -109 76 -88 76 -26 c 2
 76 700 l 1
 228 700 l 1
 228 -56 l 2
 228 -182 136 -234 20 -234 c 0
 -50 -234 -116 -202 -148 -178 c 1
 -70 -76 l 1
EndSplineSet
EndChar

StartChar: t
Encoding: 116 116 26
Width: 294
VWidth: 0
Flags: HMW
LayerCount: 2
Fore
SplineSet
5 460 m 1
 290 460 l 1
 290 350 l 1
 5 350 l 1
 5 460 l 1
84 620 m 1
 210 620 l 1
 210 0 l 1
 84 0 l 1
 84 620 l 1
EndSplineSet
EndChar

StartChar: d
Encoding: 100 100 27
Width: 602
VWidth: 0
Flags: HMW
LayerCount: 2
Fore
SplineSet
412 780 m 1
 542 780 l 1
 542 0 l 1
 412 0 l 1
 412 780 l 1
33 230 m 0
 33 383 138 470 254 470 c 0
 369 470 452 379 452 230 c 0
 452 81 369 -10 254 -10 c 0
 138 -10 33 77 33 230 c 0
168 230 m 0
 168 148 224 98 292 98 c 0
 348 98 412 146 412 230 c 0
 412 314 348 362 292 362 c 0
 224 362 168 312 168 230 c 0
EndSplineSet
EndChar

StartChar: l
Encoding: 108 108 28
Width: 258
VWidth: 0
Flags: HMW
LayerCount: 2
Fore
SplineSet
64 780 m 1
 194 780 l 1
 194 0 l 1
 64 0 l 1
 64 780 l 1
EndSplineSet
EndChar

StartChar: i
Encoding: 105 105 29
Width: 271
VWidth: 0
Flags: HMW
LayerCount: 2
Fore
SplineSet
58 638 m 0
 58 680 92 712 136 712 c 0
 180 712 214 680 214 638 c 0
 214 596 180 564 136 564 c 0
 92 564 58 596 58 638 c 0
72 460 m 1
 198 460 l 1
 198 0 l 1
 72 0 l 1
 72 460 l 1
EndSplineSet
EndChar

StartChar: r
Encoding: 114 114 30
Width: 390
VWidth: 0
Flags: HMW
LayerCount: 2
Fore
SplineSet
192 460 m 1
 192 0 l 1
 64 0 l 1
 64 460 l 1
 192 460 l 1
327 324 m 1
 309 340 293 349 267 349 c 0
 218 349 192 309 192 243 c 1
 156 280 l 1
 156 389 228 470 302 470 c 0
 335 470 368 458 386 434 c 1
 327 324 l 1
EndSplineSet
EndChar

StartChar: c
Encoding: 99 99 31
Width: 488
VWidth: 0
Flags: HMW
LayerCount: 2
Fore
SplineSet
164 230 m 0
 164 150 222 97 296 97 c 0
 356 97 414 126 439 170 c 1
 439 37 l 1
 407 7 355 -10 288 -10 c 0
 140 -10 30 87 30 230 c 0
 30 373 140 470 288 470 c 0
 355 470 407 451 439 424 c 1
 439 290 l 1
 414 334 352 363 296 363 c 0
 222 363 164 306 164 230 c 0
EndSplineSet
EndChar

StartChar: b
Encoding: 98 98 32
Width: 602
VWidth: 0
Flags: HMW
LayerCount: 2
Fore
SplineSet
192 780 m 1
 192 0 l 1
 62 0 l 1
 62 780 l 1
 192 780 l 1
570 230 m 0
 570 77 464 -10 348 -10 c 0
 233 -10 151 81 151 230 c 0
 151 379 233 470 348 470 c 0
 464 470 570 383 570 230 c 0
434 230 m 0
 434 312 378 362 310 362 c 0
 254 362 192 314 192 230 c 0
 192 146 254 98 310 98 c 0
 378 98 434 148 434 230 c 0
EndSplineSet
EndChar

StartChar: p
Encoding: 112 112 33
Width: 602
VWidth: 0
Flags: HMW
LayerCount: 2
Fore
SplineSet
192 -220 m 1
 62 -220 l 1
 62 460 l 1
 192 460 l 1
 192 -220 l 1
570 230 m 0
 570 72 464 -14 348 -14 c 0
 229 -14 156 81 156 230 c 0
 156 379 229 474 348 474 c 0
 464 474 570 388 570 230 c 0
434 230 m 0
 434 312 378 358 310 358 c 0
 254 358 192 314 192 230 c 0
 192 146 254 102 310 102 c 0
 378 102 434 148 434 230 c 0
EndSplineSet
EndChar

StartChar: q
Encoding: 113 113 34
Width: 602
VWidth: 0
Flags: HMW
LayerCount: 2
Fore
SplineSet
412 -220 m 1
 412 460 l 1
 542 460 l 1
 542 -220 l 1
 412 -220 l 1
33 230 m 0
 33 388 138 474 254 474 c 0
 373 474 448 379 448 230 c 0
 448 81 373 -14 254 -14 c 0
 138 -14 33 72 33 230 c 0
168 230 m 0
 168 148 224 102 292 102 c 0
 348 102 412 146 412 230 c 0
 412 314 348 358 292 358 c 0
 224 358 168 312 168 230 c 0
EndSplineSet
EndChar

StartChar: h
Encoding: 104 104 35
Width: 555
VWidth: 0
Flags: HMW
LayerCount: 2
Fore
SplineSet
194 780 m 1
 194 0 l 1
 64 0 l 1
 64 780 l 1
 194 780 l 1
362 280 m 2
 362 340 340 374 286 374 c 0
 232 374 194 338 194 280 c 1
 168 280 l 1
 168 389 226 475 334 475 c 0
 442 475 492 413 492 298 c 2
 492 0 l 1
 362 0 l 1
 362 280 l 2
EndSplineSet
EndChar

StartChar: n
Encoding: 110 110 36
Width: 560
VWidth: 0
Flags: HMW
LayerCount: 2
Fore
SplineSet
362 280 m 2
 362 340 340 374 286 374 c 0
 232 374 194 338 194 280 c 2
 194 0 l 1
 64 0 l 1
 64 460 l 1
 194 460 l 1
 194 390 l 1
 222 442 268 470 334 470 c 0
 443 470 496 404 496 294 c 2
 496 0 l 1
 362 0 l 1
 362 280 l 2
EndSplineSet
EndChar

StartChar: m
Encoding: 109 109 37
Width: 808
VWidth: 0
Flags: HMW
LayerCount: 2
Fore
SplineSet
744 294 m 2
 744 0 l 1
 614 0 l 1
 614 280 l 2
 614 342 593 374 547 374 c 0
 499 374 467 341 467 280 c 2
 467 0 l 1
 336 0 l 1
 336 280 l 2
 336 342 316 374 270 374 c 0
 222 374 190 341 190 280 c 2
 190 0 l 1
 64 0 l 1
 64 460 l 1
 190 460 l 1
 190 392 l 1
 216 442 260 470 321 470 c 0
 391 470 435 444 454 392 c 1
 486 442 536 470 598 470 c 0
 701 470 744 406 744 294 c 2
EndSplineSet
EndChar

StartChar: k
Encoding: 107 107 38
Width: 535
VWidth: 0
Flags: HMW
LayerCount: 2
Fore
SplineSet
62 780 m 1
 187 780 l 1
 187 0 l 1
 62 0 l 1
 62 780 l 1
356 460 m 1
 512 460 l 1
 314 270 l 1
 532 0 l 1
 377 0 l 1
 158 270 l 1
 356 460 l 1
EndSplineSet
EndChar

StartChar: u
Encoding: 117 117 39
Width: 560
VWidth: 0
Flags: HMW
LayerCount: 2
Fore
SplineSet
199 180 m 2
 199 121 220 86 274 86 c 0
 328 86 366 122 366 180 c 2
 366 460 l 1
 496 460 l 1
 496 0 l 1
 366 0 l 1
 366 70 l 1
 338 18 292 -10 226 -10 c 0
 118 -10 64 56 64 166 c 2
 64 460 l 1
 199 460 l 1
 199 180 l 2
EndSplineSet
EndChar

StartChar: e
Encoding: 101 101 40
Width: 555
VWidth: 0
Flags: HMW
LayerCount: 2
Fore
SplineSet
282 -10 m 0
 130 -10 33 84 33 230 c 0
 33 377 128 470 282 470 c 0
 434 470 522 384 522 236 c 0
 522 222 520 210 520 202 c 1
 108 202 l 1
 108 281 l 1
 406 281 l 1
 370 235 l 1
 376 244 382 259 382 269 c 0
 382 335 341 378 280 378 c 0
 205 378 164 329 164 233 c 0
 162 142 206 89 282 89 c 0
 338 89 380 111 406 156 c 1
 520 120 l 1
 472 33 394 -10 282 -10 c 0
EndSplineSet
EndChar

StartChar: g
Encoding: 103 103 41
Width: 598
VWidth: 0
Flags: HMW
LayerCount: 2
Fore
SplineSet
42 -32 m 1
 170 -32 l 1
 174 -92 218 -129 286 -129 c 0
 352 -129 412 -84 412 10 c 2
 412 460 l 1
 537 460 l 1
 537 10 l 2
 537 -162 424 -236 292 -236 c 0
 131 -236 50 -153 42 -32 c 1
33 234 m 0
 33 387 138 470 254 470 c 0
 369 470 452 383 452 234 c 0
 452 85 369 -2 254 -2 c 0
 138 -2 33 81 33 234 c 0
168 234 m 0
 168 152 224 106 292 106 c 0
 348 106 412 150 412 234 c 0
 412 318 348 362 292 362 c 0
 224 362 168 316 168 234 c 0
EndSplineSet
EndChar

StartChar: f
Encoding: 102 102 42
Width: 326
VWidth: 0
Flags: HMW
LayerCount: 2
Fore
SplineSet
24 460 m 1
 314 460 l 1
 314 350 l 1
 24 350 l 1
 24 460 l 1
300 650 m 1
 286 670 270 675 252 675 c 0
 222 675 204 652 204 600 c 2
 204 0 l 1
 78 0 l 1
 78 630 l 2
 78 735 134 794 240 794 c 0
 300 794 337 767 356 747 c 1
 300 650 l 1
EndSplineSet
EndChar

StartChar: s
Encoding: 115 115 43
Width: 440
VWidth: 0
Flags: HMW
LayerCount: 2
Fore
SplineSet
87 159 m 1
 145 105 191 84 231 84 c 0
 265 84 284 100 284 126 c 0
 284 160 252 177 184 200 c 0
 120 222 54 256 54 342 c 0
 54 426 126 470 218 470 c 0
 295 470 360 438 406 396 c 1
 349 314 l 1
 315 350 265 376 222 376 c 0
 193 376 174 363 174 342 c 0
 174 309 216 297 278 273 c 0
 352 244 414 214 414 130 c 0
 414 38 351 -16 246 -16 c 0
 148 -16 75 27 24 78 c 1
 87 159 l 1
EndSplineSet
EndChar

StartChar: y
Encoding: 121 121 44
Width: 496
VWidth: 0
Flags: HMW
LayerCount: 2
Fore
SplineSet
504 460 m 1
 204 -220 l 1
 70 -220 l 1
 186 46 l 1
 -6 460 l 1
 139 460 l 1
 286 94 l 1
 222 96 l 1
 368 460 l 1
 504 460 l 1
EndSplineSet
EndChar

StartChar: w
Encoding: 119 119 45
Width: 736
VWidth: 0
Flags: HMW
LayerCount: 2
Fore
SplineSet
-4 460 m 1
 134 460 l 1
 236 206 l 1
 366 495 l 1
 500 204 l 1
 602 460 l 1
 741 460 l 1
 514 -31 l 1
 366 261 l 1
 222 -31 l 1
 -4 460 l 1
EndSplineSet
EndChar

StartChar: v
Encoding: 118 118 46
Width: 500
VWidth: 0
Flags: HMW
LayerCount: 2
Fore
SplineSet
-2 460 m 1
 138 460 l 1
 251 184 l 1
 364 460 l 1
 504 460 l 1
 251 -48 l 1
 -2 460 l 1
EndSplineSet
EndChar

StartChar: x
Encoding: 120 120 47
Width: 498
VWidth: 0
Flags: HMW
LayerCount: 2
Fore
SplineSet
344 460 m 1
 488 460 l 1
 318 236 l 1
 498 0 l 1
 354 0 l 1
 252 146 l 1
 149 0 l 1
 0 0 l 1
 182 236 l 1
 10 460 l 1
 159 460 l 1
 252 328 l 1
 344 460 l 1
EndSplineSet
EndChar

StartChar: z
Encoding: 122 122 48
Width: 503
VWidth: 0
Flags: HMW
LayerCount: 2
Fore
SplineSet
269 341 m 1
 54 341 l 1
 54 460 l 1
 489 460 l 1
 242 119 l 1
 460 119 l 1
 460 0 l 1
 15 0 l 1
 269 341 l 1
EndSplineSet
EndChar

StartChar: j
Encoding: 106 106 49
Width: 264
VWidth: 0
Flags: HMW
LayerCount: 2
Fore
SplineSet
50 638 m 0
 50 680 84 711 128 711 c 0
 172 711 206 680 206 638 c 0
 206 596 172 564 128 564 c 0
 84 564 50 596 50 638 c 0
-28 -88 m 1
 -16 -104 -2 -114 18 -114 c 0
 50 -114 66 -91 66 -39 c 2
 66 460 l 1
 193 460 l 1
 193 -68 l 2
 193 -168 137 -234 31 -234 c 0
 -28 -234 -62 -210 -84 -186 c 1
 -28 -88 l 1
EndSplineSet
EndChar

StartChar: P
Encoding: 80 80 50
Width: 600
VWidth: 0
Flags: HMW
LayerCount: 2
Fore
SplineSet
76 700 m 1
 220 700 l 1
 220 0 l 1
 76 0 l 1
 76 700 l 1
164 578 m 1
 164 700 l 1
 303 700 l 2
 469 700 564 614 564 476 c 0
 564 338 469 254 303 254 c 2
 164 254 l 1
 164 376 l 1
 303 376 l 2
 377 376 425 410 425 476 c 0
 425 542 377 578 303 578 c 2
 164 578 l 1
EndSplineSet
EndChar

StartChar: U
Encoding: 85 85 51
Width: 678
VWidth: 0
Flags: HMW
LayerCount: 2
Fore
SplineSet
71 700 m 1
 214 700 l 1
 214 238 l 2
 214 160 257 107 339 107 c 0
 421 107 464 160 464 238 c 2
 464 700 l 1
 608 700 l 1
 608 230 l 2
 608 65 493 -24 339 -24 c 0
 185 -24 71 65 71 230 c 2
 71 700 l 1
EndSplineSet
EndChar

StartChar: S
Encoding: 83 83 52
Width: 601
VWidth: 0
Flags: HMW
LayerCount: 2
Fore
SplineSet
138 236 m 1
 182 158 239 106 314 106 c 0
 372 106 410 138 410 188 c 0
 410 252 360 274 266 310 c 0
 196 336 79 386 79 520 c 0
 79 638 180 714 311 714 c 0
 443 714 522 636 558 564 c 1
 446 500 l 1
 416 550 373 591 311 591 c 0
 255 591 227 561 227 526 c 0
 227 474 279 445 384 409 c 0
 475 377 562 314 562 196 c 0
 562 60 442 -18 316 -18 c 0
 186 -18 80 62 34 162 c 1
 138 236 l 1
EndSplineSet
EndChar

StartChar: at
Encoding: 64 64 53
Width: 770
VWidth: 0
Flags: HMW
LayerCount: 2
Fore
SplineSet
301 320 m 0
 301 272 320 246 357 246 c 0
 396 246 444 286 444 366 c 0
 444 416 419 440 385 440 c 0
 341 440 301 388 301 320 c 0
194 314 m 0
 194 453 283 530 364 530 c 0
 440 530 488 453 488 370 c 0
 488 231 414 156 328 156 c 0
 250 156 194 215 194 314 c 0
24 320 m 0
 24 543 187 718 415 718 c 0
 629 718 746 553 746 390 c 0
 746 212 646 146 558 146 c 0
 493 146 442 200 452 266 c 1
 442 288 l 1
 469 520 l 1
 573 520 l 1
 542 302 l 2
 541 295 540 284 540 276 c 0
 540 252 546 234 570 234 c 0
 596 234 648 268 648 390 c 0
 648 519 569 630 415 630 c 0
 235 630 122 499 122 320 c 0
 122 166 212 68 374 68 c 0
 444 68 503 80 563 114 c 1
 600 34 l 1
 540 0 471 -21 365 -21 c 0
 143 -21 24 121 24 320 c 0
EndSplineSet
EndChar

StartChar: period
Encoding: 46 46 54
Width: 315
VWidth: 0
Flags: HMW
LayerCount: 2
Fore
SplineSet
76 60 m 0
 76 104 110 141 158 141 c 0
 206 141 240 104 240 60 c 0
 240 16 206 -22 158 -22 c 0
 110 -22 76 16 76 60 c 0
EndSplineSet
EndChar

StartChar: comma
Encoding: 44 44 55
Width: 318
VWidth: 0
Flags: HMW
LayerCount: 2
Fore
SplineSet
128 110 m 1
 259 78 l 1
 138 -172 l 1
 40 -149 l 1
 128 110 l 1
EndSplineSet
EndChar

StartChar: colon
Encoding: 58 58 56
Width: 315
VWidth: 0
Flags: HMW
LayerCount: 2
Fore
SplineSet
76 60 m 0
 76 104 110 141 158 141 c 0
 206 141 240 104 240 60 c 0
 240 16 206 -22 158 -22 c 0
 110 -22 76 16 76 60 c 0
76 436 m 0
 76 480 110 516 158 516 c 0
 206 516 240 480 240 436 c 0
 240 392 206 354 158 354 c 0
 110 354 76 392 76 436 c 0
EndSplineSet
EndChar

StartChar: semicolon
Encoding: 59 59 57
Width: 374
VWidth: 0
Flags: HMW
LayerCount: 2
Fore
SplineSet
121 431 m 0
 121 475 155 512 203 512 c 0
 251 512 286 475 286 431 c 0
 286 387 251 350 203 350 c 0
 155 350 121 387 121 431 c 0
144 110 m 1
 274 78 l 1
 153 -172 l 1
 56 -149 l 1
 144 110 l 1
EndSplineSet
EndChar

StartChar: quotedbl
Encoding: 34 34 58
Width: 502
VWidth: 0
Flags: HMW
LayerCount: 2
Fore
SplineSet
112 700 m 1
 254 700 l 1
 152 386 l 1
 66 386 l 1
 112 700 l 1
314 700 m 1
 456 700 l 1
 354 386 l 1
 268 386 l 1
 314 700 l 1
EndSplineSet
EndChar

StartChar: exclam
Encoding: 33 33 59
Width: 330
VWidth: 0
Flags: HMW
LayerCount: 2
Fore
SplineSet
84 700 m 1
 246 700 l 1
 217 222 l 1
 114 222 l 1
 84 700 l 1
83 56 m 0
 83 100 118 132 166 132 c 0
 214 132 248 100 248 56 c 0
 248 12 214 -22 166 -22 c 0
 118 -22 83 12 83 56 c 0
EndSplineSet
EndChar

StartChar: quotesingle
Encoding: 39 39 60
Width: 299
VWidth: 0
Flags: HMW
LayerCount: 2
Fore
SplineSet
112 700 m 1
 254 700 l 1
 152 386 l 1
 66 386 l 1
 112 700 l 1
EndSplineSet
EndChar

StartChar: numbersign
Encoding: 35 35 61
Width: 648
VWidth: 0
Flags: HMW
LayerCount: 2
Fore
SplineSet
75 420 m 1
 75 524 l 1
 614 524 l 1
 614 420 l 1
 464 420 l 0
 438 424 l 0
 238 424 l 0
 216 420 l 0
 75 420 l 1
35 180 m 1
 35 284 l 1
 173 284 l 0
 200 280 l 0
 421 280 l 0
 448 284 l 0
 574 284 l 1
 574 180 l 1
 35 180 l 1
468 700 m 1
 582 700 l 1
 412 0 l 1
 298 0 l 1
 352 225 l 0
 363 249 l 0
 414 458 l 0
 416 484 l 0
 468 700 l 1
236 700 m 1
 351 700 l 1
 298 486 l 0
 288 459 l 0
 236 250 l 0
 236 226 l 0
 181 0 l 1
 66 0 l 1
 236 700 l 1
EndSplineSet
EndChar

StartChar: hyphen
Encoding: 45 45 62
Width: 218
VWidth: 0
Flags: HMW
LayerCount: 2
Fore
SplineSet
5 180 m 1
 5 294 l 1
 214 294 l 1
 214 180 l 1
 5 180 l 1
EndSplineSet
EndChar

StartChar: dollar
Encoding: 36 36 63
Width: 608
VWidth: 0
Flags: HMW
LayerCount: 2
Fore
SplineSet
261 818 m 1
 370 818 l 1
 366 646 l 1
 266 646 l 1
 261 818 l 1
266 58 m 1
 365 58 l 1
 370 -112 l 1
 261 -112 l 1
 266 58 l 1
446 496 m 1
 416 554 376 598 316 598 c 0
 254 598 228 570 228 526 c 0
 228 462 303 440 388 408 c 0
 476 376 566 317 566 194 c 0
 566 66 470 -10 314 -10 c 0
 190 -10 84 70 40 172 c 1
 145 244 l 1
 191 156 240 108 318 108 c 0
 384 108 414 138 414 190 c 0
 414 256 346 282 264 313 c 0
 194 339 79 392 79 526 c 0
 79 626 176 710 312 710 c 0
 446 710 518 636 556 562 c 1
 446 496 l 1
EndSplineSet
EndChar

StartChar: bar
Encoding: 124 124 64
Width: 328
VWidth: 0
Flags: HMW
LayerCount: 2
Fore
SplineSet
100 785 m 1
 230 785 l 1
 230 -215 l 1
 100 -215 l 1
 100 785 l 1
EndSplineSet
EndChar

StartChar: zero
Encoding: 48 48 65
Width: 643
VWidth: 0
Flags: HMW
LayerCount: 2
Fore
SplineSet
180 350 m 0
 180 208 236 114 322 114 c 0
 408 114 464 208 464 350 c 0
 464 492 408 586 322 586 c 0
 236 586 180 492 180 350 c 0
40 350 m 0
 40 572 154 712 322 712 c 0
 494 712 604 572 604 350 c 0
 604 128 494 -12 322 -12 c 0
 154 -12 40 128 40 350 c 0
EndSplineSet
Substitution2: "Tabular Numbers lookup" uniFF10
EndChar

StartChar: one
Encoding: 49 49 66
Width: 491
VWidth: 0
Flags: HMW
LayerCount: 2
Fore
SplineSet
72 517 m 1
 72 646 l 1
 379 712 l 1
 379 0 l 1
 239 0 l 1
 239 560 l 1
 72 517 l 1
EndSplineSet
Substitution2: "Tabular Numbers lookup" uniFF11
EndChar

StartChar: two
Encoding: 50 50 67
Width: 629
VWidth: 0
Flags: HMW
LayerCount: 2
Fore
SplineSet
20 0 m 1
 338 332 l 2
 391 388 422 432 422 488 c 0
 422 538 385 587 315 587 c 0
 243 587 198 530 198 446 c 1
 56 446 l 1
 56 595 148 713 319 713 c 0
 487 713 571 597 571 497 c 0
 571 423 531 356 472 303 c 2
 292 132 l 1
 584 132 l 1
 584 0 l 1
 20 0 l 1
EndSplineSet
Substitution2: "Tabular Numbers lookup" uniFF12
EndChar

StartChar: four
Encoding: 52 52 68
Width: 663
VWidth: 0
Flags: HMW
LayerCount: 2
Fore
SplineSet
16 129 m 1
 416 700 l 1
 515 700 l 1
 515 0 l 1
 366 0 l 1
 366 176 l 1
 380 187 l 1
 380 472 l 1
 214 236 l 1
 465 236 l 1
 482 252 l 1
 625 252 l 1
 625 129 l 1
 16 129 l 1
EndSplineSet
Substitution2: "Tabular Numbers lookup" uniFF14
EndChar

StartChar: slash
Encoding: 47 47 69
Width: 580
VWidth: 0
Flags: HMW
LayerCount: 2
Fore
SplineSet
440 700 m 1
 566 700 l 1
 146 -150 l 1
 15 -150 l 1
 440 700 l 1
EndSplineSet
EndChar

StartChar: backslash
Encoding: 92 92 70
Width: 536
VWidth: 0
Flags: HMW
LayerCount: 2
Fore
SplineSet
15 700 m 1
 144 700 l 1
 522 0 l 1
 394 0 l 1
 15 700 l 1
EndSplineSet
EndChar

StartChar: eight
Encoding: 56 56 71
Width: 602
VWidth: 0
Flags: HMW
LayerCount: 2
Fore
SplineSet
78 531 m 0
 78 643 178 714 302 714 c 0
 426 714 525 643 525 531 c 0
 525 409 417 346 302 346 c 0
 187 346 78 409 78 531 c 0
214 517 m 0
 214 465 253 428 302 428 c 0
 351 428 389 465 389 517 c 0
 389 569 354 606 302 606 c 0
 250 606 214 569 214 517 c 0
53 190 m 0
 53 332 187 394 302 394 c 0
 417 394 550 332 550 190 c 0
 550 68 436 -14 302 -14 c 0
 168 -14 53 68 53 190 c 0
195 211 m 0
 195 143 246 104 302 104 c 0
 358 104 408 143 408 211 c 0
 408 269 358 316 302 316 c 0
 246 316 195 269 195 211 c 0
EndSplineSet
Substitution2: "Tabular Numbers lookup" uniFF18
EndChar

StartChar: nine
Encoding: 57 57 72
Width: 641
VWidth: 0
Flags: HMW
LayerCount: 2
Fore
SplineSet
450 459 m 0
 450 537 395 590 321 590 c 0
 247 590 191 537 191 459 c 0
 191 381 247 326 321 326 c 0
 395 326 450 381 450 459 c 0
310 2 m 1
 127 2 l 1
 352 266 l 1
 378 275 l 1
 344 240 312 232 264 232 c 0
 156 232 50 321 50 459 c 0
 50 623 171 714 321 714 c 0
 471 714 592 623 592 459 c 0
 592 389 561 329 521 279 c 2
 310 2 l 1
EndSplineSet
Substitution2: "Tabular Numbers lookup" uniFF19
EndChar

StartChar: three
Encoding: 51 51 73
Width: 598
VWidth: 0
Flags: HMW
LayerCount: 2
Fore
SplineSet
268 341 m 1
 268 410 l 1
 350 410 401 457 401 512 c 0
 401 560 372 594 314 594 c 0
 258 594 215 556 215 504 c 1
 82 504 l 1
 82 624 175 712 314 712 c 0
 460 712 544 626 544 520 c 0
 544 406 424 341 268 341 c 1
307 -14 m 0
 148 -14 52 91 52 211 c 1
 194 211 l 1
 194 143 248 105 312 105 c 0
 376 105 421 139 421 204 c 0
 421 270 366 312 268 312 c 1
 268 388 l 1
 438 388 564 330 564 189 c 0
 564 68 465 -14 307 -14 c 0
EndSplineSet
Substitution2: "Tabular Numbers lookup" uniFF13
EndChar

StartChar: five
Encoding: 53 53 74
Width: 620
VWidth: 0
Flags: HMW
LayerCount: 2
Fore
SplineSet
580 226 m 0
 580 63 445 -12 310 -12 c 0
 181 -12 98 38 38 96 c 1
 106 208 l 1
 154 156 223 120 283 120 c 0
 372 120 425 162 425 238 c 0
 425 314 357 355 283 355 c 0
 225 355 163 346 92 306 c 1
 188 700 l 1
 570 700 l 1
 570 574 l 1
 294 574 l 1
 252 432 l 1
 288 450 327 457 369 457 c 0
 483 457 580 369 580 226 c 0
EndSplineSet
Substitution2: "Tabular Numbers lookup" uniFF15
EndChar

StartChar: six
Encoding: 54 54 75
Width: 641
VWidth: 0
Flags: HMW
LayerCount: 2
Fore
SplineSet
191 241 m 0
 191 163 247 110 321 110 c 0
 395 110 450 163 450 241 c 0
 450 319 395 374 321 374 c 0
 247 374 191 319 191 241 c 0
332 698 m 1
 514 698 l 1
 290 434 l 1
 264 425 l 1
 298 460 330 468 378 468 c 0
 486 468 592 379 592 241 c 0
 592 77 471 -14 321 -14 c 0
 171 -14 50 77 50 241 c 0
 50 311 80 371 120 421 c 2
 332 698 l 1
EndSplineSet
Substitution2: "Tabular Numbers lookup" uniFF16
EndChar

StartChar: seven
Encoding: 55 55 76
Width: 579
VWidth: 0
Flags: HMW
LayerCount: 2
Fore
SplineSet
30 566 m 1
 30 700 l 1
 576 700 l 1
 240 0 l 1
 85 0 l 1
 365 566 l 1
 30 566 l 1
EndSplineSet
Substitution2: "Tabular Numbers lookup" uniFF17
EndChar

StartChar: plus
Encoding: 43 43 77
Width: 656
VWidth: 0
Flags: HMW
LayerCount: 2
Fore
SplineSet
65 202 m 1
 65 328 l 1
 592 328 l 1
 592 202 l 1
 65 202 l 1
261 528 m 1
 396 528 l 1
 396 2 l 1
 261 2 l 1
 261 528 l 1
EndSplineSet
EndChar

StartChar: equal
Encoding: 61 61 78
Width: 622
VWidth: 0
Flags: HMW
LayerCount: 2
Fore
SplineSet
58 101 m 1
 58 215 l 1
 564 215 l 1
 564 101 l 1
 58 101 l 1
58 290 m 1
 58 404 l 1
 564 404 l 1
 564 290 l 1
 58 290 l 1
EndSplineSet
EndChar

StartChar: percent
Encoding: 37 37 79
Width: 868
VWidth: 0
Flags: HMW
LayerCount: 2
Fore
SplineSet
26 539 m 0
 26 637 102 716 206 716 c 0
 310 716 386 637 386 539 c 0
 386 441 310 362 206 362 c 0
 102 362 26 441 26 539 c 0
134 539 m 0
 134 499 163 464 206 464 c 0
 249 464 277 499 277 539 c 0
 277 579 249 614 206 614 c 0
 163 614 134 579 134 539 c 0
484 161 m 0
 484 259 559 338 663 338 c 0
 767 338 842 259 842 161 c 0
 842 63 767 -16 663 -16 c 0
 559 -16 484 63 484 161 c 0
592 161 m 0
 592 121 620 86 663 86 c 0
 706 86 734 121 734 161 c 0
 734 201 706 236 663 236 c 0
 620 236 592 201 592 161 c 0
624 700 m 1
 756 700 l 1
 244 0 l 1
 113 0 l 1
 624 700 l 1
EndSplineSet
EndChar

StartChar: ampersand
Encoding: 38 38 80
Width: 728
VWidth: 0
Flags: HMW
LayerCount: 2
Fore
SplineSet
223 376 m 2
 180 423 124 475 124 548 c 0
 124 638 202 715 326 715 c 0
 449 715 518 634 518 550 c 0
 518 466 459 420 353 352 c 0
 281 307 177 283 177 197 c 0
 177 141 222 100 294 100 c 0
 412 100 522 208 606 334 c 1
 696 267 l 1
 604 135 470 -12 278 -12 c 0
 150 -12 40 63 40 186 c 0
 40 342 210 385 280 419 c 0
 355 457 396 500 396 540 c 0
 396 578 369 609 324 609 c 0
 276 609 252 578 252 540 c 0
 252 498 292 462 342 408 c 2
 712 0 l 1
 561 0 l 1
 223 376 l 2
EndSplineSet
EndChar

StartChar: question
Encoding: 63 63 81
Width: 606
VWidth: 0
Flags: HMW
LayerCount: 2
Fore
SplineSet
419 500 m 0
 419 566 372 604 296 604 c 0
 233 604 177 572 142 518 c 1
 52 590 l 1
 116 668 187 716 306 716 c 0
 435 716 550 632 550 500 c 0
 550 380 445 300 337 286 c 1
 331 192 l 1
 228 192 l 1
 208 369 l 1
 238 369 l 2
 358 369 419 442 419 500 c 0
198 54 m 0
 198 94 233 128 281 128 c 0
 329 128 363 94 363 54 c 0
 363 14 329 -22 281 -22 c 0
 233 -22 198 14 198 54 c 0
EndSplineSet
EndChar

StartChar: parenleft
Encoding: 40 40 82
Width: 331
VWidth: 0
Flags: HMW
LayerCount: 2
Fore
SplineSet
194 780 m 1
 313 780 l 1
 243 630 206 460 206 290 c 0
 206 120 243 -50 313 -200 c 1
 194 -200 l 1
 114 -50 74 120 74 290 c 0
 74 460 114 630 194 780 c 1
EndSplineSet
EndChar

StartChar: parenright
Encoding: 41 41 83
Width: 331
VWidth: 0
Flags: HMW
LayerCount: 2
Fore
SplineSet
138 -200 m 1
 19 -200 l 1
 89 -50 126 120 126 290 c 0
 126 460 89 630 19 780 c 1
 138 780 l 1
 218 630 257 460 257 290 c 0
 257 120 218 -50 138 -200 c 1
EndSplineSet
EndChar

StartChar: asterisk
Encoding: 42 42 84
Width: 592
VWidth: 0
Flags: HMW
LayerCount: 2
Fore
SplineSet
490 602 m 1
 526 490 l 1
 307 444 l 1
 285 508 l 1
 490 602 l 1
476 331 m 1
 379 261 l 1
 269 456 l 1
 323 496 l 1
 476 331 l 1
213 261 m 1
 116 331 l 1
 269 496 l 1
 323 456 l 1
 213 261 l 1
66 490 m 1
 102 602 l 1
 307 508 l 1
 285 444 l 1
 66 490 l 1
237 700 m 1
 355 700 l 1
 330 476 l 1
 262 476 l 1
 237 700 l 1
EndSplineSet
EndChar

StartChar: less
Encoding: 60 60 85
Width: 640
VWidth: 0
Flags: HMW
LayerCount: 2
Fore
SplineSet
256 266 m 1
 575 132 l 1
 575 4 l 1
 65 220 l 1
 65 304 l 1
 575 520 l 1
 575 392 l 1
 256 266 l 1
EndSplineSet
EndChar

StartChar: greater
Encoding: 62 62 86
Width: 640
VWidth: 0
Flags: HMW
LayerCount: 2
Fore
SplineSet
384 258 m 1
 65 392 l 1
 65 520 l 1
 575 304 l 1
 575 220 l 1
 65 4 l 1
 65 132 l 1
 384 258 l 1
EndSplineSet
EndChar

StartChar: bracketleft
Encoding: 91 91 87
Width: 343
VWidth: 0
Flags: HMW
LayerCount: 2
Fore
SplineSet
223 666 m 1
 223 -106 l 1
 324 -106 l 1
 324 -220 l 1
 94 -220 l 1
 94 780 l 1
 324 780 l 1
 324 666 l 1
 223 666 l 1
EndSplineSet
EndChar

StartChar: bracketright
Encoding: 93 93 88
Width: 343
VWidth: 0
Flags: HMW
LayerCount: 2
Fore
SplineSet
121 -106 m 1
 121 666 l 1
 20 666 l 1
 20 780 l 1
 250 780 l 1
 250 -220 l 1
 20 -220 l 1
 20 -106 l 1
 121 -106 l 1
EndSplineSet
EndChar

StartChar: asciicircum
Encoding: 94 94 89
Width: 510
VWidth: 0
Flags: HMW
LayerCount: 2
Fore
SplineSet
255 592 m 1
 166 452 l 1
 48 452 l 1
 218 710 l 1
 292 710 l 1
 462 452 l 1
 344 452 l 1
 255 592 l 1
EndSplineSet
EndChar

StartChar: underscore
Encoding: 95 95 90
Width: 521
VWidth: 0
Flags: HMW
LayerCount: 2
Fore
SplineSet
0 -148 m 1
 0 -64 l 1
 522 -64 l 1
 522 -148 l 1
 0 -148 l 1
EndSplineSet
EndChar

StartChar: grave
Encoding: 96 96 91
Width: 375
VWidth: 0
Flags: HMW
LayerCount: 2
Fore
SplineSet
60 656 m 1
 164 704 l 1
 314 544 l 1
 240 506 l 1
 60 656 l 1
EndSplineSet
EndChar

StartChar: braceleft
Encoding: 123 123 92
Width: 371
VWidth: 0
Flags: HMW
LayerCount: 2
Fore
SplineSet
240 625 m 2
 240 490 l 2
 240 401 234 280 104 280 c 1
 104 300 l 1
 234 300 240 179 240 90 c 2
 240 -45 l 2
 240 -71 258 -95 288 -95 c 2
 322 -95 l 1
 322 -200 l 1
 240 -200 l 2
 170 -200 98 -159 98 -60 c 2
 98 132 l 2
 98 208 80 232 42 242 c 1
 42 338 l 1
 80 348 98 372 98 448 c 2
 98 640 l 2
 98 739 170 780 240 780 c 2
 322 780 l 1
 322 675 l 1
 288 675 l 2
 258 675 240 651 240 625 c 2
EndSplineSet
EndChar

StartChar: braceright
Encoding: 125 125 93
Width: 371
VWidth: 0
Flags: HMW
LayerCount: 2
Fore
SplineSet
138 -45 m 2
 138 90 l 2
 138 179 143 300 273 300 c 1
 273 280 l 1
 143 280 138 401 138 490 c 2
 138 625 l 2
 138 651 120 675 90 675 c 2
 55 675 l 1
 55 780 l 1
 137 780 l 2
 207 780 280 739 280 640 c 2
 280 448 l 2
 280 372 298 348 336 338 c 1
 336 242 l 1
 298 232 280 208 280 132 c 2
 280 -60 l 2
 280 -159 207 -200 137 -200 c 2
 55 -200 l 1
 55 -95 l 1
 90 -95 l 2
 120 -95 138 -71 138 -45 c 2
EndSplineSet
EndChar

StartChar: asciitilde
Encoding: 126 126 94
Width: 575
VWidth: 0
Flags: HMW
LayerCount: 2
Fore
SplineSet
152 168 m 1
 46 172 l 1
 44 179 44 187 44 196 c 0
 44 226 50 256 72 284 c 0
 98 318 134 340 194 340 c 0
 237 340 272 324 318 292 c 0
 348 270 372 258 390 258 c 0
 414 258 426 275 426 300 c 0
 426 310 424 322 420 332 c 1
 528 326 l 1
 530 318 532 308 532 298 c 0
 532 270 526 237 505 210 c 0
 479 176 448 158 398 158 c 0
 360 158 324 176 277 208 c 0
 247 230 218 242 193 242 c 0
 160 242 146 220 146 194 c 0
 146 183 149 176 152 168 c 1
EndSplineSet
EndChar

StartChar: exclamdown
Encoding: 161 161 95
Width: 330
VWidth: 0
Flags: HMW
LayerCount: 2
Fore
SplineSet
246 -234 m 1
 84 -234 l 1
 114 244 l 1
 217 244 l 1
 246 -234 l 1
248 411 m 0
 248 367 214 334 166 334 c 0
 118 334 83 367 83 411 c 0
 83 455 118 488 166 488 c 0
 214 488 248 455 248 411 c 0
EndSplineSet
EndChar

StartChar: cent
Encoding: 162 162 96
Width: 580
VWidth: 0
Flags: HMW
LayerCount: 2
Fore
SplineSet
249 38 m 1
 346 38 l 1
 352 -112 l 1
 243 -112 l 1
 249 38 l 1
192 230 m 0
 192 148 254 97 326 97 c 0
 392 97 443 129 468 170 c 1
 468 36 l 1
 436 6 380 -10 317 -10 c 0
 169 -10 60 87 60 230 c 0
 60 373 169 470 317 470 c 0
 380 470 436 452 468 424 c 1
 468 290 l 1
 443 331 392 363 326 363 c 0
 254 363 192 308 192 230 c 0
243 578 m 1
 352 578 l 1
 346 428 l 1
 249 428 l 1
 243 578 l 1
EndSplineSet
EndChar

StartChar: sterling
Encoding: 163 163 97
Width: 601
VWidth: 0
Flags: HMW
LayerCount: 2
Fore
SplineSet
67 370 m 1
 440 370 l 1
 440 278 l 1
 67 278 l 1
 67 370 l 1
439 470 m 1
 435 530 408 591 330 591 c 0
 278 591 232 564 232 502 c 0
 232 408 324 380 324 268 c 0
 324 162 218 70 144 50 c 1
 180 122 l 1
 532 122 l 1
 532 0 l 1
 56 0 l 1
 154 102 198 179 198 275 c 0
 198 369 94 398 94 520 c 0
 94 639 197 710 325 710 c 0
 471 710 551 598 556 514 c 1
 439 470 l 1
EndSplineSet
EndChar

StartChar: currency
Encoding: 164 164 98
Width: 577
VWidth: 0
Flags: HMW
LayerCount: 2
Fore
SplineSet
27 503 m 1
 86 562 l 1
 184 463 l 1
 126 406 l 1
 27 503 l 1
86 38 m 1
 27 97 l 1
 126 194 l 1
 184 137 l 1
 86 38 l 1
452 406 m 1
 394 463 l 1
 492 562 l 1
 550 503 l 1
 452 406 l 1
394 137 m 1
 452 194 l 1
 550 97 l 1
 492 38 l 1
 394 137 l 1
52 300 m 0
 52 439 155 540 290 540 c 0
 425 540 528 439 528 300 c 0
 528 161 425 60 290 60 c 0
 155 60 52 161 52 300 c 0
172 300 m 0
 172 228 222 179 290 179 c 0
 358 179 407 228 407 300 c 0
 407 372 358 421 290 421 c 0
 222 421 172 372 172 300 c 0
EndSplineSet
EndChar

StartChar: yen
Encoding: 165 165 99
Width: 642
VWidth: 0
Flags: HMW
LayerCount: 2
Fore
SplineSet
45 272 m 1
 45 365 l 1
 594 365 l 1
 594 272 l 1
 45 272 l 1
45 122 m 1
 45 215 l 1
 594 215 l 1
 594 122 l 1
 45 122 l 1
471 700 m 1
 635 700 l 1
 396 292 l 1
 396 0 l 1
 248 0 l 1
 248 290 l 1
 6 700 l 1
 172 700 l 1
 321 418 l 1
 471 700 l 1
EndSplineSet
EndChar

StartChar: brokenbar
Encoding: 166 166 100
Width: 328
VWidth: 0
Flags: HMW
LayerCount: 2
Fore
SplineSet
100 695 m 1
 230 695 l 1
 230 438 l 1
 100 438 l 1
 100 695 l 1
230 262 m 1
 230 5 l 1
 100 5 l 1
 100 262 l 1
 230 262 l 1
EndSplineSet
EndChar

StartChar: section
Encoding: 167 167 101
Width: 526
VWidth: 0
Flags: HMW
LayerCount: 2
Fore
SplineSet
374 558 m 1
 348 590 302 609 269 609 c 0
 233 609 212 597 212 575 c 0
 212 546 263 532 316 515 c 0
 388 492 450 447 450 376 c 0
 450 274 356 232 250 232 c 1
 250 272 l 1
 292 276 328 310 328 350 c 0
 328 403 264 422 212 442 c 0
 152 465 87 501 87 582 c 0
 87 672 177 720 262 720 c 0
 340 720 417 684 442 640 c 1
 374 558 l 1
118 170 m 1
 156 118 215 91 259 91 c 0
 301 91 322 107 322 133 c 0
 322 169 276 183 222 200 c 0
 150 222 77 265 77 342 c 0
 77 432 167 480 281 480 c 1
 281 446 l 1
 235 430 200 410 200 369 c 0
 200 307 275 295 326 274 c 0
 391 247 453 206 453 130 c 0
 453 27 362 -18 263 -18 c 0
 161 -18 84 28 48 90 c 1
 118 170 l 1
EndSplineSet
EndChar

StartChar: dieresis
Encoding: 168 168 102
Width: 498
VWidth: 0
Flags: HMW
LayerCount: 2
Fore
SplineSet
286 640 m 0
 286 682 321 714 365 714 c 0
 409 714 443 682 443 640 c 0
 443 598 409 566 365 566 c 0
 321 566 286 598 286 640 c 0
56 640 m 0
 56 682 90 714 134 714 c 0
 178 714 212 682 212 640 c 0
 212 598 178 566 134 566 c 0
 90 566 56 598 56 640 c 0
EndSplineSet
EndChar

StartChar: copyright
Encoding: 169 169 103
Width: 800
VWidth: 0
Flags: HMW
LayerCount: 2
Fore
SplineSet
274 350 m 0
 274 266 333 214 409 214 c 0
 468 214 509 240 537 272 c 1
 537 174 l 1
 503 146 466 131 405 131 c 0
 275 131 180 221 180 350 c 0
 180 479 275 569 405 569 c 0
 466 569 503 554 537 526 c 1
 537 428 l 1
 509 460 468 486 409 486 c 0
 333 486 274 434 274 350 c 0
95 350 m 0
 95 172 227 40 400 40 c 0
 573 40 705 172 705 350 c 0
 705 528 573 660 400 660 c 0
 227 660 95 528 95 350 c 0
40 350 m 0
 40 559 196 710 400 710 c 0
 604 710 760 559 760 350 c 0
 760 141 604 -10 400 -10 c 0
 196 -10 40 141 40 350 c 0
EndSplineSet
EndChar

StartChar: registered
Encoding: 174 174 104
Width: 800
VWidth: 0
Flags: HMW
LayerCount: 2
Fore
SplineSet
368 336 m 1
 451 336 l 1
 579 150 l 1
 477 150 l 1
 368 336 l 1
260 570 m 1
 346 570 l 1
 346 150 l 1
 260 150 l 1
 260 570 l 1
312 496 m 1
 312 570 l 1
 402 570 l 2
 501 570 558 515 558 440 c 0
 558 360 501 307 402 307 c 2
 312 307 l 1
 312 375 l 1
 396 375 l 2
 441 375 470 396 470 436 c 0
 470 476 441 496 396 496 c 2
 312 496 l 1
95 350 m 0
 95 172 227 40 400 40 c 0
 573 40 705 172 705 350 c 0
 705 528 573 660 400 660 c 0
 227 660 95 528 95 350 c 0
40 350 m 0
 40 559 196 710 400 710 c 0
 604 710 760 559 760 350 c 0
 760 141 604 -10 400 -10 c 0
 196 -10 40 141 40 350 c 0
EndSplineSet
EndChar

StartChar: ordfeminine
Encoding: 170 170 105
Width: 260
VWidth: 0
Flags: HMW
LayerCount: 2
Fore
SplineSet
84 530 m 0
 84 512 96 501 122 501 c 0
 150 501 178 513 178 552 c 1
 186 525 l 1
 186 481 148 455 100 455 c 0
 54 455 18 482 18 529 c 0
 18 575 64 606 118 606 c 0
 156 606 185 590 194 580 c 1
 194 548 l 1
 176 562 157 568 130 568 c 0
 102 568 84 551 84 530 c 0
63 632 m 1
 39 678 l 1
 63 690 98 705 140 705 c 0
 199 705 240 679 240 632 c 2
 240 460 l 1
 178 460 l 1
 178 618 l 2
 178 639 161 652 136 652 c 0
 103 652 74 640 63 632 c 1
EndSplineSet
EndChar

StartChar: ordmasculine
Encoding: 186 186 106
Width: 278
VWidth: 0
Flags: HMW
LayerCount: 2
Fore
SplineSet
20 580 m 0
 20 652 72 700 146 700 c 0
 220 700 275 652 275 580 c 0
 275 508 220 460 146 460 c 0
 72 460 20 508 20 580 c 0
85 580 m 0
 85 540 112 516 146 516 c 0
 180 516 208 540 208 580 c 0
 208 620 180 645 146 645 c 0
 112 645 85 620 85 580 c 0
EndSplineSet
EndChar

StartChar: guillemotleft
Encoding: 171 171 107
Width: 531
VWidth: 0
Flags: HMW
LayerCount: 2
Fore
SplineSet
334 259 m 1
 484 65 l 1
 404 6 l 1
 222 255 l 1
 404 504 l 1
 484 445 l 1
 334 259 l 1
144 259 m 1
 294 65 l 1
 212 6 l 1
 32 255 l 1
 212 504 l 1
 294 445 l 1
 144 259 l 1
EndSplineSet
EndChar

StartChar: guillemotright
Encoding: 187 187 108
Width: 531
VWidth: 0
Flags: HMW
LayerCount: 2
Fore
SplineSet
198 251 m 1
 48 445 l 1
 128 504 l 1
 310 255 l 1
 128 6 l 1
 48 65 l 1
 198 251 l 1
389 251 m 1
 238 445 l 1
 319 504 l 1
 501 255 l 1
 319 6 l 1
 238 65 l 1
 389 251 l 1
EndSplineSet
EndChar

StartChar: uni00AD
Encoding: 173 173 109
Width: 210
VWidth: 0
Flags: HMW
LayerCount: 2
Fore
SplineSet
5 200 m 1
 5 275 l 1
 205 275 l 1
 205 200 l 1
 5 200 l 1
EndSplineSet
EndChar

StartChar: logicalnot
Encoding: 172 172 110
Width: 641
VWidth: 0
Flags: HMW
LayerCount: 2
Fore
SplineSet
65 280 m 1
 65 394 l 1
 576 394 l 1
 576 175 l 1
 480 175 l 1
 480 280 l 1
 65 280 l 1
EndSplineSet
EndChar

StartChar: macron
Encoding: 175 175 111
Width: 524
VWidth: 0
Flags: HMW
LayerCount: 2
Fore
SplineSet
80 580 m 1
 80 694 l 1
 446 694 l 1
 446 580 l 1
 80 580 l 1
EndSplineSet
EndChar

StartChar: degree
Encoding: 176 176 112
Width: 290
VWidth: 0
Flags: HMW
LayerCount: 2
Fore
SplineSet
18 598 m 0
 18 670 72 720 146 720 c 0
 220 720 274 670 274 598 c 0
 274 526 220 476 146 476 c 0
 72 476 18 526 18 598 c 0
82 598 m 0
 82 558 110 532 146 532 c 0
 182 532 209 558 209 598 c 0
 209 638 182 664 146 664 c 0
 110 664 82 638 82 598 c 0
EndSplineSet
EndChar

StartChar: plusminus
Encoding: 177 177 113
Width: 627
VWidth: 0
Flags: HMW
LayerCount: 2
Fore
SplineSet
65 4 m 1
 65 119 l 1
 564 119 l 1
 564 4 l 1
 65 4 l 1
65 336 m 1
 65 456 l 1
 564 456 l 1
 564 336 l 1
 65 336 l 1
248 620 m 1
 381 620 l 1
 381 172 l 1
 248 172 l 1
 248 620 l 1
EndSplineSet
EndChar

StartChar: uni00B2
Encoding: 178 178 114
Width: 389
VWidth: 0
Flags: HMW
LayerCount: 2
Fore
SplineSet
25 282 m 1
 216 482 l 2
 248 516 266 541 266 575 c 0
 266 605 246 635 204 635 c 0
 160 635 132 600 132 550 c 1
 46 550 l 1
 46 639 104 710 207 710 c 0
 307 710 356 639 356 577 c 0
 356 533 331 495 296 463 c 2
 188 362 l 1
 363 362 l 1
 363 282 l 1
 25 282 l 1
EndSplineSet
EndChar

StartChar: uni00B3
Encoding: 179 179 115
Width: 349
VWidth: 0
Flags: HMW
LayerCount: 2
Fore
SplineSet
150 484 m 1
 150 526 l 1
 198 526 230 554 230 588 c 0
 230 618 213 637 178 637 c 0
 144 637 118 614 118 582 c 1
 38 582 l 1
 38 654 94 708 178 708 c 0
 266 708 316 655 316 592 c 0
 316 524 244 484 150 484 c 1
174 271 m 0
 78 271 20 335 20 407 c 1
 106 407 l 1
 106 365 137 343 176 343 c 0
 215 343 242 362 242 402 c 0
 242 442 210 468 150 468 c 1
 150 513 l 1
 252 513 328 478 328 394 c 0
 328 322 268 271 174 271 c 0
EndSplineSet
EndChar

StartChar: acute
Encoding: 180 180 116
Width: 375
VWidth: 0
Flags: HMW
LayerCount: 2
Fore
SplineSet
314 656 m 1
 134 506 l 1
 60 544 l 1
 210 704 l 1
 314 656 l 1
EndSplineSet
EndChar

StartChar: mu
Encoding: 181 181 117
Width: 560
VWidth: 0
Flags: HMW
LayerCount: 2
Fore
SplineSet
199 460 m 1
 199 198 l 2
 199 138 220 104 274 104 c 0
 328 104 366 140 366 198 c 2
 366 460 l 1
 496 460 l 1
 496 0 l 1
 366 0 l 1
 366 56 l 1
 342 20 305 -6 260 -6 c 0
 236 -6 214 -1 190 14 c 1
 190 -320 l 1
 64 -320 l 1
 64 460 l 1
 199 460 l 1
EndSplineSet
EndChar

StartChar: paragraph
Encoding: 182 182 118
Width: 643
VWidth: 0
Flags: HMW
LayerCount: 2
Fore
SplineSet
288 270 m 1
 163 270 60 346 60 485 c 0
 60 624 163 700 288 700 c 2
 584 700 l 1
 584 -220 l 1
 470 -220 l 1
 470 616 l 1
 402 616 l 1
 402 -220 l 1
 288 -220 l 1
 288 270 l 1
EndSplineSet
EndChar

StartChar: periodcentered
Encoding: 183 183 119
Width: 315
VWidth: 0
Flags: HMW
LayerCount: 2
Fore
SplineSet
76 260 m 0
 76 304 110 341 158 341 c 0
 206 341 240 304 240 260 c 0
 240 216 206 178 158 178 c 0
 110 178 76 216 76 260 c 0
EndSplineSet
EndChar

StartChar: uni00B9
Encoding: 185 185 120
Width: 478
VWidth: 0
Flags: HMW
LayerCount: 2
Fore
SplineSet
138 584 m 1
 138 662 l 1
 324 702 l 1
 324 274 l 1
 240 274 l 1
 240 610 l 1
 138 584 l 1
EndSplineSet
EndChar

StartChar: cedilla
Encoding: 184 184 121
Width: 380
VWidth: 0
Flags: HMW
LayerCount: 2
Fore
SplineSet
188 68 m 1
 283 66 l 1
 203 -54 l 1
 211 -52 222 -52 232 -52 c 0
 270 -52 318 -81 318 -142 c 0
 318 -210 253 -246 193 -246 c 0
 143 -246 108 -237 66 -207 c 1
 108 -148 l 1
 131 -166 157 -172 179 -172 c 0
 213 -172 232 -160 232 -136 c 0
 232 -110 207 -102 175 -102 c 0
 165 -102 131 -105 100 -119 c 1
 188 68 l 1
EndSplineSet
EndChar

StartChar: questiondown
Encoding: 191 191 122
Width: 606
VWidth: 0
Flags: HMW
LayerCount: 2
Fore
SplineSet
187 200 m 0
 187 134 234 96 310 96 c 0
 373 96 429 128 464 182 c 1
 555 110 l 1
 491 32 419 -16 300 -16 c 0
 171 -16 56 68 56 200 c 0
 56 320 161 400 269 414 c 1
 275 508 l 1
 378 508 l 1
 398 331 l 1
 368 331 l 2
 248 331 187 258 187 200 c 0
408 646 m 0
 408 606 373 572 325 572 c 0
 277 572 243 606 243 646 c 0
 243 686 277 722 325 722 c 0
 373 722 408 686 408 646 c 0
EndSplineSet
EndChar

StartChar: multiply
Encoding: 215 215 123
Width: 596
VWidth: 0
Flags: HMW
LayerCount: 2
Fore
SplineSet
134 8 m 1
 52 92 l 1
 220 255 l 1
 52 418 l 1
 134 502 l 1
 298 332 l 1
 462 502 l 1
 544 418 l 1
 376 255 l 1
 544 92 l 1
 462 8 l 1
 298 178 l 1
 134 8 l 1
EndSplineSet
EndChar

StartChar: Oslash
Encoding: 216 216 124
Width: 790
VWidth: 0
Flags: HMW
LayerCount: 2
Fore
SplineSet
188 350 m 0
 188 214 277 120 406 120 c 0
 535 120 624 214 624 350 c 0
 624 486 535 580 406 580 c 0
 277 580 188 486 188 350 c 0
36 350 m 0
 36 562 194 714 406 714 c 0
 618 714 776 562 776 350 c 0
 776 138 618 -18 406 -18 c 0
 194 -18 36 138 36 350 c 0
694 754 m 1
 762 706 l 1
 114 -54 l 1
 46 -6 l 1
 694 754 l 1
EndSplineSet
EndChar

StartChar: Thorn
Encoding: 222 222 125
Width: 593
VWidth: 0
Flags: HMW
LayerCount: 2
Fore
SplineSet
80 700 m 1
 209 700 l 1
 209 0 l 1
 80 0 l 1
 80 700 l 1
160 456 m 1
 160 574 l 1
 298 574 l 2
 464 574 560 490 560 352 c 0
 560 214 464 132 298 132 c 2
 160 132 l 1
 160 248 l 1
 298 248 l 2
 379 248 430 280 430 352 c 0
 430 424 379 456 298 456 c 2
 160 456 l 1
EndSplineSet
EndChar

StartChar: divide
Encoding: 247 247 126
Width: 634
VWidth: 0
Flags: HMW
LayerCount: 2
Fore
SplineSet
234 522 m 0
 234 566 268 604 316 604 c 0
 364 604 400 566 400 522 c 0
 400 478 364 441 316 441 c 0
 268 441 234 478 234 522 c 0
234 90 m 0
 234 134 268 171 316 171 c 0
 364 171 400 134 400 90 c 0
 400 46 364 8 316 8 c 0
 268 8 234 46 234 90 c 0
36 249 m 1
 36 368 l 1
 597 368 l 1
 597 249 l 1
 36 249 l 1
EndSplineSet
EndChar

StartChar: oslash
Encoding: 248 248 127
Width: 546
VWidth: 0
Flags: HMW
LayerCount: 2
Fore
SplineSet
33 230 m 0
 33 378 144 470 288 470 c 0
 432 470 544 378 544 230 c 0
 544 82 432 -10 288 -10 c 0
 144 -10 33 82 33 230 c 0
158 230 m 0
 158 148 216 96 288 96 c 0
 360 96 419 148 419 230 c 0
 419 308 360 364 288 364 c 0
 216 364 158 308 158 230 c 0
451 504 m 1
 504 476 l 1
 114 -48 l 1
 61 -20 l 1
 451 504 l 1
EndSplineSet
EndChar

StartChar: circumflex
Encoding: 710 710 128
Width: 480
VWidth: 0
Flags: HMW
LayerCount: 2
Fore
SplineSet
240 634 m 1
 144 546 l 1
 54 608 l 1
 240 748 l 1
 426 608 l 1
 336 546 l 1
 240 634 l 1
EndSplineSet
EndChar

StartChar: ogonek
Encoding: 731 731 129
Width: 260
VWidth: 0
Flags: HMW
LayerCount: 2
Fore
SplineSet
194 -116 m 1
 227 -180 l 1
 212 -200 182 -220 130 -220 c 0
 60 -220 12 -183 12 -120 c 0
 12 -57 78 -11 148 25 c 1
 189 0 l 1
 137 -26 104 -63 104 -96 c 0
 104 -124 118 -136 144 -136 c 0
 166 -136 180 -129 194 -116 c 1
EndSplineSet
EndChar

StartChar: tilde
Encoding: 732 732 130
Width: 530
VWidth: 0
Flags: HMW
LayerCount: 2
Fore
SplineSet
82 634 m 1
 92 683 140 724 198 724 c 0
 264 724 274 674 330 674 c 0
 353 674 372 694 392 726 c 1
 456 661 l 1
 440 624 388 578 330 578 c 0
 275 578 244 630 196 630 c 0
 157 630 149 595 149 580 c 1
 82 634 l 1
EndSplineSet
EndChar

StartChar: ring
Encoding: 730 730 131
Width: 313
VWidth: 0
Flags: HMW
LayerCount: 2
Fore
SplineSet
38 774 m 0
 38 840 92 885 156 885 c 0
 220 885 274 840 274 774 c 0
 274 708 220 664 156 664 c 0
 92 664 38 708 38 774 c 0
108 774 m 0
 108 743 131 725 156 725 c 0
 181 725 204 743 204 774 c 0
 204 805 181 824 156 824 c 0
 131 824 108 805 108 774 c 0
EndSplineSet
EndChar

StartChar: dotaccent
Encoding: 729 729 132
Width: 300
VWidth: 0
Flags: HMW
LayerCount: 2
Fore
SplineSet
72 806 m 0
 72 848 106 880 150 880 c 0
 194 880 228 848 228 806 c 0
 228 764 194 732 150 732 c 0
 106 732 72 764 72 806 c 0
EndSplineSet
EndChar

StartChar: uni2010
Encoding: 8208 8208 133
Width: 218
VWidth: 0
Flags: HMW
LayerCount: 2
Fore
SplineSet
5 180 m 1
 5 294 l 1
 214 294 l 1
 214 180 l 1
 5 180 l 1
EndSplineSet
EndChar

StartChar: endash
Encoding: 8211 8211 134
Width: 770
VWidth: 0
Flags: HMW
LayerCount: 2
Fore
SplineSet
70 180 m 1
 70 294 l 1
 696 294 l 1
 696 180 l 1
 70 180 l 1
EndSplineSet
EndChar

StartChar: figuredash
Encoding: 8210 8210 135
Width: 615
VWidth: 0
Flags: HMW
LayerCount: 2
Fore
SplineSet
70 180 m 1
 70 294 l 1
 540 294 l 1
 540 180 l 1
 70 180 l 1
EndSplineSet
EndChar

StartChar: emdash
Encoding: 8212 8212 136
Width: 925
VWidth: 0
Flags: HMW
LayerCount: 2
Fore
SplineSet
70 180 m 1
 70 294 l 1
 853 294 l 1
 853 180 l 1
 70 180 l 1
EndSplineSet
EndChar

StartChar: minus
Encoding: 8722 8722 137
Width: 592
VWidth: 0
Flags: HMW
LayerCount: 2
Fore
SplineSet
62 180 m 1
 62 294 l 1
 531 294 l 1
 531 180 l 1
 62 180 l 1
EndSplineSet
EndChar

StartChar: quoteright
Encoding: 8217 8217 138
Width: 314
VWidth: 0
Flags: HMW
LayerCount: 2
Fore
SplineSet
106 700 m 1
 244 700 l 1
 142 452 l 1
 50 452 l 1
 106 700 l 1
EndSplineSet
EndChar

StartChar: quoteleft
Encoding: 8216 8216 139
Width: 314
VWidth: 0
Flags: HMW
LayerCount: 2
Fore
SplineSet
209 452 m 1
 70 452 l 1
 172 700 l 1
 264 700 l 1
 209 452 l 1
EndSplineSet
EndChar

StartChar: quotesinglbase
Encoding: 8218 8218 140
Width: 314
VWidth: 0
Flags: HMW
LayerCount: 2
Fore
SplineSet
116 80 m 1
 254 80 l 1
 152 -168 l 1
 60 -168 l 1
 116 80 l 1
EndSplineSet
EndChar

StartChar: quotedblleft
Encoding: 8220 8220 141
Width: 535
VWidth: 0
Flags: HMW
LayerCount: 2
Fore
SplineSet
209 452 m 1
 70 452 l 1
 172 700 l 1
 264 700 l 1
 209 452 l 1
431 452 m 1
 292 452 l 1
 394 700 l 1
 486 700 l 1
 431 452 l 1
EndSplineSet
EndChar

StartChar: quotedblright
Encoding: 8221 8221 142
Width: 535
VWidth: 0
Flags: HMW
LayerCount: 2
Fore
SplineSet
106 700 m 1
 244 700 l 1
 142 452 l 1
 50 452 l 1
 106 700 l 1
328 700 m 1
 466 700 l 1
 364 452 l 1
 272 452 l 1
 328 700 l 1
EndSplineSet
EndChar

StartChar: perthousand
Encoding: 8240 8240 143
Width: 1301
VWidth: 0
Flags: HMW
LayerCount: 2
Fore
SplineSet
916 161 m 0
 916 259 992 338 1096 338 c 0
 1200 338 1275 259 1275 161 c 0
 1275 63 1200 -16 1096 -16 c 0
 992 -16 916 63 916 161 c 0
1024 161 m 0
 1024 121 1053 86 1096 86 c 0
 1139 86 1167 121 1167 161 c 0
 1167 201 1139 236 1096 236 c 0
 1053 236 1024 201 1024 161 c 0
26 539 m 0
 26 637 102 716 206 716 c 0
 310 716 386 637 386 539 c 0
 386 441 310 362 206 362 c 0
 102 362 26 441 26 539 c 0
134 539 m 0
 134 499 163 464 206 464 c 0
 249 464 277 499 277 539 c 0
 277 579 249 614 206 614 c 0
 163 614 134 579 134 539 c 0
484 161 m 0
 484 259 559 338 663 338 c 0
 767 338 842 259 842 161 c 0
 842 63 767 -16 663 -16 c 0
 559 -16 484 63 484 161 c 0
592 161 m 0
 592 121 620 86 663 86 c 0
 706 86 734 121 734 161 c 0
 734 201 706 236 663 236 c 0
 620 236 592 201 592 161 c 0
624 700 m 1
 756 700 l 1
 244 0 l 1
 113 0 l 1
 624 700 l 1
EndSplineSet
EndChar

StartChar: guilsinglleft
Encoding: 8249 8249 144
Width: 350
VWidth: 0
Flags: HMW
LayerCount: 2
Fore
SplineSet
144 259 m 1
 294 65 l 1
 212 6 l 1
 32 255 l 1
 212 504 l 1
 294 445 l 1
 144 259 l 1
EndSplineSet
EndChar

StartChar: guilsinglright
Encoding: 8250 8250 145
Width: 350
VWidth: 0
Flags: HMW
LayerCount: 2
Fore
SplineSet
206 251 m 1
 56 445 l 1
 138 504 l 1
 318 255 l 1
 138 6 l 1
 56 65 l 1
 206 251 l 1
EndSplineSet
EndChar

StartChar: uni2031
Encoding: 8241 8241 146
Width: 1733
VWidth: 0
Flags: HMW
LayerCount: 2
Fore
SplineSet
1348 161 m 0
 1348 259 1424 338 1528 338 c 0
 1632 338 1708 259 1708 161 c 0
 1708 63 1632 -16 1528 -16 c 0
 1424 -16 1348 63 1348 161 c 0
1457 161 m 0
 1457 121 1485 86 1528 86 c 0
 1571 86 1599 121 1599 161 c 0
 1599 201 1571 236 1528 236 c 0
 1485 236 1457 201 1457 161 c 0
916 161 m 0
 916 259 992 338 1096 338 c 0
 1200 338 1275 259 1275 161 c 0
 1275 63 1200 -16 1096 -16 c 0
 992 -16 916 63 916 161 c 0
1024 161 m 0
 1024 121 1053 86 1096 86 c 0
 1139 86 1167 121 1167 161 c 0
 1167 201 1139 236 1096 236 c 0
 1053 236 1024 201 1024 161 c 0
26 539 m 0
 26 637 102 716 206 716 c 0
 310 716 386 637 386 539 c 0
 386 441 310 362 206 362 c 0
 102 362 26 441 26 539 c 0
134 539 m 0
 134 499 163 464 206 464 c 0
 249 464 277 499 277 539 c 0
 277 579 249 614 206 614 c 0
 163 614 134 579 134 539 c 0
484 161 m 0
 484 259 559 338 663 338 c 0
 767 338 842 259 842 161 c 0
 842 63 767 -16 663 -16 c 0
 559 -16 484 63 484 161 c 0
592 161 m 0
 592 121 620 86 663 86 c 0
 706 86 734 121 734 161 c 0
 734 201 706 236 663 236 c 0
 620 236 592 201 592 161 c 0
624 700 m 1
 756 700 l 1
 244 0 l 1
 113 0 l 1
 624 700 l 1
EndSplineSet
EndChar

StartChar: uni203D
Encoding: 8253 8253 147
Width: 606
VWidth: 0
Flags: HMW
LayerCount: 2
Fore
SplineSet
428 486 m 0
 428 564 374 604 290 604 c 0
 227 604 173 576 142 518 c 1
 52 590 l 1
 98 660 182 716 305 716 c 0
 434 716 550 632 550 500 c 0
 550 360 403 282 288 282 c 1
 260 347 l 1
 354 347 428 410 428 486 c 0
211 506 m 1
 342 506 l 1
 317 192 l 1
 236 192 l 1
 211 506 l 1
197 56 m 0
 197 100 233 132 281 132 c 0
 329 132 364 100 364 56 c 0
 364 12 329 -22 281 -22 c 0
 233 -22 197 12 197 56 c 0
EndSplineSet
EndChar

StartChar: Euro
Encoding: 8364 8364 148
Width: 632
VWidth: 0
Flags: HMW
LayerCount: 2
Fore
SplineSet
42 389 m 1
 42 462 l 1
 536 462 l 1
 536 389 l 1
 42 389 l 1
32 261 m 1
 32 334 l 1
 515 334 l 1
 515 261 l 1
 32 261 l 1
221 350 m 0
 221 196 295 105 401 105 c 0
 458 105 510 127 551 167 c 1
 551 24 l 1
 506 -2 455 -16 401 -16 c 0
 213 -16 92 141 92 350 c 0
 92 559 213 717 401 717 c 0
 455 717 506 702 551 676 c 1
 551 533 l 1
 510 573 458 595 401 595 c 0
 295 595 221 504 221 350 c 0
EndSplineSet
EndChar

StartChar: fraction
Encoding: 8260 8260 149
Width: 722
VWidth: 0
Flags: HMW
LayerCount: 2
Fore
SplineSet
580 700 m 1
 684 700 l 1
 164 0 l 1
 60 0 l 1
 580 700 l 1
EndSplineSet
EndChar

StartChar: onequarter
Encoding: 188 188 150
Width: 801
VWidth: 0
Flags: HMW
LayerCount: 2
Fore
SplineSet
626 700 m 1
 714 700 l 1
 194 0 l 1
 106 0 l 1
 626 700 l 1
26 584 m 1
 26 662 l 1
 210 702 l 1
 210 274 l 1
 126 274 l 1
 126 610 l 1
 26 584 l 1
404 78 m 1
 475 142 l 1
 660 142 l 0
 670 152 l 0
 770 152 l 1
 770 78 l 1
 404 78 l 1
492 98 m 1
 404 78 l 1
 645 420 l 1
 704 420 l 1
 704 0 l 1
 615 0 l 1
 615 100 l 0
 622 106 l 0
 622 283 l 1
 492 98 l 1
EndSplineSet
EndChar

StartChar: onehalf
Encoding: 189 189 151
Width: 871
VWidth: 0
Flags: HMW
LayerCount: 2
Fore
SplineSet
626 700 m 1
 714 700 l 1
 194 0 l 1
 106 0 l 1
 626 700 l 1
26 584 m 1
 26 662 l 1
 210 702 l 1
 210 274 l 1
 126 274 l 1
 126 610 l 1
 26 584 l 1
502 2 m 1
 692 202 l 2
 724 236 744 261 744 295 c 0
 744 325 724 355 682 355 c 0
 638 355 608 320 608 270 c 1
 524 270 l 1
 524 359 581 430 684 430 c 0
 784 430 832 359 832 297 c 0
 832 253 808 215 773 183 c 2
 665 82 l 1
 840 82 l 1
 840 2 l 1
 502 2 l 1
EndSplineSet
EndChar

StartChar: threequarters
Encoding: 190 190 152
Width: 861
VWidth: 0
Flags: HMW
LayerCount: 2
Fore
SplineSet
692 700 m 1
 778 700 l 1
 258 0 l 1
 172 0 l 1
 692 700 l 1
157 484 m 1
 157 526 l 1
 205 526 238 554 238 588 c 0
 238 618 219 637 184 637 c 0
 150 637 126 614 126 582 c 1
 45 582 l 1
 45 654 101 708 185 708 c 0
 273 708 323 655 323 592 c 0
 323 524 251 484 157 484 c 1
181 271 m 0
 85 271 27 335 27 407 c 1
 113 407 l 1
 113 365 145 343 184 343 c 0
 223 343 250 362 250 402 c 0
 250 442 217 468 157 468 c 1
 157 513 l 1
 259 513 335 478 335 394 c 0
 335 322 275 271 181 271 c 0
464 78 m 1
 536 142 l 1
 720 142 l 0
 730 152 l 0
 830 152 l 1
 830 78 l 1
 464 78 l 1
552 98 m 1
 464 78 l 1
 706 420 l 1
 764 420 l 1
 764 0 l 1
 676 0 l 1
 676 100 l 0
 684 106 l 0
 684 283 l 1
 552 98 l 1
EndSplineSet
EndChar

StartChar: uni2150
Encoding: 8528 8528 153
Width: 912
VWidth: 0
Flags: HMW
LayerCount: 2
Fore
SplineSet
594 700 m 1
 699 700 l 1
 179 0 l 1
 74 0 l 1
 594 700 l 1
26 584 m 1
 26 662 l 1
 210 702 l 1
 210 274 l 1
 126 274 l 1
 126 610 l 1
 26 584 l 1
560 339 m 1
 560 420 l 1
 888 420 l 1
 685 0 l 1
 593 0 l 1
 760 339 l 1
 560 339 l 1
EndSplineSet
EndChar

StartChar: uni2151
Encoding: 8529 8529 154
Width: 854
VWidth: 0
Flags: HMW
LayerCount: 2
Fore
SplineSet
590 700 m 1
 694 700 l 1
 174 0 l 1
 70 0 l 1
 590 700 l 1
26 584 m 1
 26 662 l 1
 210 702 l 1
 210 274 l 1
 126 274 l 1
 126 610 l 1
 26 584 l 1
748 278 m 0
 748 326 714 356 670 356 c 0
 626 356 592 326 592 278 c 0
 592 230 626 198 670 198 c 0
 714 198 748 230 748 278 c 0
664 4 m 1
 554 4 l 1
 689 162 l 1
 704 166 l 1
 684 144 665 141 636 141 c 0
 572 141 508 196 508 278 c 0
 508 376 580 431 670 431 c 0
 760 431 833 376 833 278 c 0
 833 236 814 200 790 170 c 2
 664 4 l 1
EndSplineSet
EndChar

StartChar: uni2152
Encoding: 8530 8530 155
Width: 1171
VWidth: 0
Flags: HMW
LayerCount: 2
Fore
SplineSet
590 700 m 1
 694 700 l 1
 174 0 l 1
 70 0 l 1
 590 700 l 1
26 584 m 1
 26 662 l 1
 210 702 l 1
 210 274 l 1
 126 274 l 1
 126 610 l 1
 26 584 l 1
532 310 m 1
 532 389 l 1
 716 428 l 1
 716 1 l 1
 633 1 l 1
 633 338 l 1
 532 310 l 1
885 210 m 0
 885 126 918 68 970 68 c 0
 1022 68 1056 126 1056 210 c 0
 1056 294 1022 352 970 352 c 0
 918 352 885 294 885 210 c 0
802 210 m 0
 802 342 870 428 970 428 c 0
 1072 428 1140 342 1140 210 c 0
 1140 78 1072 -8 970 -8 c 0
 870 -8 802 78 802 210 c 0
EndSplineSet
EndChar

StartChar: onethird
Encoding: 8531 8531 156
Width: 837
VWidth: 0
Flags: HMW
LayerCount: 2
Fore
SplineSet
590 700 m 1
 694 700 l 1
 174 0 l 1
 70 0 l 1
 590 700 l 1
26 584 m 1
 26 662 l 1
 210 702 l 1
 210 274 l 1
 126 274 l 1
 126 610 l 1
 26 584 l 1
635 204 m 1
 635 246 l 1
 683 246 714 274 714 308 c 0
 714 338 697 357 662 357 c 0
 628 357 603 334 603 302 c 1
 522 302 l 1
 522 374 578 428 662 428 c 0
 750 428 800 375 800 312 c 0
 800 244 729 204 635 204 c 1
658 -9 m 0
 562 -9 504 55 504 127 c 1
 590 127 l 1
 590 85 621 63 660 63 c 0
 699 63 726 82 726 122 c 0
 726 162 695 188 635 188 c 1
 635 233 l 1
 737 233 812 198 812 114 c 0
 812 42 752 -9 658 -9 c 0
EndSplineSet
EndChar

StartChar: twothirds
Encoding: 8532 8532 157
Width: 969
VWidth: 0
Flags: HMW
LayerCount: 2
Fore
SplineSet
730 700 m 1
 834 700 l 1
 314 0 l 1
 210 0 l 1
 730 700 l 1
30 282 m 1
 220 482 l 2
 252 516 272 541 272 575 c 0
 272 605 252 635 210 635 c 0
 166 635 136 600 136 550 c 1
 51 550 l 1
 51 639 109 710 212 710 c 0
 312 710 360 639 360 577 c 0
 360 533 337 495 302 463 c 2
 193 362 l 1
 368 362 l 1
 368 282 l 1
 30 282 l 1
766 204 m 1
 766 246 l 1
 814 246 846 274 846 308 c 0
 846 338 829 357 794 357 c 0
 760 357 734 334 734 302 c 1
 654 302 l 1
 654 374 710 428 794 428 c 0
 882 428 932 375 932 312 c 0
 932 244 860 204 766 204 c 1
790 -9 m 0
 694 -9 636 55 636 127 c 1
 722 127 l 1
 722 85 753 63 792 63 c 0
 831 63 858 82 858 122 c 0
 858 162 826 188 766 188 c 1
 766 233 l 1
 868 233 944 198 944 114 c 0
 944 42 884 -9 790 -9 c 0
EndSplineSet
EndChar

StartChar: uni2155
Encoding: 8533 8533 158
Width: 826
VWidth: 0
Flags: HMW
LayerCount: 2
Fore
SplineSet
590 700 m 1
 694 700 l 1
 174 0 l 1
 70 0 l 1
 590 700 l 1
26 584 m 1
 26 662 l 1
 210 702 l 1
 210 274 l 1
 126 274 l 1
 126 610 l 1
 26 584 l 1
802 133 m 0
 802 35 720 -10 639 -10 c 0
 562 -10 513 21 477 55 c 1
 518 124 l 1
 548 94 588 70 624 70 c 0
 678 70 708 96 708 142 c 0
 708 188 669 211 624 211 c 0
 590 211 552 204 509 180 c 1
 568 228 l 1
 599 261 635 272 675 272 c 0
 743 272 802 219 802 133 c 0
630 343 m 1
 596 232 l 1
 509 180 l 1
 566 418 l 1
 796 418 l 1
 796 343 l 1
 630 343 l 1
EndSplineSet
EndChar

StartChar: uni2156
Encoding: 8534 8534 159
Width: 964
VWidth: 0
Flags: HMW
LayerCount: 2
Fore
SplineSet
730 700 m 1
 834 700 l 1
 314 0 l 1
 210 0 l 1
 730 700 l 1
30 282 m 1
 220 482 l 2
 252 516 272 541 272 575 c 0
 272 605 252 635 210 635 c 0
 166 635 136 600 136 550 c 1
 51 550 l 1
 51 639 109 710 212 710 c 0
 312 710 360 639 360 577 c 0
 360 533 337 495 302 463 c 2
 193 362 l 1
 368 362 l 1
 368 282 l 1
 30 282 l 1
934 133 m 0
 934 35 851 -10 770 -10 c 0
 693 -10 644 21 608 55 c 1
 649 124 l 1
 679 94 719 70 755 70 c 0
 809 70 840 96 840 142 c 0
 840 188 800 211 755 211 c 0
 721 211 683 204 640 180 c 1
 699 228 l 1
 730 261 766 272 806 272 c 0
 874 272 934 219 934 133 c 0
762 343 m 1
 728 232 l 1
 640 180 l 1
 698 418 l 1
 927 418 l 1
 927 343 l 1
 762 343 l 1
EndSplineSet
EndChar

StartChar: uni2157
Encoding: 8535 8535 160
Width: 901
VWidth: 0
Flags: HMW
LayerCount: 2
Fore
SplineSet
668 700 m 1
 772 700 l 1
 252 0 l 1
 148 0 l 1
 668 700 l 1
155 484 m 1
 155 526 l 1
 203 526 235 554 235 588 c 0
 235 618 217 637 182 637 c 0
 148 637 123 614 123 582 c 1
 42 582 l 1
 42 654 99 708 183 708 c 0
 271 708 321 655 321 592 c 0
 321 524 249 484 155 484 c 1
178 271 m 0
 82 271 24 335 24 407 c 1
 110 407 l 1
 110 365 142 343 181 343 c 0
 220 343 247 362 247 402 c 0
 247 442 215 468 155 468 c 1
 155 513 l 1
 257 513 333 478 333 394 c 0
 333 322 272 271 178 271 c 0
867 133 m 0
 867 35 785 -10 704 -10 c 0
 627 -10 578 21 542 55 c 1
 582 124 l 1
 612 94 652 70 688 70 c 0
 742 70 774 96 774 142 c 0
 774 188 733 211 688 211 c 0
 654 211 617 204 574 180 c 1
 632 228 l 1
 663 261 700 272 740 272 c 0
 808 272 867 219 867 133 c 0
695 343 m 1
 662 232 l 1
 574 180 l 1
 632 418 l 1
 861 418 l 1
 861 343 l 1
 695 343 l 1
EndSplineSet
EndChar

StartChar: uni2158
Encoding: 8536 8536 161
Width: 971
VWidth: 0
Flags: HMW
LayerCount: 2
Fore
SplineSet
721 700 m 1
 825 700 l 1
 305 -0 l 1
 201 -0 l 1
 721 700 l 1
24 358 m 1
 95 422 l 1
 280 422 l 0
 290 432 l 0
 390 432 l 1
 390 358 l 1
 24 358 l 1
112 378 m 1
 24 358 l 1
 265 700 l 1
 324 700 l 1
 324 280 l 1
 235 280 l 1
 235 380 l 0
 243 386 l 0
 243 563 l 1
 112 378 l 1
942 133 m 0
 942 35 859 -10 778 -10 c 0
 701 -10 652 21 616 55 c 1
 657 122 l 1
 687 92 727 70 763 70 c 0
 817 70 848 95 848 141 c 0
 848 187 808 210 763 210 c 0
 729 210 691 204 648 180 c 1
 707 228 l 1
 738 261 774 272 814 272 c 0
 882 272 942 219 942 133 c 0
770 342 m 1
 736 232 l 1
 648 180 l 1
 706 418 l 1
 935 418 l 1
 935 342 l 1
 770 342 l 1
EndSplineSet
EndChar

StartChar: uni2159
Encoding: 8537 8537 162
Width: 829
VWidth: 0
Flags: HMW
LayerCount: 2
Fore
SplineSet
603 700 m 1
 707 700 l 1
 187 0 l 1
 83 0 l 1
 603 700 l 1
26 584 m 1
 26 662 l 1
 210 702 l 1
 210 274 l 1
 126 274 l 1
 126 610 l 1
 26 584 l 1
564 142 m 0
 564 94 597 64 641 64 c 0
 685 64 718 94 718 142 c 0
 718 190 685 222 641 222 c 0
 597 222 564 190 564 142 c 0
648 416 m 1
 757 416 l 1
 622 258 l 1
 608 254 l 1
 628 276 647 279 676 279 c 0
 740 279 804 224 804 142 c 0
 804 44 731 -11 641 -11 c 0
 551 -11 478 44 478 142 c 0
 478 184 496 220 520 250 c 2
 648 416 l 1
EndSplineSet
EndChar

StartChar: uni215A
Encoding: 8538 8538 163
Width: 908
VWidth: 0
Flags: HMW
LayerCount: 2
Fore
SplineSet
694 700 m 1
 799 700 l 1
 279 0 l 1
 174 0 l 1
 694 700 l 1
354 413 m 0
 354 315 273 270 192 270 c 0
 115 270 66 301 30 335 c 1
 70 404 l 1
 100 374 140 350 176 350 c 0
 230 350 262 376 262 422 c 0
 262 468 221 491 176 491 c 0
 142 491 105 484 62 460 c 1
 120 508 l 1
 151 541 188 552 228 552 c 0
 296 552 354 499 354 413 c 0
183 623 m 1
 150 512 l 1
 62 460 l 1
 120 698 l 1
 349 698 l 1
 349 623 l 1
 183 623 l 1
641 142 m 0
 641 94 675 64 719 64 c 0
 763 64 796 94 796 142 c 0
 796 190 763 222 719 222 c 0
 675 222 641 190 641 142 c 0
726 416 m 1
 836 416 l 1
 701 258 l 1
 686 254 l 1
 706 276 725 279 754 279 c 0
 818 279 882 224 882 142 c 0
 882 44 809 -11 719 -11 c 0
 629 -11 556 44 556 142 c 0
 556 184 575 220 599 250 c 2
 726 416 l 1
EndSplineSet
EndChar

StartChar: oneeighth
Encoding: 8539 8539 164
Width: 851
VWidth: 0
Flags: HMW
LayerCount: 2
Fore
SplineSet
603 700 m 1
 707 700 l 1
 187 0 l 1
 83 0 l 1
 603 700 l 1
26 584 m 1
 26 662 l 1
 210 702 l 1
 210 274 l 1
 126 274 l 1
 126 610 l 1
 26 584 l 1
538 319 m 0
 538 385 598 429 672 429 c 0
 746 429 806 385 806 319 c 0
 806 247 741 208 672 208 c 0
 603 208 538 247 538 319 c 0
620 310 m 0
 620 278 642 256 672 256 c 0
 702 256 725 278 725 310 c 0
 725 342 704 364 672 364 c 0
 640 364 620 342 620 310 c 0
522 114 m 0
 522 198 603 237 672 237 c 0
 741 237 822 198 822 114 c 0
 822 42 752 -9 672 -9 c 0
 592 -9 522 42 522 114 c 0
608 126 m 0
 608 84 638 63 672 63 c 0
 706 63 736 84 736 126 c 0
 736 162 706 189 672 189 c 0
 638 189 608 162 608 126 c 0
EndSplineSet
EndChar

StartChar: threeeighths
Encoding: 8540 8540 165
Width: 921
VWidth: 0
Flags: HMW
LayerCount: 2
Fore
SplineSet
672 700 m 1
 776 700 l 1
 256 0 l 1
 152 0 l 1
 672 700 l 1
155 484 m 1
 155 526 l 1
 203 526 235 554 235 588 c 0
 235 618 217 637 182 637 c 0
 148 637 123 614 123 582 c 1
 42 582 l 1
 42 654 99 708 183 708 c 0
 271 708 321 655 321 592 c 0
 321 524 249 484 155 484 c 1
178 271 m 0
 82 271 24 335 24 407 c 1
 110 407 l 1
 110 365 142 343 181 343 c 0
 220 343 247 362 247 402 c 0
 247 442 215 468 155 468 c 1
 155 513 l 1
 257 513 333 478 333 394 c 0
 333 322 272 271 178 271 c 0
607 319 m 0
 607 385 668 429 742 429 c 0
 816 429 876 385 876 319 c 0
 876 247 811 208 742 208 c 0
 673 208 607 247 607 319 c 0
689 310 m 0
 689 278 712 256 742 256 c 0
 772 256 794 278 794 310 c 0
 794 342 774 364 742 364 c 0
 710 364 689 342 689 310 c 0
592 114 m 0
 592 198 673 237 742 237 c 0
 811 237 891 198 891 114 c 0
 891 42 822 -9 742 -9 c 0
 662 -9 592 42 592 114 c 0
678 126 m 0
 678 84 708 63 742 63 c 0
 776 63 805 84 805 126 c 0
 805 162 776 189 742 189 c 0
 708 189 678 162 678 126 c 0
EndSplineSet
EndChar

StartChar: fiveeighths
Encoding: 8541 8541 166
Width: 942
VWidth: 0
Flags: HMW
LayerCount: 2
Fore
SplineSet
694 700 m 1
 799 700 l 1
 279 0 l 1
 174 0 l 1
 694 700 l 1
350 413 m 0
 350 315 269 270 188 270 c 0
 111 270 62 301 26 335 c 1
 66 404 l 1
 96 374 136 350 172 350 c 0
 226 350 257 376 257 422 c 0
 257 468 217 491 172 491 c 0
 138 491 101 484 58 460 c 1
 116 508 l 1
 147 541 184 552 224 552 c 0
 292 552 350 499 350 413 c 0
178 623 m 1
 145 512 l 1
 58 460 l 1
 115 698 l 1
 344 698 l 1
 344 623 l 1
 178 623 l 1
629 319 m 0
 629 385 690 429 764 429 c 0
 838 429 898 385 898 319 c 0
 898 247 833 208 764 208 c 0
 695 208 629 247 629 319 c 0
710 310 m 0
 710 278 734 256 764 256 c 0
 794 256 816 278 816 310 c 0
 816 342 796 364 764 364 c 0
 732 364 710 342 710 310 c 0
614 114 m 0
 614 198 695 237 764 237 c 0
 833 237 913 198 913 114 c 0
 913 42 844 -9 764 -9 c 0
 684 -9 614 42 614 114 c 0
700 126 m 0
 700 84 730 63 764 63 c 0
 798 63 827 84 827 126 c 0
 827 162 798 189 764 189 c 0
 730 189 700 162 700 126 c 0
EndSplineSet
EndChar

StartChar: seveneighths
Encoding: 8542 8542 167
Width: 832
VWidth: 0
Flags: HMW
LayerCount: 2
Fore
SplineSet
580 700 m 1
 684 700 l 1
 164 0 l 1
 60 0 l 1
 580 700 l 1
25 619 m 1
 25 700 l 1
 354 700 l 1
 151 280 l 1
 59 280 l 1
 226 619 l 1
 25 619 l 1
519 319 m 0
 519 385 580 429 654 429 c 0
 728 429 788 385 788 319 c 0
 788 247 723 208 654 208 c 0
 585 208 519 247 519 319 c 0
600 310 m 0
 600 278 624 256 654 256 c 0
 684 256 706 278 706 310 c 0
 706 342 686 364 654 364 c 0
 622 364 600 342 600 310 c 0
504 114 m 0
 504 198 585 237 654 237 c 0
 723 237 803 198 803 114 c 0
 803 42 734 -9 654 -9 c 0
 574 -9 504 42 504 114 c 0
590 126 m 0
 590 84 620 63 654 63 c 0
 688 63 717 84 717 126 c 0
 717 162 688 189 654 189 c 0
 620 189 590 162 590 126 c 0
EndSplineSet
EndChar

StartChar: uni2074
Encoding: 8308 8308 168
Width: 414
VWidth: 0
Flags: HMW
LayerCount: 2
Fore
SplineSet
20 358 m 1
 91 422 l 1
 276 422 l 0
 286 432 l 0
 386 432 l 1
 386 358 l 1
 20 358 l 1
108 378 m 1
 20 358 l 1
 261 700 l 1
 320 700 l 1
 320 280 l 1
 231 280 l 1
 231 380 l 0
 238 386 l 0
 238 563 l 1
 108 378 l 1
EndSplineSet
EndChar

StartChar: uni2075
Encoding: 8309 8309 169
Width: 377
VWidth: 0
Flags: HMW
LayerCount: 2
Fore
SplineSet
350 413 m 0
 350 315 269 270 188 270 c 0
 111 270 62 301 26 335 c 1
 66 404 l 1
 96 374 136 350 172 350 c 0
 226 350 257 376 257 422 c 0
 257 468 217 491 172 491 c 0
 138 491 101 484 58 460 c 1
 116 508 l 1
 147 541 184 552 224 552 c 0
 292 552 350 499 350 413 c 0
178 623 m 1
 145 512 l 1
 58 460 l 1
 115 698 l 1
 344 698 l 1
 344 623 l 1
 178 623 l 1
EndSplineSet
EndChar

StartChar: uni2076
Encoding: 8310 8310 170
Width: 371
VWidth: 0
Flags: HMW
LayerCount: 2
Fore
SplineSet
111 422 m 0
 111 374 145 344 189 344 c 0
 233 344 266 374 266 422 c 0
 266 470 233 502 189 502 c 0
 145 502 111 470 111 422 c 0
196 696 m 1
 306 696 l 1
 170 538 l 1
 156 534 l 1
 176 556 194 559 223 559 c 0
 287 559 352 504 352 422 c 0
 352 324 279 269 189 269 c 0
 99 269 26 324 26 422 c 0
 26 464 44 500 68 530 c 2
 196 696 l 1
EndSplineSet
EndChar

StartChar: uni2077
Encoding: 8311 8311 171
Width: 371
VWidth: 0
Flags: HMW
LayerCount: 2
Fore
SplineSet
25 619 m 1
 25 700 l 1
 354 700 l 1
 151 280 l 1
 59 280 l 1
 226 619 l 1
 25 619 l 1
EndSplineSet
EndChar

StartChar: uni2078
Encoding: 8312 8312 172
Width: 350
VWidth: 0
Flags: HMW
LayerCount: 2
Fore
SplineSet
40 599 m 0
 40 665 100 709 174 709 c 0
 248 709 308 665 308 599 c 0
 308 527 243 488 174 488 c 0
 105 488 40 527 40 599 c 0
122 590 m 0
 122 558 144 536 174 536 c 0
 204 536 226 558 226 590 c 0
 226 622 206 644 174 644 c 0
 142 644 122 622 122 590 c 0
24 394 m 0
 24 478 105 517 174 517 c 0
 243 517 324 478 324 394 c 0
 324 322 254 271 174 271 c 0
 94 271 24 322 24 394 c 0
110 406 m 0
 110 364 140 343 174 343 c 0
 208 343 238 364 238 406 c 0
 238 442 208 469 174 469 c 0
 140 469 110 442 110 406 c 0
EndSplineSet
EndChar

StartChar: uni2079
Encoding: 8313 8313 173
Width: 369
VWidth: 0
Flags: HMW
LayerCount: 2
Fore
SplineSet
269 558 m 0
 269 606 236 636 192 636 c 0
 148 636 114 606 114 558 c 0
 114 510 148 478 192 478 c 0
 236 478 269 510 269 558 c 0
185 284 m 1
 74 284 l 1
 210 442 l 1
 225 446 l 1
 205 424 186 421 157 421 c 0
 93 421 28 476 28 558 c 0
 28 656 102 711 192 711 c 0
 282 711 354 656 354 558 c 0
 354 516 336 480 312 450 c 2
 185 284 l 1
EndSplineSet
EndChar

StartChar: uni2070
Encoding: 8304 8304 174
Width: 384
VWidth: 0
Flags: HMW
LayerCount: 2
Fore
SplineSet
107 490 m 0
 107 406 140 348 192 348 c 0
 244 348 278 406 278 490 c 0
 278 574 244 632 192 632 c 0
 140 632 107 574 107 490 c 0
24 490 m 0
 24 622 92 708 192 708 c 0
 294 708 362 622 362 490 c 0
 362 358 294 272 192 272 c 0
 92 272 24 358 24 490 c 0
EndSplineSet
EndChar

StartChar: uni2080
Encoding: 8320 8320 175
Width: 384
VWidth: 0
Flags: HMW
LayerCount: 2
Fore
SplineSet
107 210 m 0
 107 126 140 68 192 68 c 0
 244 68 278 126 278 210 c 0
 278 294 244 352 192 352 c 0
 140 352 107 294 107 210 c 0
24 210 m 0
 24 342 92 428 192 428 c 0
 294 428 362 342 362 210 c 0
 362 78 294 -8 192 -8 c 0
 92 -8 24 78 24 210 c 0
EndSplineSet
EndChar

StartChar: uni2084
Encoding: 8324 8324 176
Width: 417
VWidth: 0
Flags: HMW
LayerCount: 2
Fore
SplineSet
19 78 m 1
 90 142 l 1
 274 142 l 0
 284 152 l 0
 385 152 l 1
 385 78 l 1
 19 78 l 1
107 98 m 1
 19 78 l 1
 260 420 l 1
 319 420 l 1
 319 0 l 1
 230 0 l 1
 230 100 l 0
 238 106 l 0
 238 283 l 1
 107 98 l 1
EndSplineSet
EndChar

StartChar: uni2085
Encoding: 8325 8325 177
Width: 384
VWidth: 0
Flags: HMW
LayerCount: 2
Fore
SplineSet
352 133 m 0
 352 35 271 -10 190 -10 c 0
 113 -10 64 21 28 55 c 1
 68 124 l 1
 98 94 138 70 174 70 c 0
 228 70 260 96 260 142 c 0
 260 188 219 211 174 211 c 0
 140 211 103 204 60 180 c 1
 118 228 l 1
 149 261 186 272 226 272 c 0
 294 272 352 219 352 133 c 0
180 343 m 1
 147 232 l 1
 60 180 l 1
 117 418 l 1
 346 418 l 1
 346 343 l 1
 180 343 l 1
EndSplineSet
EndChar

StartChar: uni2086
Encoding: 8326 8326 178
Width: 379
VWidth: 0
Flags: HMW
LayerCount: 2
Fore
SplineSet
114 142 m 0
 114 94 148 64 192 64 c 0
 236 64 268 94 268 142 c 0
 268 190 236 222 192 222 c 0
 148 222 114 190 114 142 c 0
198 416 m 1
 307 416 l 1
 172 258 l 1
 158 254 l 1
 178 276 197 279 226 279 c 0
 290 279 354 224 354 142 c 0
 354 44 282 -11 192 -11 c 0
 102 -11 28 44 28 142 c 0
 28 184 46 220 70 250 c 2
 198 416 l 1
EndSplineSet
EndChar

StartChar: uni2087
Encoding: 8327 8327 179
Width: 375
VWidth: 0
Flags: HMW
LayerCount: 2
Fore
SplineSet
28 339 m 1
 28 420 l 1
 356 420 l 1
 154 0 l 1
 62 0 l 1
 228 339 l 1
 28 339 l 1
EndSplineSet
EndChar

StartChar: uni2088
Encoding: 8328 8328 180
Width: 354
VWidth: 0
Flags: HMW
LayerCount: 2
Fore
SplineSet
43 319 m 0
 43 385 103 429 177 429 c 0
 251 429 312 385 312 319 c 0
 312 247 246 208 177 208 c 0
 108 208 43 247 43 319 c 0
125 310 m 0
 125 278 147 256 177 256 c 0
 207 256 230 278 230 310 c 0
 230 342 209 364 177 364 c 0
 145 364 125 342 125 310 c 0
28 114 m 0
 28 198 108 237 177 237 c 0
 246 237 326 198 326 114 c 0
 326 42 257 -9 177 -9 c 0
 97 -9 28 42 28 114 c 0
114 126 m 0
 114 84 143 63 177 63 c 0
 211 63 241 84 241 126 c 0
 241 162 211 189 177 189 c 0
 143 189 114 162 114 126 c 0
EndSplineSet
EndChar

StartChar: uni2089
Encoding: 8329 8329 181
Width: 382
VWidth: 0
Flags: HMW
LayerCount: 2
Fore
SplineSet
265 278 m 0
 265 326 232 356 188 356 c 0
 144 356 110 326 110 278 c 0
 110 230 144 198 188 198 c 0
 232 198 265 230 265 278 c 0
181 4 m 1
 71 4 l 1
 206 162 l 1
 222 166 l 1
 202 144 182 141 153 141 c 0
 89 141 25 196 25 278 c 0
 25 376 98 431 188 431 c 0
 278 431 350 376 350 278 c 0
 350 236 332 200 308 170 c 2
 181 4 l 1
EndSplineSet
EndChar

StartChar: uni2081
Encoding: 8321 8321 182
Width: 346
VWidth: 0
Flags: HMW
LayerCount: 2
Fore
SplineSet
90 310 m 1
 90 389 l 1
 274 428 l 1
 274 1 l 1
 190 1 l 1
 190 338 l 1
 90 310 l 1
EndSplineSet
EndChar

StartChar: uni2082
Encoding: 8322 8322 183
Width: 391
VWidth: 0
Flags: HMW
LayerCount: 2
Fore
SplineSet
27 2 m 1
 218 202 l 2
 250 236 269 261 269 295 c 0
 269 325 249 355 207 355 c 0
 163 355 134 320 134 270 c 1
 48 270 l 1
 48 359 106 430 209 430 c 0
 309 430 358 359 358 297 c 0
 358 253 333 215 298 183 c 2
 190 82 l 1
 365 82 l 1
 365 2 l 1
 27 2 l 1
EndSplineSet
EndChar

StartChar: uni2083
Encoding: 8323 8323 184
Width: 354
VWidth: 0
Flags: HMW
LayerCount: 2
Fore
SplineSet
153 204 m 1
 153 246 l 1
 201 246 233 274 233 308 c 0
 233 338 215 357 180 357 c 0
 146 357 122 334 122 302 c 1
 41 302 l 1
 41 374 97 428 181 428 c 0
 269 428 320 375 320 312 c 0
 320 244 247 204 153 204 c 1
176 -9 m 0
 80 -9 23 55 23 127 c 1
 109 127 l 1
 109 85 141 63 180 63 c 0
 219 63 245 82 245 122 c 0
 245 162 213 188 153 188 c 1
 153 233 l 1
 255 233 332 198 332 114 c 0
 332 42 270 -9 176 -9 c 0
EndSplineSet
EndChar

StartChar: Agrave
Encoding: 192 192 185
Width: 712
VWidth: 0
Flags: HMW
LayerCount: 2
Fore
SplineSet
173 158 m 1
 190 272 l 1
 526 272 l 1
 543 158 l 1
 173 158 l 1
356 472 m 1
 252 231 l 1
 255 199 l 1
 164 0 l 1
 1 0 l 1
 356 742 l 1
 712 0 l 1
 549 0 l 1
 460 192 l 1
 461 229 l 1
 356 472 l 1
204 952 m 1
 308 1000 l 1
 458 840 l 1
 384 802 l 1
 204 952 l 1
EndSplineSet
EndChar

StartChar: Aacute
Encoding: 193 193 186
Width: 712
VWidth: 0
Flags: HMW
LayerCount: 2
Fore
SplineSet
173 158 m 1
 190 272 l 1
 526 272 l 1
 543 158 l 1
 173 158 l 1
356 472 m 1
 252 231 l 1
 255 199 l 1
 164 0 l 1
 1 0 l 1
 356 742 l 1
 712 0 l 1
 549 0 l 1
 460 192 l 1
 461 229 l 1
 356 472 l 1
506 952 m 1
 326 802 l 1
 252 840 l 1
 402 1000 l 1
 506 952 l 1
EndSplineSet
EndChar

StartChar: Acircumflex
Encoding: 194 194 187
Width: 712
VWidth: 0
Flags: HMW
LayerCount: 2
Fore
SplineSet
173 158 m 1
 190 272 l 1
 526 272 l 1
 543 158 l 1
 173 158 l 1
356 472 m 1
 252 231 l 1
 255 199 l 1
 164 0 l 1
 1 0 l 1
 356 742 l 1
 712 0 l 1
 549 0 l 1
 460 192 l 1
 461 229 l 1
 356 472 l 1
356 868 m 1
 259 779 l 1
 170 841 l 1
 356 981 l 1
 542 841 l 1
 454 779 l 1
 356 868 l 1
EndSplineSet
EndChar

StartChar: Atilde
Encoding: 195 195 188
Width: 712
VWidth: 0
Flags: HMW
LayerCount: 2
Fore
SplineSet
173 158 m 1
 190 272 l 1
 526 272 l 1
 543 158 l 1
 173 158 l 1
356 472 m 1
 252 231 l 1
 255 199 l 1
 164 0 l 1
 1 0 l 1
 356 742 l 1
 712 0 l 1
 549 0 l 1
 460 192 l 1
 461 229 l 1
 356 472 l 1
169 848 m 1
 179 897 226 938 284 938 c 0
 350 938 361 888 417 888 c 0
 440 888 460 907 480 939 c 1
 544 874 l 1
 528 837 476 792 418 792 c 0
 363 792 332 844 284 844 c 0
 245 844 236 808 236 793 c 1
 169 848 l 1
EndSplineSet
EndChar

StartChar: Adieresis
Encoding: 196 196 189
Width: 712
VWidth: 0
Flags: HMW
LayerCount: 2
Fore
SplineSet
173 158 m 1
 190 272 l 1
 526 272 l 1
 543 158 l 1
 173 158 l 1
356 472 m 1
 252 231 l 1
 255 199 l 1
 164 0 l 1
 1 0 l 1
 356 742 l 1
 712 0 l 1
 549 0 l 1
 460 192 l 1
 461 229 l 1
 356 472 l 1
406 836 m 0
 406 878 440 910 484 910 c 0
 528 910 562 878 562 836 c 0
 562 794 528 762 484 762 c 0
 440 762 406 794 406 836 c 0
145 840 m 0
 145 882 180 914 224 914 c 0
 268 914 302 882 302 840 c 0
 302 798 268 766 224 766 c 0
 180 766 145 798 145 840 c 0
EndSplineSet
EndChar

StartChar: Aring
Encoding: 197 197 190
Width: 712
VWidth: 0
Flags: HMW
LayerCount: 2
Fore
SplineSet
173 158 m 1
 190 272 l 1
 526 272 l 1
 543 158 l 1
 173 158 l 1
356 472 m 1
 252 231 l 1
 255 199 l 1
 164 0 l 1
 1 0 l 1
 356 742 l 1
 712 0 l 1
 549 0 l 1
 460 192 l 1
 461 229 l 1
 356 472 l 1
238 800 m 0
 238 866 292 910 356 910 c 0
 420 910 474 866 474 800 c 0
 474 734 420 689 356 689 c 0
 292 689 238 734 238 800 c 0
308 800 m 0
 308 769 331 750 356 750 c 0
 381 750 404 769 404 800 c 0
 404 831 381 849 356 849 c 0
 331 849 308 831 308 800 c 0
EndSplineSet
EndChar

StartChar: AE
Encoding: 198 198 191
Width: 1047
VWidth: 0
Flags: HMW
LayerCount: 2
Fore
SplineSet
254 168 m 1
 258 301 l 1
 558 301 l 1
 558 168 l 1
 254 168 l 1
437 700 m 1
 572 660 l 1
 190 0 l 1
 12 0 l 1
 437 700 l 1
603 0 m 1
 603 122 l 1
 978 122 l 1
 978 0 l 1
 603 0 l 1
611 578 m 1
 437 700 l 1
 978 700 l 1
 978 578 l 1
 611 578 l 1
603 312 m 1
 603 431 l 1
 958 431 l 1
 958 312 l 1
 603 312 l 1
532 700 m 1
 684 700 l 1
 684 0 l 1
 532 0 l 1
 532 700 l 1
EndSplineSet
EndChar

StartChar: Ccedilla
Encoding: 199 199 192
Width: 695
VWidth: 0
Flags: HMW
LayerCount: 2
Fore
SplineSet
192 350 m 0
 192 211 296 124 416 124 c 0
 515 124 583 166 630 220 c 1
 630 58 l 1
 573 12 512 -14 410 -14 c 0
 194 -14 36 134 36 350 c 0
 36 566 194 714 410 714 c 0
 512 714 573 688 630 642 c 1
 630 480 l 1
 583 534 515 576 416 576 c 0
 296 576 192 489 192 350 c 0
364 52 m 1
 460 49 l 1
 380 -70 l 1
 388 -68 398 -68 408 -68 c 0
 446 -68 494 -97 494 -158 c 0
 494 -226 431 -262 371 -262 c 0
 321 -262 284 -254 242 -224 c 1
 285 -164 l 1
 308 -182 335 -188 357 -188 c 0
 391 -188 410 -176 410 -152 c 0
 410 -126 384 -118 352 -118 c 0
 342 -118 308 -122 277 -136 c 1
 364 52 l 1
EndSplineSet
EndChar

StartChar: Egrave
Encoding: 200 200 193
Width: 587
VWidth: 0
Flags: HMW
LayerCount: 2
Fore
SplineSet
168 0 m 1
 168 122 l 1
 522 122 l 1
 522 0 l 1
 168 0 l 1
168 578 m 1
 168 700 l 1
 522 700 l 1
 522 578 l 1
 168 578 l 1
168 312 m 1
 168 431 l 1
 502 431 l 1
 502 312 l 1
 168 312 l 1
76 700 m 1
 216 700 l 1
 216 0 l 1
 76 0 l 1
 76 700 l 1
146 928 m 1
 250 978 l 1
 400 818 l 1
 326 778 l 1
 146 928 l 1
EndSplineSet
EndChar

StartChar: Eacute
Encoding: 201 201 194
Width: 587
VWidth: 0
Flags: HMW
LayerCount: 2
Fore
SplineSet
168 0 m 1
 168 122 l 1
 522 122 l 1
 522 0 l 1
 168 0 l 1
168 578 m 1
 168 700 l 1
 522 700 l 1
 522 578 l 1
 168 578 l 1
168 312 m 1
 168 431 l 1
 502 431 l 1
 502 312 l 1
 168 312 l 1
76 700 m 1
 216 700 l 1
 216 0 l 1
 76 0 l 1
 76 700 l 1
448 928 m 1
 268 778 l 1
 195 818 l 1
 345 978 l 1
 448 928 l 1
EndSplineSet
EndChar

StartChar: Ecircumflex
Encoding: 202 202 195
Width: 587
VWidth: 0
Flags: HMW
LayerCount: 2
Fore
SplineSet
168 0 m 1
 168 122 l 1
 522 122 l 1
 522 0 l 1
 168 0 l 1
168 578 m 1
 168 700 l 1
 522 700 l 1
 522 578 l 1
 168 578 l 1
168 312 m 1
 168 431 l 1
 502 431 l 1
 502 312 l 1
 168 312 l 1
76 700 m 1
 216 700 l 1
 216 0 l 1
 76 0 l 1
 76 700 l 1
304 878 m 1
 194 784 l 1
 144 824 l 1
 304 964 l 1
 464 824 l 1
 414 784 l 1
 304 878 l 1
EndSplineSet
EndChar

StartChar: Edieresis
Encoding: 203 203 196
Width: 587
VWidth: 0
Flags: HMW
LayerCount: 2
Fore
SplineSet
168 0 m 1
 168 122 l 1
 522 122 l 1
 522 0 l 1
 168 0 l 1
168 578 m 1
 168 700 l 1
 522 700 l 1
 522 578 l 1
 168 578 l 1
168 312 m 1
 168 431 l 1
 502 431 l 1
 502 312 l 1
 168 312 l 1
76 700 m 1
 216 700 l 1
 216 0 l 1
 76 0 l 1
 76 700 l 1
342 860 m 0
 342 902 376 934 420 934 c 0
 464 934 498 902 498 860 c 0
 498 818 464 786 420 786 c 0
 376 786 342 818 342 860 c 0
111 860 m 0
 111 902 146 934 190 934 c 0
 234 934 268 902 268 860 c 0
 268 818 234 786 190 786 c 0
 146 786 111 818 111 860 c 0
EndSplineSet
EndChar

StartChar: Igrave
Encoding: 204 204 197
Width: 297
VWidth: 0
Flags: HMW
LayerCount: 2
Fore
SplineSet
76 700 m 1
 222 700 l 1
 222 0 l 1
 76 0 l 1
 76 700 l 1
-8 928 m 1
 96 978 l 1
 246 818 l 1
 172 778 l 1
 -8 928 l 1
EndSplineSet
EndChar

StartChar: Iacute
Encoding: 205 205 198
Width: 297
VWidth: 0
Flags: HMW
LayerCount: 2
Fore
SplineSet
76 700 m 1
 222 700 l 1
 222 0 l 1
 76 0 l 1
 76 700 l 1
294 928 m 1
 114 778 l 1
 42 818 l 1
 192 978 l 1
 294 928 l 1
EndSplineSet
EndChar

StartChar: Icircumflex
Encoding: 206 206 199
Width: 297
VWidth: 0
Flags: HMW
LayerCount: 2
Fore
SplineSet
76 700 m 1
 222 700 l 1
 222 0 l 1
 76 0 l 1
 76 700 l 1
148 863 m 1
 52 774 l 1
 -38 836 l 1
 148 976 l 1
 334 836 l 1
 246 774 l 1
 148 863 l 1
EndSplineSet
EndChar

StartChar: Idieresis
Encoding: 207 207 200
Width: 297
VWidth: 0
Flags: HMW
LayerCount: 2
Fore
SplineSet
76 700 m 1
 222 700 l 1
 222 0 l 1
 76 0 l 1
 76 700 l 1
186 848 m 0
 186 890 220 922 264 922 c 0
 308 922 342 890 342 848 c 0
 342 806 308 774 264 774 c 0
 220 774 186 806 186 848 c 0
-44 848 m 0
 -44 890 -11 922 33 922 c 0
 77 922 112 890 112 848 c 0
 112 806 77 774 33 774 c 0
 -11 774 -44 806 -44 848 c 0
EndSplineSet
EndChar

StartChar: Ntilde
Encoding: 209 209 201
Width: 787
VWidth: 0
Flags: HMW
LayerCount: 2
Fore
SplineSet
573 700 m 1
 712 700 l 1
 712 -35 l 1
 216 432 l 1
 216 0 l 1
 76 0 l 1
 76 735 l 1
 573 268 l 1
 573 700 l 1
184 820 m 1
 194 869 242 912 300 912 c 0
 366 912 376 862 432 862 c 0
 455 862 475 881 495 913 c 1
 558 848 l 1
 542 811 490 766 432 766 c 0
 377 766 346 817 298 817 c 0
 259 817 250 781 250 766 c 1
 184 820 l 1
EndSplineSet
EndChar

StartChar: Eth
Encoding: 208 208 202
Width: 717
VWidth: 0
Flags: HMW
LayerCount: 2
Fore
SplineSet
6 304 m 1
 6 397 l 1
 340 397 l 1
 340 304 l 1
 6 304 l 1
76 700 m 1
 224 700 l 1
 224 0 l 1
 76 0 l 1
 76 700 l 1
314 0 m 2
 168 0 l 1
 168 131 l 1
 310 131 l 2
 433 131 534 196 534 350 c 0
 534 504 433 569 310 569 c 2
 168 569 l 1
 168 700 l 1
 314 700 l 2
 536 700 682 563 682 350 c 0
 682 137 536 0 314 0 c 2
EndSplineSet
EndChar

StartChar: Ograve
Encoding: 210 210 203
Width: 811
VWidth: 0
Flags: HMW
LayerCount: 2
Fore
SplineSet
188 350 m 0
 188 216 277 120 406 120 c 0
 535 120 624 216 624 350 c 0
 624 484 538 580 406 580 c 0
 277 580 188 484 188 350 c 0
36 350 m 0
 36 562 196 714 406 714 c 0
 618 714 776 562 776 350 c 0
 776 138 621 -18 406 -18 c 0
 191 -18 36 138 36 350 c 0
266 928 m 1
 370 978 l 1
 520 818 l 1
 446 778 l 1
 266 928 l 1
EndSplineSet
EndChar

StartChar: Oacute
Encoding: 211 211 204
Width: 811
VWidth: 0
Flags: HMW
LayerCount: 2
Fore
SplineSet
188 350 m 0
 188 216 277 120 406 120 c 0
 535 120 624 216 624 350 c 0
 624 484 538 580 406 580 c 0
 277 580 188 484 188 350 c 0
36 350 m 0
 36 562 196 714 406 714 c 0
 618 714 776 562 776 350 c 0
 776 138 621 -18 406 -18 c 0
 191 -18 36 138 36 350 c 0
556 928 m 1
 376 778 l 1
 304 818 l 1
 454 978 l 1
 556 928 l 1
EndSplineSet
EndChar

StartChar: Ocircumflex
Encoding: 212 212 205
Width: 811
VWidth: 0
Flags: HMW
LayerCount: 2
Fore
SplineSet
188 350 m 0
 188 216 277 120 406 120 c 0
 535 120 624 216 624 350 c 0
 624 484 538 580 406 580 c 0
 277 580 188 484 188 350 c 0
36 350 m 0
 36 562 196 714 406 714 c 0
 618 714 776 562 776 350 c 0
 776 138 621 -18 406 -18 c 0
 191 -18 36 138 36 350 c 0
412 878 m 1
 302 784 l 1
 252 824 l 1
 412 964 l 1
 572 824 l 1
 522 784 l 1
 412 878 l 1
EndSplineSet
EndChar

StartChar: Otilde
Encoding: 213 213 206
Width: 811
VWidth: 0
Flags: HMW
LayerCount: 2
Fore
SplineSet
188 350 m 0
 188 216 277 120 406 120 c 0
 535 120 624 216 624 350 c 0
 624 484 538 580 406 580 c 0
 277 580 188 484 188 350 c 0
36 350 m 0
 36 562 196 714 406 714 c 0
 618 714 776 562 776 350 c 0
 776 138 621 -18 406 -18 c 0
 191 -18 36 138 36 350 c 0
244 832 m 1
 254 881 303 914 348 914 c 0
 413 914 418 866 472 866 c 0
 491 866 508 882 528 914 c 1
 574 872 l 1
 558 835 518 798 468 798 c 0
 413 798 391 846 346 846 c 0
 305 846 296 809 296 794 c 1
 244 832 l 1
EndSplineSet
EndChar

StartChar: Odieresis
Encoding: 214 214 207
Width: 811
VWidth: 0
Flags: HMW
LayerCount: 2
Fore
SplineSet
188 350 m 0
 188 216 277 120 406 120 c 0
 535 120 624 216 624 350 c 0
 624 484 538 580 406 580 c 0
 277 580 188 484 188 350 c 0
36 350 m 0
 36 562 196 714 406 714 c 0
 618 714 776 562 776 350 c 0
 776 138 621 -18 406 -18 c 0
 191 -18 36 138 36 350 c 0
443 848 m 0
 443 890 477 922 521 922 c 0
 565 922 600 890 600 848 c 0
 600 806 565 774 521 774 c 0
 477 774 443 806 443 848 c 0
212 848 m 0
 212 890 247 922 291 922 c 0
 335 922 369 890 369 848 c 0
 369 806 335 774 291 774 c 0
 247 774 212 806 212 848 c 0
EndSplineSet
EndChar

StartChar: Ugrave
Encoding: 217 217 208
Width: 678
VWidth: 0
Flags: HMW
LayerCount: 2
Fore
SplineSet
71 700 m 1
 214 700 l 1
 214 238 l 2
 214 160 257 107 339 107 c 0
 421 107 464 160 464 238 c 2
 464 700 l 1
 608 700 l 1
 608 230 l 2
 608 65 493 -24 339 -24 c 0
 185 -24 71 65 71 230 c 2
 71 700 l 1
187 924 m 1
 291 974 l 1
 441 814 l 1
 367 774 l 1
 187 924 l 1
EndSplineSet
EndChar

StartChar: Uacute
Encoding: 218 218 209
Width: 678
VWidth: 0
Flags: HMW
LayerCount: 2
Fore
SplineSet
71 700 m 1
 214 700 l 1
 214 238 l 2
 214 160 257 107 339 107 c 0
 421 107 464 160 464 238 c 2
 464 700 l 1
 608 700 l 1
 608 230 l 2
 608 65 493 -24 339 -24 c 0
 185 -24 71 65 71 230 c 2
 71 700 l 1
492 924 m 1
 312 774 l 1
 238 814 l 1
 388 974 l 1
 492 924 l 1
EndSplineSet
EndChar

StartChar: Ucircumflex
Encoding: 219 219 210
Width: 678
VWidth: 0
Flags: HMW
LayerCount: 2
Fore
SplineSet
71 700 m 1
 214 700 l 1
 214 238 l 2
 214 160 257 107 339 107 c 0
 421 107 464 160 464 238 c 2
 464 700 l 1
 608 700 l 1
 608 230 l 2
 608 65 493 -24 339 -24 c 0
 185 -24 71 65 71 230 c 2
 71 700 l 1
339 863 m 1
 242 774 l 1
 153 836 l 1
 339 976 l 1
 526 836 l 1
 436 774 l 1
 339 863 l 1
EndSplineSet
EndChar

StartChar: Udieresis
Encoding: 220 220 211
Width: 678
VWidth: 0
Flags: HMW
LayerCount: 2
Fore
SplineSet
71 700 m 1
 214 700 l 1
 214 238 l 2
 214 160 257 107 339 107 c 0
 421 107 464 160 464 238 c 2
 464 700 l 1
 608 700 l 1
 608 230 l 2
 608 65 493 -24 339 -24 c 0
 185 -24 71 65 71 230 c 2
 71 700 l 1
390 848 m 0
 390 890 424 922 468 922 c 0
 512 922 546 890 546 848 c 0
 546 806 512 774 468 774 c 0
 424 774 390 806 390 848 c 0
133 848 m 0
 133 890 167 922 211 922 c 0
 255 922 289 890 289 848 c 0
 289 806 255 774 211 774 c 0
 167 774 133 806 133 848 c 0
EndSplineSet
EndChar

StartChar: Yacute
Encoding: 221 221 212
Width: 630
VWidth: 0
Flags: HMW
LayerCount: 2
Fore
SplineSet
466 924 m 1
 286 774 l 1
 214 814 l 1
 364 974 l 1
 466 924 l 1
465 700 m 1
 630 700 l 1
 389 290 l 1
 389 0 l 1
 242 0 l 1
 242 289 l 1
 1 700 l 1
 166 700 l 1
 315 418 l 1
 465 700 l 1
EndSplineSet
EndChar

StartChar: agrave
Encoding: 224 224 213
Width: 526
VWidth: 0
Flags: HMW
LayerCount: 2
Fore
SplineSet
157 137 m 0
 157 99 185 80 232 80 c 0
 294 80 345 106 345 184 c 1
 361 130 l 1
 361 41 285 -10 190 -10 c 0
 91 -10 26 41 26 127 c 0
 26 225 109 281 224 281 c 0
 298 281 360 248 378 228 c 1
 378 164 l 1
 340 192 304 206 250 206 c 0
 190 206 157 179 157 137 c 0
115 328 m 1
 68 418 l 1
 116 443 185 472 268 472 c 0
 386 472 471 419 471 326 c 2
 471 0 l 1
 345 0 l 1
 345 305 l 2
 345 346 309 370 259 370 c 0
 193 370 137 342 115 328 c 1
99 682 m 1
 202 731 l 1
 352 571 l 1
 279 532 l 1
 99 682 l 1
EndSplineSet
Substitution2: "alt a" agrave.alt
EndChar

StartChar: aacute
Encoding: 225 225 214
Width: 526
VWidth: 0
Flags: HMW
LayerCount: 2
Fore
SplineSet
157 137 m 0
 157 99 185 80 232 80 c 0
 294 80 345 106 345 184 c 1
 361 130 l 1
 361 41 285 -10 190 -10 c 0
 91 -10 26 41 26 127 c 0
 26 225 109 281 224 281 c 0
 298 281 360 248 378 228 c 1
 378 164 l 1
 340 192 304 206 250 206 c 0
 190 206 157 179 157 137 c 0
115 328 m 1
 68 418 l 1
 116 443 185 472 268 472 c 0
 386 472 471 419 471 326 c 2
 471 0 l 1
 345 0 l 1
 345 305 l 2
 345 346 309 370 259 370 c 0
 193 370 137 342 115 328 c 1
436 682 m 1
 256 532 l 1
 183 571 l 1
 333 731 l 1
 436 682 l 1
EndSplineSet
Substitution2: "alt a" aacute.alt
EndChar

StartChar: acircumflex
Encoding: 226 226 215
Width: 526
VWidth: 0
Flags: HMW
LayerCount: 2
Fore
SplineSet
157 137 m 0
 157 99 185 80 232 80 c 0
 294 80 345 106 345 184 c 1
 361 130 l 1
 361 41 285 -10 190 -10 c 0
 91 -10 26 41 26 127 c 0
 26 225 109 281 224 281 c 0
 298 281 360 248 378 228 c 1
 378 164 l 1
 340 192 304 206 250 206 c 0
 190 206 157 179 157 137 c 0
115 328 m 1
 68 418 l 1
 116 443 185 472 268 472 c 0
 386 472 471 419 471 326 c 2
 471 0 l 1
 345 0 l 1
 345 305 l 2
 345 346 309 370 259 370 c 0
 193 370 137 342 115 328 c 1
268 621 m 1
 171 532 l 1
 82 594 l 1
 268 734 l 1
 454 594 l 1
 364 532 l 1
 268 621 l 1
EndSplineSet
Substitution2: "alt a" acircumflex.alt
EndChar

StartChar: atilde
Encoding: 227 227 216
Width: 526
VWidth: 0
Flags: HMW
LayerCount: 2
Fore
SplineSet
157 137 m 0
 157 99 185 80 232 80 c 0
 294 80 345 106 345 184 c 1
 361 130 l 1
 361 41 285 -10 190 -10 c 0
 91 -10 26 41 26 127 c 0
 26 225 109 281 224 281 c 0
 298 281 360 248 378 228 c 1
 378 164 l 1
 340 192 304 206 250 206 c 0
 190 206 157 179 157 137 c 0
115 328 m 1
 68 418 l 1
 116 443 185 472 268 472 c 0
 386 472 471 419 471 326 c 2
 471 0 l 1
 345 0 l 1
 345 305 l 2
 345 346 309 370 259 370 c 0
 193 370 137 342 115 328 c 1
81 590 m 1
 91 639 138 680 196 680 c 0
 262 680 272 630 328 630 c 0
 351 630 371 649 391 681 c 1
 454 616 l 1
 438 579 386 534 328 534 c 0
 273 534 242 586 194 586 c 0
 155 586 147 550 147 535 c 1
 81 590 l 1
EndSplineSet
Substitution2: "alt a" atilde.alt
EndChar

StartChar: adieresis
Encoding: 228 228 217
Width: 526
VWidth: 0
Flags: HMW
LayerCount: 2
Fore
SplineSet
157 137 m 0
 157 99 185 80 232 80 c 0
 294 80 345 106 345 184 c 1
 361 130 l 1
 361 41 285 -10 190 -10 c 0
 91 -10 26 41 26 127 c 0
 26 225 109 281 224 281 c 0
 298 281 360 248 378 228 c 1
 378 164 l 1
 340 192 304 206 250 206 c 0
 190 206 157 179 157 137 c 0
115 328 m 1
 68 418 l 1
 116 443 185 472 268 472 c 0
 386 472 471 419 471 326 c 2
 471 0 l 1
 345 0 l 1
 345 305 l 2
 345 346 309 370 259 370 c 0
 193 370 137 342 115 328 c 1
305 606 m 0
 305 648 339 680 383 680 c 0
 427 680 461 648 461 606 c 0
 461 564 427 532 383 532 c 0
 339 532 305 564 305 606 c 0
74 606 m 0
 74 648 108 680 152 680 c 0
 196 680 230 648 230 606 c 0
 230 564 196 532 152 532 c 0
 108 532 74 564 74 606 c 0
EndSplineSet
Substitution2: "alt a" adieresis.alt
EndChar

StartChar: aring
Encoding: 229 229 218
Width: 526
VWidth: 0
Flags: HMW
LayerCount: 2
Fore
SplineSet
157 137 m 0
 157 99 185 80 232 80 c 0
 294 80 345 106 345 184 c 1
 361 130 l 1
 361 41 285 -10 190 -10 c 0
 91 -10 26 41 26 127 c 0
 26 225 109 281 224 281 c 0
 298 281 360 248 378 228 c 1
 378 164 l 1
 340 192 304 206 250 206 c 0
 190 206 157 179 157 137 c 0
115 328 m 1
 68 418 l 1
 116 443 185 472 268 472 c 0
 386 472 471 419 471 326 c 2
 471 0 l 1
 345 0 l 1
 345 305 l 2
 345 346 309 370 259 370 c 0
 193 370 137 342 115 328 c 1
150 644 m 0
 150 710 204 754 268 754 c 0
 332 754 386 710 386 644 c 0
 386 578 332 532 268 532 c 0
 204 532 150 578 150 644 c 0
220 644 m 0
 220 613 243 594 268 594 c 0
 293 594 315 613 315 644 c 0
 315 675 293 693 268 693 c 0
 243 693 220 675 220 644 c 0
EndSplineSet
Substitution2: "alt a" aring.alt
EndChar

StartChar: germandbls
Encoding: 223 223 219
Width: 591
VWidth: 0
Flags: HMW
LayerCount: 2
Fore
SplineSet
364 -12 m 0
 308 -12 255 8 221 36 c 1
 258 136 l 1
 286 112 322 96 356 96 c 0
 410 96 448 136 448 186 c 0
 448 288 290 291 290 391 c 0
 290 471 388 504 388 598 c 0
 388 656 346 680 292 680 c 0
 226 680 184 644 184 562 c 2
 185 -2 l 1
 54 -2 l 1
 54 569 l 2
 54 711 145 796 299 796 c 0
 425 796 522 736 522 620 c 0
 522 492 429 468 429 402 c 0
 429 336 584 334 584 190 c 0
 584 78 480 -12 364 -12 c 0
EndSplineSet
EndChar

StartChar: ae
Encoding: 230 230 220
Width: 874
VWidth: 0
Flags: HMW
LayerCount: 2
Fore
SplineSet
214 -10 m 0
 96 -10 26 41 26 127 c 0
 26 219 106 281 224 281 c 0
 281 281 328 268 408 226 c 1
 345 226 l 1
 345 288 l 2
 345 342 315 370 259 370 c 0
 215 370 153 352 115 328 c 1
 68 418 l 1
 136 454 202 472 268 472 c 0
 364 472 417 435 427 359 c 1
 416 359 l 1
 456 431 529 470 620 470 c 0
 756 470 840 380 840 236 c 0
 840 222 839 208 838 202 c 1
 463 202 l 1
 484 220 l 1
 487 135 528 89 602 89 c 0
 656 89 698 112 724 156 c 1
 838 120 l 1
 788 33 710 -10 600 -10 c 0
 500 -10 437 26 402 105 c 1
 414 104 l 1
 396 32 321 -10 214 -10 c 0
232 80 m 0
 305 80 344 116 350 188 c 1
 350 128 l 1
 344 203 l 1
 362 176 l 1
 329 196 290 206 250 206 c 0
 189 206 157 183 157 137 c 0
 157 99 180 80 232 80 c 0
482 237 m 1
 463 281 l 1
 723 281 l 1
 700 250 l 1
 702 257 702 258 702 266 c 0
 702 337 663 378 598 378 c 0
 526 378 482 327 482 237 c 1
EndSplineSet
EndChar

StartChar: ccedilla
Encoding: 231 231 221
Width: 488
VWidth: 0
Flags: HMW
LayerCount: 2
Fore
SplineSet
164 230 m 0
 164 150 222 97 296 97 c 0
 356 97 414 126 439 170 c 1
 439 37 l 1
 407 7 355 -10 288 -10 c 0
 140 -10 30 87 30 230 c 0
 30 373 140 470 288 470 c 0
 355 470 407 451 439 424 c 1
 439 290 l 1
 414 334 352 363 296 363 c 0
 222 363 164 306 164 230 c 0
244 60 m 1
 338 58 l 1
 259 -62 l 1
 267 -60 278 -58 288 -58 c 0
 326 -58 373 -89 373 -150 c 0
 373 -218 310 -254 250 -254 c 0
 200 -254 164 -245 122 -215 c 1
 164 -155 l 1
 187 -173 214 -180 236 -180 c 0
 270 -180 288 -167 288 -143 c 0
 288 -117 264 -110 232 -110 c 0
 222 -110 187 -112 156 -126 c 1
 244 60 l 1
EndSplineSet
EndChar

StartChar: egrave
Encoding: 232 232 222
Width: 555
VWidth: 0
Flags: HMW
LayerCount: 2
Fore
SplineSet
108 202 m 1
 108 281 l 1
 382 281 l 1
 374 341 342 378 280 378 c 0
 214 378 166 334 166 256 c 1
 164 230 l 1
 164 132 214 89 282 89 c 0
 340 89 382 114 406 156 c 1
 520 120 l 1
 474 42 410 -10 282 -10 c 0
 126 -10 33 91 33 230 c 0
 33 247 34 263 37 279 c 0
 56 392 142 470 282 470 c 0
 434 470 522 381 522 236 c 0
 522 228 522 216 520 202 c 1
 108 202 l 1
125 686 m 1
 229 735 l 1
 379 575 l 1
 305 536 l 1
 125 686 l 1
EndSplineSet
EndChar

StartChar: eacute
Encoding: 233 233 223
Width: 555
VWidth: 0
Flags: HMW
LayerCount: 2
Fore
SplineSet
108 202 m 1
 108 281 l 1
 382 281 l 1
 374 341 342 378 280 378 c 0
 214 378 166 334 166 256 c 1
 164 230 l 1
 164 132 214 89 282 89 c 0
 340 89 382 114 406 156 c 1
 520 120 l 1
 474 42 410 -10 282 -10 c 0
 126 -10 33 91 33 230 c 0
 33 247 34 263 37 279 c 0
 56 392 142 470 282 470 c 0
 434 470 522 381 522 236 c 0
 522 228 522 216 520 202 c 1
 108 202 l 1
452 686 m 1
 272 536 l 1
 198 575 l 1
 348 735 l 1
 452 686 l 1
EndSplineSet
EndChar

StartChar: ecircumflex
Encoding: 234 234 224
Width: 555
VWidth: 0
Flags: HMW
LayerCount: 2
Fore
SplineSet
108 202 m 1
 108 281 l 1
 382 281 l 1
 374 341 342 378 280 378 c 0
 214 378 166 334 166 256 c 1
 164 230 l 1
 164 132 214 89 282 89 c 0
 340 89 382 114 406 156 c 1
 520 120 l 1
 474 42 410 -10 282 -10 c 0
 126 -10 33 91 33 230 c 0
 33 247 34 263 37 279 c 0
 56 392 142 470 282 470 c 0
 434 470 522 381 522 236 c 0
 522 228 522 216 520 202 c 1
 108 202 l 1
282 618 m 1
 186 530 l 1
 96 592 l 1
 282 732 l 1
 469 592 l 1
 380 530 l 1
 282 618 l 1
EndSplineSet
EndChar

StartChar: edieresis
Encoding: 235 235 225
Width: 555
VWidth: 0
Flags: HMW
LayerCount: 2
Fore
SplineSet
108 202 m 1
 108 281 l 1
 382 281 l 1
 374 341 342 378 280 378 c 0
 214 378 166 334 166 256 c 1
 164 230 l 1
 164 132 214 89 282 89 c 0
 340 89 382 114 406 156 c 1
 520 120 l 1
 474 42 410 -10 282 -10 c 0
 126 -10 33 91 33 230 c 0
 33 247 34 263 37 279 c 0
 56 392 142 470 282 470 c 0
 434 470 522 381 522 236 c 0
 522 228 522 216 520 202 c 1
 108 202 l 1
320 604 m 0
 320 646 354 678 398 678 c 0
 442 678 476 646 476 604 c 0
 476 562 442 530 398 530 c 0
 354 530 320 562 320 604 c 0
89 604 m 0
 89 646 123 678 167 678 c 0
 211 678 246 646 246 604 c 0
 246 562 211 530 167 530 c 0
 123 530 89 562 89 604 c 0
EndSplineSet
EndChar

StartChar: igrave
Encoding: 236 236 226
Width: 271
VWidth: 0
Flags: HMW
LayerCount: 2
Fore
SplineSet
72 460 m 1
 198 460 l 1
 198 0 l 1
 72 0 l 1
 72 460 l 1
-38 692 m 1
 64 740 l 1
 214 580 l 1
 142 542 l 1
 -38 692 l 1
EndSplineSet
EndChar

StartChar: dotlessi
Encoding: 305 305 227
Width: 271
VWidth: 0
Flags: HMW
LayerCount: 2
Fore
SplineSet
72 460 m 1
 198 460 l 1
 198 0 l 1
 72 0 l 1
 72 460 l 1
EndSplineSet
EndChar

StartChar: kgreenlandic
Encoding: 312 312 228
Width: 535
VWidth: 0
Flags: HMW
LayerCount: 2
Fore
SplineSet
62 460 m 1
 187 460 l 1
 187 0 l 1
 62 0 l 1
 62 460 l 1
356 460 m 1
 512 460 l 1
 314 270 l 1
 532 0 l 1
 377 0 l 1
 158 270 l 1
 356 460 l 1
EndSplineSet
EndChar

StartChar: iacute
Encoding: 237 237 229
Width: 271
VWidth: 0
Flags: HMW
LayerCount: 2
Fore
SplineSet
72 460 m 1
 198 460 l 1
 198 0 l 1
 72 0 l 1
 72 460 l 1
304 692 m 1
 124 542 l 1
 50 580 l 1
 200 740 l 1
 304 692 l 1
EndSplineSet
EndChar

StartChar: icircumflex
Encoding: 238 238 230
Width: 271
VWidth: 0
Flags: HMW
LayerCount: 2
Fore
SplineSet
72 460 m 1
 198 460 l 1
 198 0 l 1
 72 0 l 1
 72 460 l 1
136 624 m 1
 38 536 l 1
 -51 598 l 1
 136 738 l 1
 322 598 l 1
 232 536 l 1
 136 624 l 1
EndSplineSet
EndChar

StartChar: idieresis
Encoding: 239 239 231
Width: 271
VWidth: 0
Flags: HMW
LayerCount: 2
Fore
SplineSet
72 460 m 1
 198 460 l 1
 198 0 l 1
 72 0 l 1
 72 460 l 1
173 622 m 0
 173 664 207 695 251 695 c 0
 295 695 329 664 329 622 c 0
 329 580 295 548 251 548 c 0
 207 548 173 580 173 622 c 0
-58 622 m 0
 -58 664 -24 695 20 695 c 0
 64 695 98 664 98 622 c 0
 98 580 64 548 20 548 c 0
 -24 548 -58 580 -58 622 c 0
EndSplineSet
EndChar

StartChar: ntilde
Encoding: 241 241 232
Width: 560
VWidth: 0
Flags: HMW
LayerCount: 2
Fore
SplineSet
194 460 m 1
 194 0 l 1
 64 0 l 1
 64 460 l 1
 194 460 l 1
362 280 m 2
 362 340 340 374 286 374 c 0
 232 374 194 338 194 280 c 1
 163 276 l 1
 163 385 226 470 334 470 c 0
 442 470 496 409 496 294 c 2
 496 0 l 1
 362 0 l 1
 362 280 l 2
94 588 m 1
 104 637 150 678 208 678 c 0
 274 678 284 628 340 628 c 0
 363 628 384 648 404 680 c 1
 467 614 l 1
 451 577 400 532 342 532 c 0
 287 532 256 584 208 584 c 0
 169 584 160 548 160 533 c 1
 94 588 l 1
EndSplineSet
EndChar

StartChar: ograve
Encoding: 242 242 233
Width: 576
VWidth: 0
Flags: HMW
LayerCount: 2
Fore
SplineSet
33 230 m 0
 33 373 142 470 288 470 c 0
 434 470 544 373 544 230 c 0
 544 87 434 -10 288 -10 c 0
 142 -10 33 87 33 230 c 0
166 230 m 0
 166 152 220 100 288 100 c 0
 356 100 410 152 410 230 c 0
 410 308 356 360 288 360 c 0
 220 360 166 308 166 230 c 0
128 692 m 1
 232 740 l 1
 382 580 l 1
 308 542 l 1
 128 692 l 1
EndSplineSet
EndChar

StartChar: oacute
Encoding: 243 243 234
Width: 576
VWidth: 0
Flags: HMW
LayerCount: 2
Fore
SplineSet
33 230 m 0
 33 373 142 470 288 470 c 0
 434 470 544 373 544 230 c 0
 544 87 434 -10 288 -10 c 0
 142 -10 33 87 33 230 c 0
166 230 m 0
 166 152 220 100 288 100 c 0
 356 100 410 152 410 230 c 0
 410 308 356 360 288 360 c 0
 220 360 166 308 166 230 c 0
448 692 m 1
 268 542 l 1
 194 580 l 1
 344 740 l 1
 448 692 l 1
EndSplineSet
EndChar

StartChar: ocircumflex
Encoding: 244 244 235
Width: 576
VWidth: 0
Flags: HMW
LayerCount: 2
Fore
SplineSet
33 230 m 0
 33 373 142 470 288 470 c 0
 434 470 544 373 544 230 c 0
 544 87 434 -10 288 -10 c 0
 142 -10 33 87 33 230 c 0
166 230 m 0
 166 152 220 100 288 100 c 0
 356 100 410 152 410 230 c 0
 410 308 356 360 288 360 c 0
 220 360 166 308 166 230 c 0
288 630 m 1
 192 542 l 1
 102 604 l 1
 288 744 l 1
 474 604 l 1
 385 542 l 1
 288 630 l 1
EndSplineSet
EndChar

StartChar: otilde
Encoding: 245 245 236
Width: 576
VWidth: 0
Flags: HMW
LayerCount: 2
Fore
SplineSet
33 230 m 0
 33 373 142 470 288 470 c 0
 434 470 544 373 544 230 c 0
 544 87 434 -10 288 -10 c 0
 142 -10 33 87 33 230 c 0
166 230 m 0
 166 152 220 100 288 100 c 0
 356 100 410 152 410 230 c 0
 410 308 356 360 288 360 c 0
 220 360 166 308 166 230 c 0
102 588 m 1
 112 637 158 678 216 678 c 0
 282 678 294 628 350 628 c 0
 373 628 392 648 412 680 c 1
 475 614 l 1
 459 577 408 532 350 532 c 0
 295 532 263 584 215 584 c 0
 176 584 168 548 168 533 c 1
 102 588 l 1
EndSplineSet
EndChar

StartChar: odieresis
Encoding: 246 246 237
Width: 576
VWidth: 0
Flags: HMW
LayerCount: 2
Fore
SplineSet
33 230 m 0
 33 373 142 470 288 470 c 0
 434 470 544 373 544 230 c 0
 544 87 434 -10 288 -10 c 0
 142 -10 33 87 33 230 c 0
166 230 m 0
 166 152 220 100 288 100 c 0
 356 100 410 152 410 230 c 0
 410 308 356 360 288 360 c 0
 220 360 166 308 166 230 c 0
326 622 m 0
 326 664 360 695 404 695 c 0
 448 695 482 664 482 622 c 0
 482 580 448 548 404 548 c 0
 360 548 326 580 326 622 c 0
95 622 m 0
 95 664 129 695 173 695 c 0
 217 695 251 664 251 622 c 0
 251 580 217 548 173 548 c 0
 129 548 95 580 95 622 c 0
EndSplineSet
EndChar

StartChar: ugrave
Encoding: 249 249 238
Width: 560
VWidth: 0
Flags: HMW
LayerCount: 2
Fore
SplineSet
366 0 m 1
 366 460 l 1
 496 460 l 1
 496 0 l 1
 366 0 l 1
199 180 m 2
 199 120 220 86 274 86 c 0
 328 86 366 122 366 180 c 1
 398 184 l 1
 398 75 334 -10 226 -10 c 0
 118 -10 64 51 64 166 c 2
 64 460 l 1
 199 460 l 1
 199 180 l 2
142 692 m 1
 246 740 l 1
 396 580 l 1
 322 542 l 1
 142 692 l 1
EndSplineSet
EndChar

StartChar: uacute
Encoding: 250 250 239
Width: 560
VWidth: 0
Flags: HMW
LayerCount: 2
Fore
SplineSet
366 0 m 1
 366 460 l 1
 496 460 l 1
 496 0 l 1
 366 0 l 1
199 180 m 2
 199 120 220 86 274 86 c 0
 328 86 366 122 366 180 c 1
 398 184 l 1
 398 75 334 -10 226 -10 c 0
 118 -10 64 51 64 166 c 2
 64 460 l 1
 199 460 l 1
 199 180 l 2
417 692 m 1
 237 542 l 1
 164 580 l 1
 314 740 l 1
 417 692 l 1
EndSplineSet
EndChar

StartChar: ucircumflex
Encoding: 251 251 240
Width: 560
VWidth: 0
Flags: HMW
LayerCount: 2
Fore
SplineSet
366 0 m 1
 366 460 l 1
 496 460 l 1
 496 0 l 1
 366 0 l 1
199 180 m 2
 199 120 220 86 274 86 c 0
 328 86 366 122 366 180 c 1
 398 184 l 1
 398 75 334 -10 226 -10 c 0
 118 -10 64 51 64 166 c 2
 64 460 l 1
 199 460 l 1
 199 180 l 2
280 630 m 1
 183 542 l 1
 94 604 l 1
 280 744 l 1
 466 604 l 1
 376 542 l 1
 280 630 l 1
EndSplineSet
EndChar

StartChar: udieresis
Encoding: 252 252 241
Width: 560
VWidth: 0
Flags: HMW
LayerCount: 2
Fore
SplineSet
366 0 m 1
 366 460 l 1
 496 460 l 1
 496 0 l 1
 366 0 l 1
199 180 m 2
 199 120 220 86 274 86 c 0
 328 86 366 122 366 180 c 1
 398 184 l 1
 398 75 334 -10 226 -10 c 0
 118 -10 64 51 64 166 c 2
 64 460 l 1
 199 460 l 1
 199 180 l 2
318 616 m 0
 318 658 352 690 396 690 c 0
 440 690 474 658 474 616 c 0
 474 574 440 542 396 542 c 0
 352 542 318 574 318 616 c 0
87 616 m 0
 87 658 121 690 165 690 c 0
 209 690 243 658 243 616 c 0
 243 574 209 542 165 542 c 0
 121 542 87 574 87 616 c 0
EndSplineSet
EndChar

StartChar: yacute
Encoding: 253 253 242
Width: 496
VWidth: 0
Flags: HMW
LayerCount: 2
Fore
SplineSet
504 460 m 1
 204 -220 l 1
 70 -220 l 1
 186 46 l 1
 -6 460 l 1
 139 460 l 1
 286 94 l 1
 222 96 l 1
 368 460 l 1
 504 460 l 1
400 692 m 1
 220 542 l 1
 146 580 l 1
 296 740 l 1
 400 692 l 1
EndSplineSet
EndChar

StartChar: thorn
Encoding: 254 254 243
Width: 602
VWidth: 0
Flags: HMW
LayerCount: 2
Fore
SplineSet
192 -220 m 1
 62 -220 l 1
 62 780 l 1
 192 780 l 1
 192 -220 l 1
570 230 m 0
 570 77 464 -10 348 -10 c 0
 233 -10 151 81 151 230 c 0
 151 379 233 470 348 470 c 0
 464 470 570 383 570 230 c 0
434 230 m 0
 434 312 378 362 310 362 c 0
 254 362 192 314 192 230 c 0
 192 146 254 98 310 98 c 0
 378 98 434 148 434 230 c 0
EndSplineSet
EndChar

StartChar: ydieresis
Encoding: 255 255 244
Width: 496
VWidth: 0
Flags: HMW
LayerCount: 2
Fore
SplineSet
504 460 m 1
 204 -220 l 1
 70 -220 l 1
 186 46 l 1
 -6 460 l 1
 139 460 l 1
 286 94 l 1
 222 96 l 1
 368 460 l 1
 504 460 l 1
286 604 m 0
 286 646 320 678 364 678 c 0
 408 678 442 646 442 604 c 0
 442 562 408 530 364 530 c 0
 320 530 286 562 286 604 c 0
55 604 m 0
 55 646 90 678 134 678 c 0
 178 678 212 646 212 604 c 0
 212 562 178 530 134 530 c 0
 90 530 55 562 55 604 c 0
EndSplineSet
EndChar

StartChar: Amacron
Encoding: 256 256 245
Width: 712
VWidth: 0
Flags: HMW
LayerCount: 2
Fore
SplineSet
173 158 m 1
 190 272 l 1
 526 272 l 1
 543 158 l 1
 173 158 l 1
356 472 m 1
 252 231 l 1
 255 199 l 1
 164 0 l 1
 1 0 l 1
 356 742 l 1
 712 0 l 1
 549 0 l 1
 460 192 l 1
 461 229 l 1
 356 472 l 1
174 802 m 1
 174 916 l 1
 538 916 l 1
 538 802 l 1
 174 802 l 1
EndSplineSet
EndChar

StartChar: amacron
Encoding: 257 257 246
Width: 526
VWidth: 0
Flags: HMW
LayerCount: 2
Fore
SplineSet
157 137 m 0
 157 99 185 80 232 80 c 0
 294 80 345 106 345 184 c 1
 361 130 l 1
 361 41 285 -10 190 -10 c 0
 91 -10 26 41 26 127 c 0
 26 225 109 281 224 281 c 0
 298 281 360 248 378 228 c 1
 378 164 l 1
 340 192 304 206 250 206 c 0
 190 206 157 179 157 137 c 0
115 328 m 1
 68 418 l 1
 116 443 185 472 268 472 c 0
 386 472 471 419 471 326 c 2
 471 0 l 1
 345 0 l 1
 345 305 l 2
 345 346 309 370 259 370 c 0
 193 370 137 342 115 328 c 1
85 544 m 1
 85 658 l 1
 450 658 l 1
 450 544 l 1
 85 544 l 1
EndSplineSet
Substitution2: "alt a" amacron.alt
EndChar

StartChar: breve
Encoding: 728 728 247
Width: 546
VWidth: 0
Flags: HMW
LayerCount: 2
Fore
SplineSet
111 850 m 1
 202 850 l 1
 202 818 225 786 273 786 c 0
 321 786 344 818 344 850 c 1
 435 850 l 1
 435 772 378 706 273 706 c 0
 168 706 111 772 111 850 c 1
EndSplineSet
EndChar

StartChar: Abreve
Encoding: 258 258 248
Width: 712
VWidth: 0
Flags: HMW
LayerCount: 2
Fore
SplineSet
173 158 m 1
 190 272 l 1
 526 272 l 1
 543 158 l 1
 173 158 l 1
356 472 m 1
 252 231 l 1
 255 199 l 1
 164 0 l 1
 1 0 l 1
 356 742 l 1
 712 0 l 1
 549 0 l 1
 460 192 l 1
 461 229 l 1
 356 472 l 1
194 946 m 1
 284 946 l 1
 284 914 308 882 356 882 c 0
 404 882 428 914 428 946 c 1
 519 946 l 1
 519 868 461 802 356 802 c 0
 251 802 194 868 194 946 c 1
EndSplineSet
EndChar

StartChar: abreve
Encoding: 259 259 249
Width: 526
VWidth: 0
Flags: HMW
LayerCount: 2
Fore
SplineSet
157 137 m 0
 157 99 185 80 232 80 c 0
 294 80 345 106 345 184 c 1
 361 130 l 1
 361 41 285 -10 190 -10 c 0
 91 -10 26 41 26 127 c 0
 26 225 109 281 224 281 c 0
 298 281 360 248 378 228 c 1
 378 164 l 1
 340 192 304 206 250 206 c 0
 190 206 157 179 157 137 c 0
115 328 m 1
 68 418 l 1
 116 443 185 472 268 472 c 0
 386 472 471 419 471 326 c 2
 471 0 l 1
 345 0 l 1
 345 305 l 2
 345 346 309 370 259 370 c 0
 193 370 137 342 115 328 c 1
106 676 m 1
 196 676 l 1
 196 644 220 612 268 612 c 0
 316 612 339 644 339 676 c 1
 430 676 l 1
 430 598 373 532 268 532 c 0
 163 532 106 598 106 676 c 1
EndSplineSet
Substitution2: "alt a" abreve.alt
EndChar

StartChar: Aogonek
Encoding: 260 260 250
Width: 712
VWidth: 0
Flags: HMW
LayerCount: 2
Fore
SplineSet
173 158 m 1
 190 272 l 1
 526 272 l 1
 543 158 l 1
 173 158 l 1
356 472 m 1
 252 231 l 1
 255 199 l 1
 164 0 l 1
 1 0 l 1
 356 742 l 1
 712 0 l 1
 549 0 l 1
 460 192 l 1
 461 229 l 1
 356 472 l 1
682 -116 m 1
 714 -180 l 1
 699 -200 670 -220 618 -220 c 0
 548 -220 500 -183 500 -120 c 0
 500 -57 566 -11 636 25 c 1
 676 0 l 1
 624 -26 593 -63 593 -96 c 0
 593 -124 606 -136 632 -136 c 0
 654 -136 668 -129 682 -116 c 1
EndSplineSet
EndChar

StartChar: aogonek
Encoding: 261 261 251
Width: 526
VWidth: 0
Flags: HMW
LayerCount: 2
Fore
SplineSet
157 137 m 0
 157 99 190 80 232 80 c 0
 294 80 345 106 345 184 c 1
 361 130 l 1
 361 41 285 -10 190 -10 c 0
 96 -10 26 40 26 132 c 0
 26 225 103 281 224 281 c 0
 298 281 360 248 378 228 c 1
 378 164 l 1
 340 192 304 206 250 206 c 0
 190 206 157 179 157 137 c 0
115 328 m 1
 68 418 l 1
 116 443 185 472 268 472 c 0
 386 472 471 419 471 326 c 2
 471 0 l 1
 345 0 l 1
 345 305 l 2
 345 346 309 370 259 370 c 0
 193 370 137 342 115 328 c 1
454 -116 m 1
 487 -180 l 1
 472 -200 442 -220 390 -220 c 0
 320 -220 272 -183 272 -120 c 0
 272 -57 338 -11 408 25 c 1
 449 0 l 1
 397 -26 365 -63 365 -96 c 0
 365 -124 378 -136 404 -136 c 0
 426 -136 440 -129 454 -116 c 1
EndSplineSet
Substitution2: "alt a" aogonek.alt
EndChar

StartChar: Cacute
Encoding: 262 262 252
Width: 695
VWidth: 0
Flags: HMW
LayerCount: 2
Fore
SplineSet
192 350 m 0
 192 211 296 124 416 124 c 0
 515 124 583 166 630 220 c 1
 630 58 l 1
 573 12 512 -14 410 -14 c 0
 194 -14 36 134 36 350 c 0
 36 566 194 714 410 714 c 0
 512 714 573 688 630 642 c 1
 630 480 l 1
 583 534 515 576 416 576 c 0
 296 576 192 489 192 350 c 0
540 924 m 1
 360 774 l 1
 286 814 l 1
 436 974 l 1
 540 924 l 1
EndSplineSet
EndChar

StartChar: cacute
Encoding: 263 263 253
Width: 488
VWidth: 0
Flags: HMW
LayerCount: 2
Fore
SplineSet
164 230 m 0
 164 150 222 97 296 97 c 0
 356 97 414 126 439 170 c 1
 439 37 l 1
 407 7 355 -10 288 -10 c 0
 140 -10 30 87 30 230 c 0
 30 373 140 470 288 470 c 0
 355 470 407 451 439 424 c 1
 439 290 l 1
 414 334 352 363 296 363 c 0
 222 363 164 306 164 230 c 0
418 680 m 1
 238 530 l 1
 164 569 l 1
 314 729 l 1
 418 680 l 1
EndSplineSet
EndChar

StartChar: Ccircumflex
Encoding: 264 264 254
Width: 695
VWidth: 0
Flags: HMW
LayerCount: 2
Fore
SplineSet
192 350 m 0
 192 211 296 124 416 124 c 0
 515 124 583 166 630 220 c 1
 630 58 l 1
 573 12 512 -14 410 -14 c 0
 194 -14 36 134 36 350 c 0
 36 566 194 714 410 714 c 0
 512 714 573 688 630 642 c 1
 630 480 l 1
 583 534 515 576 416 576 c 0
 296 576 192 489 192 350 c 0
410 863 m 1
 313 774 l 1
 224 836 l 1
 410 976 l 1
 596 836 l 1
 506 774 l 1
 410 863 l 1
EndSplineSet
EndChar

StartChar: ccircumflex
Encoding: 265 265 255
Width: 488
VWidth: 0
Flags: HMW
LayerCount: 2
Fore
SplineSet
164 230 m 0
 164 150 222 97 296 97 c 0
 356 97 414 126 439 170 c 1
 439 37 l 1
 407 7 355 -10 288 -10 c 0
 140 -10 30 87 30 230 c 0
 30 373 140 470 288 470 c 0
 355 470 407 451 439 424 c 1
 439 290 l 1
 414 334 352 363 296 363 c 0
 222 363 164 306 164 230 c 0
266 618 m 1
 169 530 l 1
 80 592 l 1
 266 732 l 1
 452 592 l 1
 362 530 l 1
 266 618 l 1
EndSplineSet
EndChar

StartChar: Cdotaccent
Encoding: 266 266 256
Width: 695
VWidth: 0
Flags: HMW
LayerCount: 2
Fore
SplineSet
192 350 m 0
 192 211 296 124 416 124 c 0
 515 124 583 166 630 220 c 1
 630 58 l 1
 573 12 512 -14 410 -14 c 0
 194 -14 36 134 36 350 c 0
 36 566 194 714 410 714 c 0
 512 714 573 688 630 642 c 1
 630 480 l 1
 583 534 515 576 416 576 c 0
 296 576 192 489 192 350 c 0
314 848 m 0
 314 890 348 922 392 922 c 0
 436 922 470 890 470 848 c 0
 470 806 436 774 392 774 c 0
 348 774 314 806 314 848 c 0
EndSplineSet
EndChar

StartChar: cdotaccent
Encoding: 267 267 257
Width: 488
VWidth: 0
Flags: HMW
LayerCount: 2
Fore
SplineSet
164 230 m 0
 164 150 222 97 296 97 c 0
 356 97 414 126 439 170 c 1
 439 37 l 1
 407 7 355 -10 288 -10 c 0
 140 -10 30 87 30 230 c 0
 30 373 140 470 288 470 c 0
 355 470 407 451 439 424 c 1
 439 290 l 1
 414 334 352 363 296 363 c 0
 222 363 164 306 164 230 c 0
192 609 m 0
 192 651 226 682 270 682 c 0
 314 682 348 651 348 609 c 0
 348 567 314 535 270 535 c 0
 226 535 192 567 192 609 c 0
EndSplineSet
EndChar

StartChar: Ccaron
Encoding: 268 268 258
Width: 695
VWidth: 0
Flags: HMW
LayerCount: 2
Fore
SplineSet
192 350 m 0
 192 211 296 124 416 124 c 0
 515 124 583 166 630 220 c 1
 630 58 l 1
 573 12 512 -14 410 -14 c 0
 194 -14 36 134 36 350 c 0
 36 566 194 714 410 714 c 0
 512 714 573 688 630 642 c 1
 630 480 l 1
 583 534 515 576 416 576 c 0
 296 576 192 489 192 350 c 0
410 888 m 1
 506 976 l 1
 596 914 l 1
 410 774 l 1
 224 914 l 1
 313 976 l 1
 410 888 l 1
EndSplineSet
EndChar

StartChar: ccaron
Encoding: 269 269 259
Width: 488
VWidth: 0
Flags: HMW
LayerCount: 2
Fore
SplineSet
164 230 m 0
 164 150 222 97 296 97 c 0
 356 97 414 126 439 170 c 1
 439 37 l 1
 407 7 355 -10 288 -10 c 0
 140 -10 30 87 30 230 c 0
 30 373 140 470 288 470 c 0
 355 470 407 451 439 424 c 1
 439 290 l 1
 414 334 352 363 296 363 c 0
 222 363 164 306 164 230 c 0
266 644 m 1
 362 732 l 1
 452 670 l 1
 266 530 l 1
 80 670 l 1
 169 732 l 1
 266 644 l 1
EndSplineSet
EndChar

StartChar: Dcaron
Encoding: 270 270 260
Width: 717
VWidth: 0
Flags: HMW
LayerCount: 2
Fore
SplineSet
76 700 m 1
 224 700 l 1
 224 0 l 1
 76 0 l 1
 76 700 l 1
314 0 m 2
 168 0 l 1
 168 131 l 1
 310 131 l 2
 433 131 534 196 534 350 c 0
 534 504 433 569 310 569 c 2
 168 569 l 1
 168 700 l 1
 314 700 l 2
 536 700 682 563 682 350 c 0
 682 137 536 0 314 0 c 2
362 888 m 1
 459 976 l 1
 548 914 l 1
 362 774 l 1
 176 914 l 1
 265 976 l 1
 362 888 l 1
EndSplineSet
EndChar

StartChar: dcaron
Encoding: 271 271 261
Width: 602
VWidth: 0
Flags: HMW
LayerCount: 2
Fore
SplineSet
412 780 m 1
 542 780 l 1
 542 0 l 1
 412 0 l 1
 412 780 l 1
33 230 m 0
 33 383 138 470 254 470 c 0
 369 470 452 379 452 230 c 0
 452 81 369 -10 254 -10 c 0
 138 -10 33 77 33 230 c 0
168 230 m 0
 168 148 224 98 292 98 c 0
 348 98 412 146 412 230 c 0
 412 314 348 362 292 362 c 0
 224 362 168 312 168 230 c 0
660 780 m 1
 790 748 l 1
 669 498 l 1
 572 521 l 1
 660 780 l 1
EndSplineSet
EndChar

StartChar: Dcroat
Encoding: 272 272 262
Width: 717
VWidth: 0
Flags: HMW
LayerCount: 2
Fore
SplineSet
5 302 m 1
 5 394 l 1
 336 394 l 1
 336 302 l 1
 5 302 l 1
76 700 m 1
 224 700 l 1
 224 0 l 1
 76 0 l 1
 76 700 l 1
314 0 m 2
 168 0 l 1
 168 131 l 1
 310 131 l 2
 433 131 534 196 534 350 c 0
 534 504 433 569 310 569 c 2
 168 569 l 1
 168 700 l 1
 314 700 l 2
 536 700 682 563 682 350 c 0
 682 137 536 0 314 0 c 2
EndSplineSet
EndChar

StartChar: dcroat
Encoding: 273 273 263
Width: 602
VWidth: 0
Flags: HMW
LayerCount: 2
Fore
SplineSet
295 572 m 1
 295 665 l 1
 634 665 l 1
 634 572 l 1
 295 572 l 1
412 780 m 1
 542 780 l 1
 542 0 l 1
 412 0 l 1
 412 780 l 1
33 230 m 0
 33 383 138 470 254 470 c 0
 369 470 452 379 452 230 c 0
 452 81 369 -10 254 -10 c 0
 138 -10 33 77 33 230 c 0
168 230 m 0
 168 148 224 98 292 98 c 0
 348 98 412 146 412 230 c 0
 412 314 348 362 292 362 c 0
 224 362 168 312 168 230 c 0
EndSplineSet
EndChar

StartChar: Emacron
Encoding: 274 274 264
Width: 587
VWidth: 0
Flags: HMW
LayerCount: 2
Fore
SplineSet
168 0 m 1
 168 122 l 1
 522 122 l 1
 522 0 l 1
 168 0 l 1
168 578 m 1
 168 700 l 1
 522 700 l 1
 522 578 l 1
 168 578 l 1
168 312 m 1
 168 431 l 1
 502 431 l 1
 502 312 l 1
 168 312 l 1
76 700 m 1
 216 700 l 1
 216 0 l 1
 76 0 l 1
 76 700 l 1
116 774 m 1
 116 889 l 1
 481 889 l 1
 481 774 l 1
 116 774 l 1
EndSplineSet
EndChar

StartChar: emacron
Encoding: 275 275 265
Width: 555
VWidth: 0
Flags: HMW
LayerCount: 2
Fore
SplineSet
108 202 m 1
 108 281 l 1
 382 281 l 1
 374 341 342 378 280 378 c 0
 214 378 166 334 166 256 c 1
 164 230 l 1
 164 132 214 89 282 89 c 0
 340 89 382 114 406 156 c 1
 520 120 l 1
 474 42 410 -10 282 -10 c 0
 126 -10 33 91 33 230 c 0
 33 247 34 263 37 279 c 0
 56 392 142 470 282 470 c 0
 434 470 522 381 522 236 c 0
 522 228 522 216 520 202 c 1
 108 202 l 1
100 530 m 1
 100 645 l 1
 466 645 l 1
 466 530 l 1
 100 530 l 1
EndSplineSet
EndChar

StartChar: Ebreve
Encoding: 276 276 266
Width: 587
VWidth: 0
Flags: HMW
LayerCount: 2
Fore
SplineSet
168 0 m 1
 168 122 l 1
 522 122 l 1
 522 0 l 1
 168 0 l 1
168 578 m 1
 168 700 l 1
 522 700 l 1
 522 578 l 1
 168 578 l 1
168 312 m 1
 168 431 l 1
 502 431 l 1
 502 312 l 1
 168 312 l 1
76 700 m 1
 216 700 l 1
 216 0 l 1
 76 0 l 1
 76 700 l 1
136 918 m 1
 226 918 l 1
 226 886 250 854 298 854 c 0
 346 854 370 886 370 918 c 1
 460 918 l 1
 460 840 403 774 298 774 c 0
 193 774 136 840 136 918 c 1
EndSplineSet
EndChar

StartChar: ebreve
Encoding: 277 277 267
Width: 555
VWidth: 0
Flags: HMW
LayerCount: 2
Fore
SplineSet
108 202 m 1
 108 281 l 1
 382 281 l 1
 374 341 342 378 280 378 c 0
 214 378 166 334 166 256 c 1
 164 230 l 1
 164 132 214 89 282 89 c 0
 340 89 382 114 406 156 c 1
 520 120 l 1
 474 42 410 -10 282 -10 c 0
 126 -10 33 91 33 230 c 0
 33 247 34 263 37 279 c 0
 56 392 142 470 282 470 c 0
 434 470 522 381 522 236 c 0
 522 228 522 216 520 202 c 1
 108 202 l 1
120 675 m 1
 211 675 l 1
 211 643 234 611 282 611 c 0
 330 611 354 643 354 675 c 1
 445 675 l 1
 445 597 387 530 282 530 c 0
 177 530 120 597 120 675 c 1
EndSplineSet
EndChar

StartChar: Edotaccent
Encoding: 278 278 268
Width: 587
VWidth: 0
Flags: HMW
LayerCount: 2
Fore
SplineSet
168 0 m 1
 168 122 l 1
 522 122 l 1
 522 0 l 1
 168 0 l 1
168 578 m 1
 168 700 l 1
 522 700 l 1
 522 578 l 1
 168 578 l 1
168 312 m 1
 168 431 l 1
 502 431 l 1
 502 312 l 1
 168 312 l 1
76 700 m 1
 216 700 l 1
 216 0 l 1
 76 0 l 1
 76 700 l 1
220 848 m 0
 220 890 254 922 298 922 c 0
 342 922 376 890 376 848 c 0
 376 806 342 774 298 774 c 0
 254 774 220 806 220 848 c 0
EndSplineSet
EndChar

StartChar: edotaccent
Encoding: 279 279 269
Width: 555
VWidth: 0
Flags: HMW
LayerCount: 2
Fore
SplineSet
108 202 m 1
 108 281 l 1
 382 281 l 1
 374 341 342 378 280 378 c 0
 214 378 166 334 166 256 c 1
 164 230 l 1
 164 132 214 89 282 89 c 0
 340 89 382 114 406 156 c 1
 520 120 l 1
 474 42 410 -10 282 -10 c 0
 126 -10 33 91 33 230 c 0
 33 247 34 263 37 279 c 0
 56 392 142 470 282 470 c 0
 434 470 522 381 522 236 c 0
 522 228 522 216 520 202 c 1
 108 202 l 1
204 604 m 0
 204 646 238 678 282 678 c 0
 326 678 360 646 360 604 c 0
 360 562 326 530 282 530 c 0
 238 530 204 562 204 604 c 0
EndSplineSet
EndChar

StartChar: Eogonek
Encoding: 280 280 270
Width: 587
VWidth: 0
Flags: HMW
LayerCount: 2
Fore
SplineSet
168 0 m 1
 168 122 l 1
 522 122 l 1
 522 0 l 1
 168 0 l 1
168 578 m 1
 168 700 l 1
 522 700 l 1
 522 578 l 1
 168 578 l 1
168 312 m 1
 168 431 l 1
 502 431 l 1
 502 312 l 1
 168 312 l 1
76 700 m 1
 216 700 l 1
 216 0 l 1
 76 0 l 1
 76 700 l 1
389 -116 m 1
 422 -180 l 1
 407 -200 378 -220 326 -220 c 0
 256 -220 206 -183 206 -120 c 0
 206 -57 273 -11 343 25 c 1
 384 0 l 1
 332 -26 300 -63 300 -96 c 0
 300 -124 313 -136 339 -136 c 0
 361 -136 375 -129 389 -116 c 1
EndSplineSet
EndChar

StartChar: eogonek
Encoding: 281 281 271
Width: 555
VWidth: 0
Flags: HMW
LayerCount: 2
Fore
SplineSet
108 202 m 1
 108 281 l 1
 382 281 l 1
 374 341 342 378 280 378 c 0
 214 378 166 334 166 256 c 1
 164 230 l 1
 164 132 214 89 282 89 c 0
 340 89 382 114 406 156 c 1
 520 120 l 1
 474 42 410 -10 282 -10 c 0
 126 -10 33 91 33 230 c 0
 33 247 34 263 37 279 c 0
 56 392 142 470 282 470 c 0
 434 470 522 381 522 236 c 0
 522 228 522 216 520 202 c 1
 108 202 l 1
318 -112 m 1
 352 -174 l 1
 337 -194 307 -214 255 -214 c 0
 185 -214 136 -177 136 -114 c 0
 136 -51 202 -6 272 30 c 1
 314 6 l 1
 262 -20 230 -57 230 -90 c 0
 230 -118 242 -132 268 -132 c 0
 290 -132 304 -125 318 -112 c 1
EndSplineSet
EndChar

StartChar: Ecaron
Encoding: 282 282 272
Width: 587
VWidth: 0
Flags: HMW
LayerCount: 2
Fore
SplineSet
168 0 m 1
 168 122 l 1
 522 122 l 1
 522 0 l 1
 168 0 l 1
168 578 m 1
 168 700 l 1
 522 700 l 1
 522 578 l 1
 168 578 l 1
168 312 m 1
 168 431 l 1
 502 431 l 1
 502 312 l 1
 168 312 l 1
76 700 m 1
 216 700 l 1
 216 0 l 1
 76 0 l 1
 76 700 l 1
298 888 m 1
 396 976 l 1
 485 914 l 1
 298 774 l 1
 112 914 l 1
 202 976 l 1
 298 888 l 1
EndSplineSet
EndChar

StartChar: ecaron
Encoding: 283 283 273
Width: 555
VWidth: 0
Flags: HMW
LayerCount: 2
Fore
SplineSet
108 202 m 1
 108 281 l 1
 382 281 l 1
 374 341 342 378 280 378 c 0
 214 378 166 334 166 256 c 1
 164 230 l 1
 164 132 214 89 282 89 c 0
 340 89 382 114 406 156 c 1
 520 120 l 1
 474 42 410 -10 282 -10 c 0
 126 -10 33 91 33 230 c 0
 33 247 34 263 37 279 c 0
 56 392 142 470 282 470 c 0
 434 470 522 381 522 236 c 0
 522 228 522 216 520 202 c 1
 108 202 l 1
282 644 m 1
 380 732 l 1
 469 670 l 1
 282 530 l 1
 96 670 l 1
 186 732 l 1
 282 644 l 1
EndSplineSet
EndChar

StartChar: Gcircumflex
Encoding: 284 284 274
Width: 802
VWidth: 0
Flags: HMW
LayerCount: 2
Fore
SplineSet
416 260 m 1
 416 374 l 1
 762 374 l 1
 770 160 642 -18 410 -18 c 0
 192 -18 36 132 36 350 c 0
 36 568 196 714 414 714 c 0
 556 714 659 651 723 554 c 1
 600 482 l 1
 564 542 504 586 414 586 c 0
 288 586 186 496 186 350 c 0
 186 204 284 110 414 110 c 0
 528 110 593 176 616 260 c 1
 416 260 l 1
414 863 m 1
 318 774 l 1
 228 836 l 1
 414 976 l 1
 601 836 l 1
 512 774 l 1
 414 863 l 1
EndSplineSet
EndChar

StartChar: gcircumflex
Encoding: 285 285 275
Width: 598
VWidth: 0
Flags: HMW
LayerCount: 2
Fore
SplineSet
42 -32 m 1
 170 -32 l 1
 174 -92 218 -129 286 -129 c 0
 352 -129 412 -84 412 10 c 2
 412 460 l 1
 537 460 l 1
 537 10 l 2
 537 -162 424 -236 292 -236 c 0
 131 -236 50 -153 42 -32 c 1
33 234 m 0
 33 387 138 470 254 470 c 0
 369 470 452 383 452 234 c 0
 452 85 369 -2 254 -2 c 0
 138 -2 33 81 33 234 c 0
168 234 m 0
 168 152 224 106 292 106 c 0
 348 106 412 150 412 234 c 0
 412 318 348 362 292 362 c 0
 224 362 168 316 168 234 c 0
302 618 m 1
 206 530 l 1
 116 592 l 1
 302 732 l 1
 489 592 l 1
 399 530 l 1
 302 618 l 1
EndSplineSet
EndChar

StartChar: Gbreve
Encoding: 286 286 276
Width: 802
VWidth: 0
Flags: HMW
LayerCount: 2
Fore
SplineSet
416 260 m 1
 416 374 l 1
 762 374 l 1
 770 160 642 -18 410 -18 c 0
 192 -18 36 132 36 350 c 0
 36 568 196 714 414 714 c 0
 556 714 659 651 723 554 c 1
 600 482 l 1
 564 542 504 586 414 586 c 0
 288 586 186 496 186 350 c 0
 186 204 284 110 414 110 c 0
 528 110 593 176 616 260 c 1
 416 260 l 1
252 918 m 1
 343 918 l 1
 343 886 366 854 414 854 c 0
 462 854 486 886 486 918 c 1
 577 918 l 1
 577 840 519 774 414 774 c 0
 309 774 252 840 252 918 c 1
EndSplineSet
EndChar

StartChar: gbreve
Encoding: 287 287 277
Width: 598
VWidth: 0
Flags: HMW
LayerCount: 2
Fore
SplineSet
42 -32 m 1
 170 -32 l 1
 174 -92 218 -129 286 -129 c 0
 352 -129 412 -84 412 10 c 2
 412 460 l 1
 537 460 l 1
 537 10 l 2
 537 -162 424 -236 292 -236 c 0
 131 -236 50 -153 42 -32 c 1
33 234 m 0
 33 387 138 470 254 470 c 0
 369 470 452 383 452 234 c 0
 452 85 369 -2 254 -2 c 0
 138 -2 33 81 33 234 c 0
168 234 m 0
 168 152 224 106 292 106 c 0
 348 106 412 150 412 234 c 0
 412 318 348 362 292 362 c 0
 224 362 168 316 168 234 c 0
140 675 m 1
 230 675 l 1
 230 643 254 611 302 611 c 0
 350 611 374 643 374 675 c 1
 465 675 l 1
 465 597 407 530 302 530 c 0
 197 530 140 597 140 675 c 1
EndSplineSet
EndChar

StartChar: Gdotaccent
Encoding: 288 288 278
Width: 802
VWidth: 0
Flags: HMW
LayerCount: 2
Fore
SplineSet
416 260 m 1
 416 374 l 1
 762 374 l 1
 770 160 642 -18 410 -18 c 0
 192 -18 36 132 36 350 c 0
 36 568 196 714 414 714 c 0
 556 714 659 651 723 554 c 1
 600 482 l 1
 564 542 504 586 414 586 c 0
 288 586 186 496 186 350 c 0
 186 204 284 110 414 110 c 0
 528 110 593 176 616 260 c 1
 416 260 l 1
336 848 m 0
 336 890 370 922 414 922 c 0
 458 922 492 890 492 848 c 0
 492 806 458 774 414 774 c 0
 370 774 336 806 336 848 c 0
EndSplineSet
EndChar

StartChar: gdotaccent
Encoding: 289 289 279
Width: 598
VWidth: 0
Flags: HMW
LayerCount: 2
Fore
SplineSet
42 -32 m 1
 170 -32 l 1
 174 -92 218 -129 286 -129 c 0
 352 -129 412 -84 412 10 c 2
 412 460 l 1
 537 460 l 1
 537 10 l 2
 537 -162 424 -236 292 -236 c 0
 131 -236 50 -153 42 -32 c 1
33 234 m 0
 33 387 138 470 254 470 c 0
 369 470 452 383 452 234 c 0
 452 85 369 -2 254 -2 c 0
 138 -2 33 81 33 234 c 0
168 234 m 0
 168 152 224 106 292 106 c 0
 348 106 412 150 412 234 c 0
 412 318 348 362 292 362 c 0
 224 362 168 316 168 234 c 0
222 627 m 0
 222 669 256 700 300 700 c 0
 344 700 378 669 378 627 c 0
 378 585 344 553 300 553 c 0
 256 553 222 585 222 627 c 0
EndSplineSet
EndChar

StartChar: uni0122
Encoding: 290 290 280
Width: 802
VWidth: 0
Flags: HMW
LayerCount: 2
Fore
SplineSet
416 260 m 1
 416 374 l 1
 762 374 l 1
 770 160 642 -18 410 -18 c 0
 192 -18 36 132 36 350 c 0
 36 568 196 714 414 714 c 0
 556 714 659 651 723 554 c 1
 600 482 l 1
 564 542 504 586 414 586 c 0
 288 586 186 496 186 350 c 0
 186 204 284 110 414 110 c 0
 528 110 593 176 616 260 c 1
 416 260 l 1
368 -78 m 1
 498 -110 l 1
 376 -360 l 1
 280 -338 l 1
 368 -78 l 1
EndSplineSet
EndChar

StartChar: Hcircumflex
Encoding: 292 292 281
Width: 764
VWidth: 0
Flags: HMW
LayerCount: 2
Fore
SplineSet
123 307 m 1
 123 438 l 1
 638 438 l 1
 638 307 l 1
 123 307 l 1
546 700 m 1
 690 700 l 1
 690 0 l 1
 546 0 l 1
 546 700 l 1
76 700 m 1
 220 700 l 1
 220 0 l 1
 76 0 l 1
 76 700 l 1
383 863 m 1
 286 774 l 1
 196 836 l 1
 383 976 l 1
 569 836 l 1
 480 774 l 1
 383 863 l 1
EndSplineSet
EndChar

StartChar: hcircumflex
Encoding: 293 293 282
Width: 555
VWidth: 0
Flags: HMW
LayerCount: 2
Fore
SplineSet
194 780 m 1
 194 0 l 1
 64 0 l 1
 64 780 l 1
 194 780 l 1
362 280 m 2
 362 340 340 374 286 374 c 0
 232 374 194 338 194 280 c 1
 163 280 l 1
 163 389 226 475 334 475 c 0
 442 475 492 413 492 298 c 2
 492 0 l 1
 362 0 l 1
 362 280 l 2
133 928 m 1
 36 840 l 1
 -54 902 l 1
 133 1042 l 1
 319 902 l 1
 230 840 l 1
 133 928 l 1
EndSplineSet
EndChar

StartChar: Itilde
Encoding: 296 296 283
Width: 297
VWidth: 0
Flags: HMW
LayerCount: 2
Fore
SplineSet
76 700 m 1
 222 700 l 1
 222 0 l 1
 76 0 l 1
 76 700 l 1
-38 832 m 1
 -28 881 18 922 76 922 c 0
 142 922 154 872 210 872 c 0
 233 872 253 892 273 924 c 1
 336 858 l 1
 320 821 268 777 210 777 c 0
 155 777 124 828 76 828 c 0
 37 828 28 792 28 777 c 1
 -38 832 l 1
EndSplineSet
EndChar

StartChar: itilde
Encoding: 297 297 284
Width: 271
VWidth: 0
Flags: HMW
LayerCount: 2
Fore
SplineSet
72 460 m 1
 198 460 l 1
 198 0 l 1
 72 0 l 1
 72 460 l 1
-51 588 m 1
 -41 637 6 678 64 678 c 0
 130 678 140 628 196 628 c 0
 219 628 239 648 259 680 c 1
 322 614 l 1
 306 577 254 532 196 532 c 0
 141 532 110 584 62 584 c 0
 23 584 14 548 14 533 c 1
 -51 588 l 1
EndSplineSet
EndChar

StartChar: Imacron
Encoding: 298 298 285
Width: 297
VWidth: 0
Flags: HMW
LayerCount: 2
Fore
SplineSet
76 700 m 1
 222 700 l 1
 222 0 l 1
 76 0 l 1
 76 700 l 1
-34 774 m 1
 -34 889 l 1
 332 889 l 1
 332 774 l 1
 -34 774 l 1
EndSplineSet
EndChar

StartChar: imacron
Encoding: 299 299 286
Width: 271
VWidth: 0
Flags: HMW
LayerCount: 2
Fore
SplineSet
72 460 m 1
 198 460 l 1
 198 0 l 1
 72 0 l 1
 72 460 l 1
-47 530 m 1
 -47 645 l 1
 318 645 l 1
 318 530 l 1
 -47 530 l 1
EndSplineSet
EndChar

StartChar: Ibreve
Encoding: 300 300 287
Width: 297
VWidth: 0
Flags: HMW
LayerCount: 2
Fore
SplineSet
76 700 m 1
 222 700 l 1
 222 0 l 1
 76 0 l 1
 76 700 l 1
-14 918 m 1
 78 918 l 1
 78 886 101 854 149 854 c 0
 197 854 220 886 220 918 c 1
 311 918 l 1
 311 840 254 774 149 774 c 0
 44 774 -14 840 -14 918 c 1
EndSplineSet
EndChar

StartChar: ibreve
Encoding: 301 301 288
Width: 271
VWidth: 0
Flags: HMW
LayerCount: 2
Fore
SplineSet
72 460 m 1
 198 460 l 1
 198 0 l 1
 72 0 l 1
 72 460 l 1
-28 675 m 1
 64 675 l 1
 64 643 88 611 136 611 c 0
 184 611 207 643 207 675 c 1
 298 675 l 1
 298 597 241 530 136 530 c 0
 31 530 -28 597 -28 675 c 1
EndSplineSet
EndChar

StartChar: Iogonek
Encoding: 302 302 289
Width: 297
VWidth: 0
Flags: HMW
LayerCount: 2
Fore
SplineSet
76 700 m 1
 222 700 l 1
 222 0 l 1
 76 0 l 1
 76 700 l 1
208 -116 m 1
 242 -178 l 1
 227 -198 197 -218 145 -218 c 0
 75 -218 26 -181 26 -118 c 0
 26 -55 92 -10 162 26 c 1
 204 2 l 1
 152 -24 120 -61 120 -94 c 0
 120 -122 132 -136 158 -136 c 0
 180 -136 194 -129 208 -116 c 1
EndSplineSet
EndChar

StartChar: iogonek
Encoding: 303 303 290
Width: 271
VWidth: 0
Flags: HMW
LayerCount: 2
Fore
SplineSet
58 638 m 0
 58 680 92 712 136 712 c 0
 180 712 214 680 214 638 c 0
 214 596 180 564 136 564 c 0
 92 564 58 596 58 638 c 0
72 460 m 1
 198 460 l 1
 198 0 l 1
 72 0 l 1
 72 460 l 1
186 -116 m 1
 219 -180 l 1
 204 -200 175 -220 123 -220 c 0
 53 -220 4 -183 4 -120 c 0
 4 -57 70 -11 140 25 c 1
 181 0 l 1
 129 -26 98 -63 98 -96 c 0
 98 -124 110 -136 136 -136 c 0
 158 -136 172 -129 186 -116 c 1
EndSplineSet
EndChar

StartChar: Idotaccent
Encoding: 304 304 291
Width: 297
VWidth: 0
Flags: HMW
LayerCount: 2
Fore
SplineSet
76 700 m 1
 222 700 l 1
 222 0 l 1
 76 0 l 1
 76 700 l 1
70 848 m 0
 70 890 104 922 148 922 c 0
 192 922 226 890 226 848 c 0
 226 806 192 774 148 774 c 0
 104 774 70 806 70 848 c 0
EndSplineSet
EndChar

StartChar: uni0136
Encoding: 310 310 292
Width: 659
VWidth: 0
Flags: HMW
LayerCount: 2
Fore
SplineSet
76 700 m 1
 224 700 l 1
 224 0 l 1
 76 0 l 1
 76 700 l 1
473 700 m 1
 644 700 l 1
 354 372 l 1
 658 0 l 1
 484 0 l 1
 182 368 l 1
 473 700 l 1
328 -60 m 1
 460 -92 l 1
 338 -342 l 1
 240 -319 l 1
 328 -60 l 1
EndSplineSet
EndChar

StartChar: uni0137
Encoding: 311 311 293
Width: 535
VWidth: 0
Flags: HMW
LayerCount: 2
Fore
SplineSet
62 780 m 1
 187 780 l 1
 187 0 l 1
 62 0 l 1
 62 780 l 1
356 460 m 1
 512 460 l 1
 314 270 l 1
 532 0 l 1
 377 0 l 1
 158 270 l 1
 356 460 l 1
258 -60 m 1
 388 -92 l 1
 267 -342 l 1
 170 -319 l 1
 258 -60 l 1
EndSplineSet
EndChar

StartChar: Lacute
Encoding: 313 313 294
Width: 504
VWidth: 0
Flags: HMW
LayerCount: 2
Fore
SplineSet
76 700 m 1
 220 700 l 1
 220 126 l 1
 499 126 l 1
 499 0 l 1
 76 0 l 1
 76 700 l 1
439 924 m 1
 259 774 l 1
 186 814 l 1
 336 974 l 1
 439 924 l 1
EndSplineSet
EndChar

StartChar: lacute
Encoding: 314 314 295
Width: 258
VWidth: 0
Flags: HMW
LayerCount: 2
Fore
SplineSet
64 780 m 1
 194 780 l 1
 194 0 l 1
 64 0 l 1
 64 780 l 1
282 990 m 1
 102 840 l 1
 28 878 l 1
 178 1038 l 1
 282 990 l 1
EndSplineSet
EndChar

StartChar: uni013B
Encoding: 315 315 296
Width: 504
VWidth: 0
Flags: HMW
LayerCount: 2
Fore
SplineSet
76 700 m 1
 220 700 l 1
 220 126 l 1
 499 126 l 1
 499 0 l 1
 76 0 l 1
 76 700 l 1
266 -60 m 1
 396 -92 l 1
 276 -342 l 1
 178 -319 l 1
 266 -60 l 1
EndSplineSet
EndChar

StartChar: uni013C
Encoding: 316 316 297
Width: 258
VWidth: 0
Flags: HMW
LayerCount: 2
Fore
SplineSet
64 780 m 1
 194 780 l 1
 194 0 l 1
 64 0 l 1
 64 780 l 1
108 -60 m 1
 238 -92 l 1
 118 -342 l 1
 20 -319 l 1
 108 -60 l 1
EndSplineSet
EndChar

StartChar: Lcaron
Encoding: 317 317 298
Width: 504
VWidth: 0
Flags: HMW
LayerCount: 2
Fore
SplineSet
76 700 m 1
 220 700 l 1
 220 126 l 1
 499 126 l 1
 499 0 l 1
 76 0 l 1
 76 700 l 1
387 714 m 1
 517 683 l 1
 396 433 l 1
 299 455 l 1
 387 714 l 1
EndSplineSet
EndChar

StartChar: lcaron
Encoding: 318 318 299
Width: 258
VWidth: 0
Flags: HMW
LayerCount: 2
Fore
SplineSet
64 780 m 1
 194 780 l 1
 194 0 l 1
 64 0 l 1
 64 780 l 1
332 780 m 1
 462 748 l 1
 342 498 l 1
 244 521 l 1
 332 780 l 1
EndSplineSet
EndChar

StartChar: Ldot
Encoding: 319 319 300
Width: 504
VWidth: 0
Flags: HMW
LayerCount: 2
Fore
SplineSet
76 700 m 1
 220 700 l 1
 220 126 l 1
 499 126 l 1
 499 0 l 1
 76 0 l 1
 76 700 l 1
302 426 m 0
 302 470 338 507 386 507 c 0
 434 507 468 470 468 426 c 0
 468 382 434 344 386 344 c 0
 338 344 302 382 302 426 c 0
EndSplineSet
EndChar

StartChar: ldot
Encoding: 320 320 301
Width: 444
VWidth: 0
Flags: HMW
LayerCount: 2
Fore
SplineSet
64 780 m 1
 194 780 l 1
 194 0 l 1
 64 0 l 1
 64 780 l 1
241 411 m 0
 241 455 276 492 324 492 c 0
 372 492 406 455 406 411 c 0
 406 367 372 329 324 329 c 0
 276 329 241 367 241 411 c 0
EndSplineSet
EndChar

StartChar: eth
Encoding: 240 240 302
Width: 611
VWidth: 0
Flags: HMW
LayerCount: 2
Fore
SplineSet
304 -14 m 0
 156 -14 50 92 50 241 c 0
 50 375 136 468 260 468 c 0
 338 468 409 430 474 356 c 1
 430 358 l 1
 368 477 279 578 149 680 c 1
 242 750 l 1
 458 548 562 383 562 241 c 0
 562 93 453 -14 304 -14 c 0
306 102 m 0
 378 102 428 156 428 230 c 0
 428 306 376 360 306 360 c 0
 236 360 184 306 184 230 c 0
 184 156 234 102 306 102 c 0
164 506 m 1
 148 558 l 1
 476 669 l 1
 492 616 l 1
 164 506 l 1
EndSplineSet
EndChar

StartChar: racute
Encoding: 341 341 303
Width: 390
VWidth: 0
Flags: HMW
LayerCount: 2
Fore
SplineSet
192 460 m 1
 192 0 l 1
 64 0 l 1
 64 460 l 1
 192 460 l 1
327 324 m 1
 309 340 293 349 267 349 c 0
 218 349 192 309 192 243 c 1
 156 280 l 1
 156 389 228 470 302 470 c 0
 335 470 368 458 386 434 c 1
 327 324 l 1
376 680 m 1
 196 530 l 1
 124 570 l 1
 274 730 l 1
 376 680 l 1
EndSplineSet
EndChar

StartChar: rcaron
Encoding: 345 345 304
Width: 390
VWidth: 0
Flags: HMW
LayerCount: 2
Fore
SplineSet
192 460 m 1
 192 0 l 1
 64 0 l 1
 64 460 l 1
 192 460 l 1
327 324 m 1
 309 340 293 349 267 349 c 0
 218 349 192 309 192 243 c 1
 156 280 l 1
 156 389 228 470 302 470 c 0
 335 470 368 458 386 434 c 1
 327 324 l 1
225 644 m 1
 322 732 l 1
 411 670 l 1
 225 530 l 1
 38 670 l 1
 128 732 l 1
 225 644 l 1
EndSplineSet
EndChar

StartChar: Rcaron
Encoding: 344 344 305
Width: 620
VWidth: 0
Flags: HMW
LayerCount: 2
Fore
SplineSet
236 326 m 1
 388 326 l 1
 616 0 l 1
 445 0 l 1
 236 326 l 1
76 700 m 1
 220 700 l 1
 220 0 l 1
 76 0 l 1
 76 700 l 1
164 576 m 1
 164 700 l 1
 312 700 l 2
 478 700 574 609 574 476 c 0
 574 343 478 254 312 254 c 2
 164 254 l 1
 164 368 l 1
 303 368 l 2
 377 368 425 406 425 472 c 0
 425 538 377 576 303 576 c 2
 164 576 l 1
296 888 m 1
 392 976 l 1
 482 914 l 1
 296 774 l 1
 110 914 l 1
 199 976 l 1
 296 888 l 1
EndSplineSet
EndChar

StartChar: uni0213
Encoding: 531 531 306
Width: 390
VWidth: 0
Flags: HMW
LayerCount: 2
Fore
SplineSet
192 460 m 1
 192 0 l 1
 64 0 l 1
 64 460 l 1
 192 460 l 1
327 324 m 1
 309 340 293 349 267 349 c 0
 218 349 192 309 192 243 c 1
 156 280 l 1
 156 389 228 470 302 470 c 0
 335 470 368 458 386 434 c 1
 327 324 l 1
63 530 m 1
 154 530 l 1
 154 562 177 595 225 595 c 0
 273 595 297 562 297 530 c 1
 388 530 l 1
 388 608 330 676 225 676 c 0
 120 676 63 608 63 530 c 1
EndSplineSet
EndChar

StartChar: uni0212
Encoding: 530 530 307
Width: 620
VWidth: 0
Flags: HMW
LayerCount: 2
Fore
SplineSet
236 326 m 1
 388 326 l 1
 616 0 l 1
 445 0 l 1
 236 326 l 1
76 700 m 1
 220 700 l 1
 220 0 l 1
 76 0 l 1
 76 700 l 1
164 576 m 1
 164 700 l 1
 312 700 l 2
 478 700 574 609 574 476 c 0
 574 343 478 254 312 254 c 2
 164 254 l 1
 164 368 l 1
 303 368 l 2
 377 368 425 406 425 472 c 0
 425 538 377 576 303 576 c 2
 164 576 l 1
149 774 m 1
 240 774 l 1
 240 806 264 838 312 838 c 0
 360 838 383 806 383 774 c 1
 474 774 l 1
 474 852 417 918 312 918 c 0
 207 918 149 852 149 774 c 1
EndSplineSet
EndChar

StartChar: OE
Encoding: 338 338 308
Width: 985
VWidth: 0
Flags: HMW
LayerCount: 2
Fore
SplineSet
562 312 m 1
 562 431 l 1
 919 431 l 1
 919 312 l 1
 562 312 l 1
494 670 m 1
 633 670 l 1
 633 30 l 1
 494 30 l 1
 494 670 l 1
940 122 m 1
 940 0 l 1
 390 0 l 2
 187 0 36 141 36 350 c 0
 36 559 186 700 390 700 c 2
 939 700 l 1
 939 578 l 1
 568 578 l 1
 551 572 l 1
 412 572 l 2
 268 572 184 492 184 350 c 0
 184 208 268 128 412 128 c 2
 548 128 l 1
 572 122 l 1
 940 122 l 1
EndSplineSet
EndChar

StartChar: oe
Encoding: 339 339 309
Width: 900
VWidth: 0
Flags: HMW
LayerCount: 2
Fore
SplineSet
728 250 m 2
 728 328 694 378 626 378 c 0
 564 378 512 338 512 260 c 1
 510 230 l 1
 510 138 556 86 628 86 c 0
 686 86 722 114 750 156 c 1
 864 120 l 1
 822 46 743 -10 644 -10 c 0
 519 -10 430 91 430 230 c 0
 430 247 431 263 434 279 c 0
 453 392 539 470 658 470 c 0
 768 470 865 379 865 234 c 0
 865 226 865 210 864 202 c 1
 728 230 l 1
 728 250 l 2
481 202 m 1
 481 280 l 1
 844 280 l 1
 864 202 l 1
 481 202 l 1
35 230 m 0
 35 379 138 470 263 470 c 0
 388 470 466 379 466 230 c 0
 466 81 388 -10 263 -10 c 0
 138 -10 35 81 35 230 c 0
164 230 m 0
 164 146 218 100 286 100 c 0
 348 100 396 146 396 230 c 0
 396 314 348 360 286 360 c 0
 218 360 164 314 164 230 c 0
EndSplineSet
EndChar

StartChar: a.alt
Encoding: 65536 -1 310
Width: 602
VWidth: 0
Flags: HMW
LayerCount: 2
Fore
SplineSet
414 460 m 1
 542 460 l 1
 542 0 l 1
 414 0 l 1
 414 460 l 1
33 230 m 0
 33 383 138 470 254 470 c 0
 369 470 452 379 452 230 c 0
 452 81 369 -10 254 -10 c 0
 138 -10 33 77 33 230 c 0
168 230 m 0
 168 148 224 98 292 98 c 0
 348 98 412 146 412 230 c 0
 412 314 348 362 292 362 c 0
 224 362 168 312 168 230 c 0
EndSplineSet
EndChar

StartChar: Jcircumflex
Encoding: 308 308 312
Width: 303
VWidth: 0
Flags: HMW
LayerCount: 2
Fore
SplineSet
-70 -76 m 1
 -52 -96 -22 -109 10 -109 c 0
 40 -109 76 -88 76 -26 c 2
 76 700 l 1
 228 700 l 1
 228 -56 l 2
 228 -182 136 -234 20 -234 c 0
 -50 -234 -116 -202 -148 -178 c 1
 -70 -76 l 1
152 863 m 1
 55 774 l 1
 -34 836 l 1
 152 976 l 1
 338 836 l 1
 248 774 l 1
 152 863 l 1
EndSplineSet
EndChar

StartChar: jcircumflex
Encoding: 309 309 313
Width: 264
VWidth: 0
Flags: HMW
LayerCount: 2
Fore
SplineSet
-28 -88 m 1
 -14 -108 0 -114 18 -114 c 0
 48 -114 66 -91 66 -39 c 2
 66 460 l 1
 193 460 l 1
 193 -68 l 2
 193 -173 137 -234 31 -234 c 0
 -29 -234 -65 -206 -84 -186 c 1
 -28 -88 l 1
130 618 m 1
 32 530 l 1
 -57 592 l 1
 130 732 l 1
 316 592 l 1
 226 530 l 1
 130 618 l 1
EndSplineSet
EndChar

StartChar: Nacute
Encoding: 323 323 314
Width: 787
VWidth: 0
Flags: HMW
LayerCount: 2
Fore
SplineSet
573 700 m 1
 712 700 l 1
 712 -35 l 1
 216 432 l 1
 216 0 l 1
 76 0 l 1
 76 735 l 1
 573 268 l 1
 573 700 l 1
552 909 m 1
 372 759 l 1
 298 798 l 1
 448 958 l 1
 552 909 l 1
EndSplineSet
EndChar

StartChar: nacute
Encoding: 324 324 315
Width: 560
VWidth: 0
Flags: HMW
LayerCount: 2
Fore
SplineSet
194 460 m 1
 194 0 l 1
 64 0 l 1
 64 460 l 1
 194 460 l 1
362 280 m 2
 362 340 340 374 286 374 c 0
 232 374 194 338 194 280 c 1
 168 276 l 1
 168 385 226 470 334 470 c 0
 442 470 496 409 496 294 c 2
 496 0 l 1
 362 0 l 1
 362 280 l 2
437 680 m 1
 257 530 l 1
 184 569 l 1
 334 729 l 1
 437 680 l 1
EndSplineSet
EndChar

StartChar: uni0145
Encoding: 325 325 316
Width: 787
VWidth: 0
Flags: HMW
LayerCount: 2
Fore
SplineSet
374 -48 m 1
 504 -80 l 1
 384 -330 l 1
 286 -308 l 1
 374 -48 l 1
573 700 m 1
 712 700 l 1
 712 -35 l 1
 216 432 l 1
 216 0 l 1
 76 0 l 1
 76 735 l 1
 573 268 l 1
 573 700 l 1
EndSplineSet
EndChar

StartChar: uni0146
Encoding: 326 326 317
Width: 560
VWidth: 0
Flags: HMW
LayerCount: 2
Fore
SplineSet
194 460 m 1
 194 0 l 1
 64 0 l 1
 64 460 l 1
 194 460 l 1
362 280 m 2
 362 340 340 374 286 374 c 0
 232 374 194 338 194 280 c 1
 163 276 l 1
 163 385 226 470 334 470 c 0
 442 470 496 409 496 294 c 2
 496 0 l 1
 362 0 l 1
 362 280 l 2
258 -60 m 1
 388 -92 l 1
 268 -342 l 1
 170 -319 l 1
 258 -60 l 1
EndSplineSet
EndChar

StartChar: Ncaron
Encoding: 327 327 318
Width: 787
VWidth: 0
Flags: HMW
LayerCount: 2
Fore
SplineSet
382 896 m 1
 479 984 l 1
 568 922 l 1
 382 782 l 1
 196 922 l 1
 286 984 l 1
 382 896 l 1
573 700 m 1
 712 700 l 1
 712 -35 l 1
 216 432 l 1
 216 0 l 1
 76 0 l 1
 76 735 l 1
 573 268 l 1
 573 700 l 1
EndSplineSet
EndChar

StartChar: ncaron
Encoding: 328 328 319
Width: 560
VWidth: 0
Flags: HMW
LayerCount: 2
Fore
SplineSet
194 460 m 1
 194 0 l 1
 64 0 l 1
 64 460 l 1
 194 460 l 1
362 280 m 2
 362 340 340 374 286 374 c 0
 232 374 194 338 194 280 c 1
 163 276 l 1
 163 385 226 470 334 470 c 0
 442 470 496 409 496 294 c 2
 496 0 l 1
 362 0 l 1
 362 280 l 2
280 644 m 1
 376 732 l 1
 466 670 l 1
 280 530 l 1
 94 670 l 1
 183 732 l 1
 280 644 l 1
EndSplineSet
EndChar

StartChar: Omacron
Encoding: 332 332 320
Width: 811
VWidth: 0
Flags: HMW
LayerCount: 2
Fore
SplineSet
188 350 m 0
 188 216 277 120 406 120 c 0
 535 120 624 216 624 350 c 0
 624 484 538 580 406 580 c 0
 277 580 188 484 188 350 c 0
36 350 m 0
 36 562 196 714 406 714 c 0
 618 714 776 562 776 350 c 0
 776 138 621 -18 406 -18 c 0
 191 -18 36 138 36 350 c 0
224 774 m 1
 224 889 l 1
 588 889 l 1
 588 774 l 1
 224 774 l 1
EndSplineSet
EndChar

StartChar: omacron
Encoding: 333 333 321
Width: 576
VWidth: 0
Flags: HMW
LayerCount: 2
Fore
SplineSet
33 230 m 0
 33 373 142 470 288 470 c 0
 434 470 544 373 544 230 c 0
 544 87 434 -10 288 -10 c 0
 142 -10 33 87 33 230 c 0
166 230 m 0
 166 152 220 100 288 100 c 0
 356 100 410 152 410 230 c 0
 410 308 356 360 288 360 c 0
 220 360 166 308 166 230 c 0
106 530 m 1
 106 645 l 1
 470 645 l 1
 470 530 l 1
 106 530 l 1
EndSplineSet
EndChar

StartChar: Obreve
Encoding: 334 334 322
Width: 811
VWidth: 0
Flags: HMW
LayerCount: 2
Fore
SplineSet
188 350 m 0
 188 216 277 120 406 120 c 0
 535 120 624 216 624 350 c 0
 624 484 538 580 406 580 c 0
 277 580 188 484 188 350 c 0
36 350 m 0
 36 562 196 714 406 714 c 0
 618 714 776 562 776 350 c 0
 776 138 621 -18 406 -18 c 0
 191 -18 36 138 36 350 c 0
244 918 m 1
 334 918 l 1
 334 886 358 854 406 854 c 0
 454 854 478 886 478 918 c 1
 568 918 l 1
 568 840 511 774 406 774 c 0
 301 774 244 840 244 918 c 1
EndSplineSet
EndChar

StartChar: obreve
Encoding: 335 335 323
Width: 576
VWidth: 0
Flags: HMW
LayerCount: 2
Fore
SplineSet
33 230 m 0
 33 373 142 470 288 470 c 0
 434 470 544 373 544 230 c 0
 544 87 434 -10 288 -10 c 0
 142 -10 33 87 33 230 c 0
166 230 m 0
 166 152 220 100 288 100 c 0
 356 100 410 152 410 230 c 0
 410 308 356 360 288 360 c 0
 220 360 166 308 166 230 c 0
126 675 m 1
 217 675 l 1
 217 643 240 611 288 611 c 0
 336 611 360 643 360 675 c 1
 450 675 l 1
 450 597 393 530 288 530 c 0
 183 530 126 597 126 675 c 1
EndSplineSet
EndChar

StartChar: Racute
Encoding: 340 340 324
Width: 620
VWidth: 0
Flags: HMW
LayerCount: 2
Fore
SplineSet
236 326 m 1
 388 326 l 1
 616 0 l 1
 445 0 l 1
 236 326 l 1
76 700 m 1
 220 700 l 1
 220 0 l 1
 76 0 l 1
 76 700 l 1
164 576 m 1
 164 700 l 1
 312 700 l 2
 478 700 574 609 574 476 c 0
 574 343 478 254 312 254 c 2
 164 254 l 1
 164 368 l 1
 303 368 l 2
 377 368 425 406 425 472 c 0
 425 538 377 576 303 576 c 2
 164 576 l 1
450 924 m 1
 270 774 l 1
 197 814 l 1
 347 974 l 1
 450 924 l 1
EndSplineSet
EndChar

StartChar: uni0156
Encoding: 342 342 325
Width: 620
VWidth: 0
Flags: HMW
LayerCount: 2
Fore
SplineSet
236 326 m 1
 388 326 l 1
 616 0 l 1
 445 0 l 1
 236 326 l 1
76 700 m 1
 220 700 l 1
 220 0 l 1
 76 0 l 1
 76 700 l 1
164 576 m 1
 164 700 l 1
 312 700 l 2
 478 700 574 609 574 476 c 0
 574 343 478 254 312 254 c 2
 164 254 l 1
 164 368 l 1
 303 368 l 2
 377 368 425 406 425 472 c 0
 425 538 377 576 303 576 c 2
 164 576 l 1
324 -60 m 1
 454 -92 l 1
 334 -342 l 1
 236 -319 l 1
 324 -60 l 1
EndSplineSet
EndChar

StartChar: uni0157
Encoding: 343 343 326
Width: 390
VWidth: 0
Flags: HMW
LayerCount: 2
Fore
SplineSet
192 460 m 1
 192 0 l 1
 64 0 l 1
 64 460 l 1
 192 460 l 1
327 324 m 1
 309 340 293 349 267 349 c 0
 218 349 192 309 192 243 c 1
 156 280 l 1
 156 389 228 470 302 470 c 0
 335 470 368 458 386 434 c 1
 327 324 l 1
107 -60 m 1
 237 -92 l 1
 116 -342 l 1
 19 -319 l 1
 107 -60 l 1
EndSplineSet
EndChar

StartChar: Scedilla
Encoding: 350 350 327
Width: 601
VWidth: 0
Flags: HMW
LayerCount: 2
Fore
SplineSet
140 244 m 1
 186 156 236 108 314 108 c 0
 376 108 410 138 410 190 c 0
 410 258 340 282 260 313 c 0
 190 339 74 386 74 522 c 0
 74 636 166 714 308 714 c 0
 447 714 519 639 552 562 c 1
 442 496 l 1
 412 550 369 590 308 590 c 0
 252 590 223 562 223 518 c 0
 223 464 300 438 384 408 c 0
 474 376 562 317 562 194 c 0
 562 58 460 -18 310 -18 c 0
 186 -18 80 57 36 172 c 1
 140 244 l 1
294 60 m 1
 388 58 l 1
 310 -62 l 1
 318 -60 328 -58 338 -58 c 0
 376 -58 424 -89 424 -150 c 0
 424 -218 360 -254 300 -254 c 0
 250 -254 214 -245 172 -215 c 1
 214 -155 l 1
 237 -173 264 -180 286 -180 c 0
 320 -180 339 -167 339 -143 c 0
 339 -117 314 -110 282 -110 c 0
 272 -110 237 -112 206 -126 c 1
 294 60 l 1
EndSplineSet
EndChar

StartChar: scedilla
Encoding: 351 351 328
Width: 440
VWidth: 0
Flags: HMW
LayerCount: 2
Fore
SplineSet
84 172 m 1
 147 109 198 86 230 86 c 0
 261 86 284 99 284 127 c 0
 284 167 236 182 184 201 c 0
 119 225 54 253 54 342 c 0
 54 428 126 470 218 470 c 0
 295 470 360 438 406 396 c 1
 349 315 l 1
 317 349 267 376 230 376 c 0
 196 376 174 364 174 340 c 0
 174 302 232 292 288 270 c 0
 353 244 414 211 414 130 c 0
 414 27 348 -16 246 -16 c 0
 152 -16 77 28 21 90 c 1
 84 172 l 1
224 63 m 1
 320 60 l 1
 241 -58 l 1
 249 -56 258 -56 268 -56 c 0
 306 -56 355 -85 355 -146 c 0
 355 -214 290 -251 230 -251 c 0
 180 -251 146 -242 104 -212 c 1
 145 -152 l 1
 168 -170 194 -177 216 -177 c 0
 250 -177 270 -164 270 -140 c 0
 270 -114 244 -107 212 -107 c 0
 202 -107 169 -110 138 -124 c 1
 224 63 l 1
EndSplineSet
EndChar

StartChar: Zcaron
Encoding: 381 381 329
Width: 597
VWidth: 0
Flags: HMW
LayerCount: 2
Fore
SplineSet
50 570 m 1
 50 700 l 1
 582 700 l 1
 240 126 l 1
 551 126 l 1
 551 0 l 1
 11 0 l 1
 350 570 l 1
 50 570 l 1
316 888 m 1
 412 976 l 1
 502 914 l 1
 316 774 l 1
 130 914 l 1
 219 976 l 1
 316 888 l 1
EndSplineSet
EndChar

StartChar: zcaron
Encoding: 382 382 330
Width: 499
VWidth: 0
Flags: HMW
LayerCount: 2
Fore
SplineSet
271 644 m 1
 368 732 l 1
 458 670 l 1
 271 530 l 1
 85 670 l 1
 174 732 l 1
 271 644 l 1
270 341 m 1
 54 341 l 1
 54 460 l 1
 489 460 l 1
 242 119 l 1
 460 119 l 1
 460 0 l 1
 15 0 l 1
 270 341 l 1
EndSplineSet
EndChar

StartChar: Ydieresis
Encoding: 376 376 331
Width: 630
VWidth: 0
Flags: HMW
LayerCount: 2
Fore
SplineSet
109 856 m 0
 109 898 142 930 186 930 c 0
 230 930 266 898 266 856 c 0
 266 814 230 782 186 782 c 0
 142 782 109 814 109 856 c 0
366 856 m 0
 366 898 400 930 444 930 c 0
 488 930 522 898 522 856 c 0
 522 814 488 782 444 782 c 0
 400 782 366 814 366 856 c 0
465 700 m 1
 630 700 l 1
 389 290 l 1
 389 0 l 1
 242 0 l 1
 242 289 l 1
 1 700 l 1
 166 700 l 1
 315 418 l 1
 465 700 l 1
EndSplineSet
EndChar

StartChar: Scaron
Encoding: 352 352 332
Width: 601
VWidth: 0
Flags: HMW
LayerCount: 2
Fore
SplineSet
140 244 m 1
 186 156 236 108 314 108 c 0
 376 108 410 138 410 190 c 0
 410 258 340 282 260 313 c 0
 190 339 74 393 74 524 c 0
 74 638 172 714 308 714 c 0
 447 714 524 633 552 562 c 1
 442 496 l 1
 412 550 375 590 314 590 c 0
 258 590 223 562 223 518 c 0
 223 464 300 438 384 408 c 0
 474 376 562 317 562 194 c 0
 562 58 466 -18 310 -18 c 0
 186 -18 80 57 36 172 c 1
 140 244 l 1
308 888 m 1
 405 976 l 1
 494 914 l 1
 308 774 l 1
 122 914 l 1
 212 976 l 1
 308 888 l 1
EndSplineSet
EndChar

StartChar: scaron
Encoding: 353 353 333
Width: 440
VWidth: 0
Flags: HMW
LayerCount: 2
Fore
SplineSet
86 171 m 1
 137 112 188 88 228 88 c 0
 262 88 284 98 284 126 c 0
 284 165 220 178 166 202 c 0
 105 229 46 261 46 340 c 0
 46 424 126 470 218 470 c 0
 295 470 366 438 406 396 c 1
 349 314 l 1
 317 348 263 370 226 370 c 0
 192 370 171 361 171 336 c 0
 171 306 232 290 288 268 c 0
 353 242 414 206 414 130 c 0
 414 27 348 -16 240 -16 c 0
 146 -16 66 28 21 90 c 1
 86 171 l 1
218 636 m 1
 315 724 l 1
 404 662 l 1
 218 522 l 1
 32 662 l 1
 122 724 l 1
 218 636 l 1
EndSplineSet
EndChar

StartChar: Lslash
Encoding: 321 321 334
Width: 508
VWidth: 0
Flags: HMW
LayerCount: 2
Fore
SplineSet
5 318 m 1
 -28 386 l 1
 308 609 l 1
 341 541 l 1
 5 318 l 1
76 700 m 1
 220 700 l 1
 220 126 l 1
 499 126 l 1
 499 0 l 1
 76 0 l 1
 76 700 l 1
EndSplineSet
EndChar

StartChar: lslash
Encoding: 322 322 335
Width: 258
VWidth: 0
Flags: HMW
LayerCount: 2
Fore
SplineSet
-4 318 m 1
 -36 386 l 1
 270 584 l 1
 304 516 l 1
 -4 318 l 1
64 780 m 1
 194 780 l 1
 194 0 l 1
 64 0 l 1
 64 780 l 1
EndSplineSet
EndChar

StartChar: uni0218
Encoding: 536 536 336
Width: 601
VWidth: 0
Flags: HMW
LayerCount: 2
Fore
SplineSet
140 244 m 1
 186 156 236 108 314 108 c 0
 376 108 410 138 410 190 c 0
 410 258 340 282 260 313 c 0
 190 339 74 393 74 524 c 0
 74 638 172 714 308 714 c 0
 447 714 524 633 552 562 c 1
 442 496 l 1
 412 550 375 590 314 590 c 0
 258 590 223 562 223 518 c 0
 223 464 300 438 384 408 c 0
 474 376 562 317 562 194 c 0
 562 58 466 -18 310 -18 c 0
 186 -18 80 57 36 172 c 1
 140 244 l 1
272 -70 m 1
 402 -102 l 1
 281 -352 l 1
 184 -329 l 1
 272 -70 l 1
EndSplineSet
EndChar

StartChar: uni0219
Encoding: 537 537 337
Width: 440
VWidth: 0
Flags: HMW
LayerCount: 2
Fore
SplineSet
86 171 m 1
 137 112 188 88 228 88 c 0
 262 88 284 98 284 126 c 0
 284 165 220 178 166 202 c 0
 105 229 46 261 46 340 c 0
 46 424 126 470 218 470 c 0
 295 470 366 438 406 396 c 1
 349 314 l 1
 317 348 263 370 226 370 c 0
 192 370 171 361 171 336 c 0
 171 306 232 290 288 268 c 0
 353 242 414 206 414 130 c 0
 414 27 348 -16 240 -16 c 0
 146 -16 66 28 21 90 c 1
 86 171 l 1
202 -68 m 1
 332 -100 l 1
 211 -350 l 1
 114 -327 l 1
 202 -68 l 1
EndSplineSet
EndChar

StartChar: pi
Encoding: 960 960 338
Width: 583
VWidth: 0
Flags: HMW
LayerCount: 2
Fore
SplineSet
90 430 m 1
 214 430 l 1
 214 0 l 1
 90 0 l 1
 90 430 l 1
30 460 m 1
 544 460 l 1
 544 350 l 1
 30 350 l 1
 30 460 l 1
340 430 m 1
 464 430 l 1
 464 167 l 2
 464 101 487 97 517 97 c 1
 517 -9 l 1
 402 -9 340 3 340 121 c 2
 340 430 l 1
EndSplineSet
EndChar

StartChar: trademark
Encoding: 8482 8482 339
Width: 721
VWidth: 0
Flags: HMW
LayerCount: 2
Fore
SplineSet
30 635 m 1
 30 700 l 1
 292 700 l 1
 292 635 l 1
 197 635 l 1
 197 350 l 1
 125 350 l 1
 125 635 l 1
 30 635 l 1
590 596 m 1
 642 718 l 1
 694 350 l 1
 618 350 l 1
 590 596 l 1
348 718 m 1
 400 596 l 1
 372 350 l 1
 296 350 l 1
 348 718 l 1
642 718 m 1
 642 612 l 1
 495 382 l 1
 348 612 l 1
 348 718 l 1
 495 492 l 1
 642 718 l 1
EndSplineSet
EndChar

StartChar: uni2219
Encoding: 8729 8729 340
Width: 315
VWidth: 0
Flags: HMW
LayerCount: 2
Fore
SplineSet
76 434 m 0
 76 478 110 516 158 516 c 0
 206 516 240 478 240 434 c 0
 240 390 206 354 158 354 c 0
 110 354 76 390 76 434 c 0
EndSplineSet
EndChar

StartChar: agrave.alt
Encoding: 65537 -1 341
Width: 602
VWidth: 0
Flags: HMW
LayerCount: 2
Fore
SplineSet
414 460 m 1
 542 460 l 1
 542 0 l 1
 414 0 l 1
 414 460 l 1
33 230 m 0
 33 383 138 470 254 470 c 0
 369 470 452 379 452 230 c 0
 452 81 369 -10 254 -10 c 0
 138 -10 33 77 33 230 c 0
168 230 m 0
 168 148 224 98 292 98 c 0
 348 98 412 146 412 230 c 0
 412 314 348 362 292 362 c 0
 224 362 168 312 168 230 c 0
126 680 m 1
 230 729 l 1
 380 569 l 1
 306 530 l 1
 126 680 l 1
EndSplineSet
EndChar

StartChar: aacute.alt
Encoding: 65538 -1 342
Width: 602
VWidth: 0
Flags: HMW
LayerCount: 2
Fore
SplineSet
414 460 m 1
 542 460 l 1
 542 0 l 1
 414 0 l 1
 414 460 l 1
33 230 m 0
 33 383 138 470 254 470 c 0
 369 470 452 379 452 230 c 0
 452 81 369 -10 254 -10 c 0
 138 -10 33 77 33 230 c 0
168 230 m 0
 168 148 224 98 292 98 c 0
 348 98 412 146 412 230 c 0
 412 314 348 362 292 362 c 0
 224 362 168 312 168 230 c 0
432 680 m 1
 252 530 l 1
 179 569 l 1
 329 729 l 1
 432 680 l 1
EndSplineSet
EndChar

StartChar: acircumflex.alt
Encoding: 65539 -1 343
Width: 602
VWidth: 0
Flags: HMW
LayerCount: 2
Fore
SplineSet
414 460 m 1
 542 460 l 1
 542 0 l 1
 414 0 l 1
 414 460 l 1
33 230 m 0
 33 383 138 470 254 470 c 0
 369 470 452 379 452 230 c 0
 452 81 369 -10 254 -10 c 0
 138 -10 33 77 33 230 c 0
168 230 m 0
 168 148 224 98 292 98 c 0
 348 98 412 146 412 230 c 0
 412 314 348 362 292 362 c 0
 224 362 168 312 168 230 c 0
304 618 m 1
 208 530 l 1
 119 592 l 1
 304 732 l 1
 492 592 l 1
 402 530 l 1
 304 618 l 1
EndSplineSet
EndChar

StartChar: atilde.alt
Encoding: 65540 -1 344
Width: 602
VWidth: 0
Flags: HMW
LayerCount: 2
Fore
SplineSet
414 460 m 1
 542 460 l 1
 542 0 l 1
 414 0 l 1
 414 460 l 1
33 230 m 0
 33 383 138 470 254 470 c 0
 369 470 452 379 452 230 c 0
 452 81 369 -10 254 -10 c 0
 138 -10 33 77 33 230 c 0
168 230 m 0
 168 148 224 98 292 98 c 0
 348 98 412 146 412 230 c 0
 412 314 348 362 292 362 c 0
 224 362 168 312 168 230 c 0
122 588 m 1
 132 637 180 678 238 678 c 0
 304 678 314 628 370 628 c 0
 393 628 413 648 433 680 c 1
 496 614 l 1
 480 577 428 532 370 532 c 0
 315 532 284 584 236 584 c 0
 197 584 188 548 188 533 c 1
 122 588 l 1
EndSplineSet
EndChar

StartChar: adieresis.alt
Encoding: 65541 -1 345
Width: 602
VWidth: 0
Flags: HMW
LayerCount: 2
Fore
SplineSet
414 460 m 1
 542 460 l 1
 542 0 l 1
 414 0 l 1
 414 460 l 1
33 230 m 0
 33 383 138 470 254 470 c 0
 369 470 452 379 452 230 c 0
 452 81 369 -10 254 -10 c 0
 138 -10 33 77 33 230 c 0
168 230 m 0
 168 148 224 98 292 98 c 0
 348 98 412 146 412 230 c 0
 412 314 348 362 292 362 c 0
 224 362 168 312 168 230 c 0
338 604 m 0
 338 646 372 678 416 678 c 0
 460 678 494 646 494 604 c 0
 494 562 460 530 416 530 c 0
 372 530 338 562 338 604 c 0
107 604 m 0
 107 646 141 678 185 678 c 0
 229 678 263 646 263 604 c 0
 263 562 229 530 185 530 c 0
 141 530 107 562 107 604 c 0
EndSplineSet
EndChar

StartChar: aring.alt
Encoding: 65542 -1 346
Width: 602
VWidth: 0
Flags: HMW
LayerCount: 2
Fore
SplineSet
414 460 m 1
 542 460 l 1
 542 0 l 1
 414 0 l 1
 414 460 l 1
33 230 m 0
 33 383 138 470 254 470 c 0
 369 470 452 379 452 230 c 0
 452 81 369 -10 254 -10 c 0
 138 -10 33 77 33 230 c 0
168 230 m 0
 168 148 224 98 292 98 c 0
 348 98 412 146 412 230 c 0
 412 314 348 362 292 362 c 0
 224 362 168 312 168 230 c 0
182 641 m 0
 182 707 236 752 300 752 c 0
 364 752 418 707 418 641 c 0
 418 575 364 530 300 530 c 0
 236 530 182 575 182 641 c 0
252 641 m 0
 252 610 275 592 300 592 c 0
 325 592 348 610 348 641 c 0
 348 672 325 690 300 690 c 0
 275 690 252 672 252 641 c 0
EndSplineSet
EndChar

StartChar: amacron.alt
Encoding: 65543 -1 347
Width: 602
VWidth: 0
Flags: HMW
LayerCount: 2
Fore
SplineSet
414 460 m 1
 542 460 l 1
 542 0 l 1
 414 0 l 1
 414 460 l 1
33 230 m 0
 33 383 138 470 254 470 c 0
 369 470 452 379 452 230 c 0
 452 81 369 -10 254 -10 c 0
 138 -10 33 77 33 230 c 0
168 230 m 0
 168 148 224 98 292 98 c 0
 348 98 412 146 412 230 c 0
 412 314 348 362 292 362 c 0
 224 362 168 312 168 230 c 0
117 530 m 1
 117 645 l 1
 482 645 l 1
 482 530 l 1
 117 530 l 1
EndSplineSet
EndChar

StartChar: abreve.alt
Encoding: 65544 -1 348
Width: 602
VWidth: 0
Flags: HMW
LayerCount: 2
Fore
SplineSet
414 460 m 1
 542 460 l 1
 542 0 l 1
 414 0 l 1
 414 460 l 1
33 230 m 0
 33 383 138 470 254 470 c 0
 369 470 452 379 452 230 c 0
 452 81 369 -10 254 -10 c 0
 138 -10 33 77 33 230 c 0
168 230 m 0
 168 148 224 98 292 98 c 0
 348 98 412 146 412 230 c 0
 412 314 348 362 292 362 c 0
 224 362 168 312 168 230 c 0
126 675 m 1
 218 675 l 1
 218 643 241 611 289 611 c 0
 337 611 361 643 361 675 c 1
 452 675 l 1
 452 597 394 530 289 530 c 0
 184 530 126 597 126 675 c 1
EndSplineSet
EndChar

StartChar: aogonek.alt
Encoding: 65545 -1 349
Width: 602
VWidth: 0
Flags: HMW
LayerCount: 2
Fore
SplineSet
414 460 m 1
 542 460 l 1
 542 0 l 1
 414 0 l 1
 414 460 l 1
33 230 m 0
 33 383 138 470 254 470 c 0
 369 470 452 379 452 230 c 0
 452 81 369 -10 254 -10 c 0
 138 -10 33 77 33 230 c 0
168 230 m 0
 168 148 224 98 292 98 c 0
 348 98 412 146 412 230 c 0
 412 314 348 362 292 362 c 0
 224 362 168 312 168 230 c 0
524 -116 m 1
 558 -180 l 1
 543 -200 513 -220 461 -220 c 0
 391 -220 342 -183 342 -120 c 0
 342 -57 408 -11 478 25 c 1
 520 0 l 1
 468 -26 436 -63 436 -96 c 0
 436 -124 448 -136 474 -136 c 0
 496 -136 510 -129 524 -116 c 1
EndSplineSet
EndChar

StartChar: dagger
Encoding: 8224 8224 350
Width: 613
VWidth: 0
Flags: HMW
LayerCount: 2
Fore
SplineSet
90 540 m 1
 524 540 l 1
 524 430 l 1
 90 430 l 1
 90 540 l 1
245 700 m 1
 369 700 l 1
 369 -150 l 1
 245 -150 l 1
 245 700 l 1
EndSplineSet
EndChar

StartChar: daggerdbl
Encoding: 8225 8225 351
Width: 613
VWidth: 0
Flags: HMW
LayerCount: 2
Fore
SplineSet
90 146 m 1
 524 146 l 1
 524 36 l 1
 90 36 l 1
 90 146 l 1
90 540 m 1
 524 540 l 1
 524 430 l 1
 90 430 l 1
 90 540 l 1
245 700 m 1
 369 700 l 1
 369 -150 l 1
 245 -150 l 1
 245 700 l 1
EndSplineSet
EndChar

StartChar: ellipsis
Encoding: 8230 8230 352
Width: 917
VWidth: 0
Flags: HMW
LayerCount: 2
Fore
SplineSet
76 60 m 0
 76 104 110 141 158 141 c 0
 206 141 240 104 240 60 c 0
 240 16 206 -22 158 -22 c 0
 110 -22 76 16 76 60 c 0
376 60 m 0
 376 104 410 141 458 141 c 0
 506 141 540 104 540 60 c 0
 540 16 506 -22 458 -22 c 0
 410 -22 376 16 376 60 c 0
676 60 m 0
 676 104 710 141 758 141 c 0
 806 141 840 104 840 60 c 0
 840 16 806 -22 758 -22 c 0
 710 -22 676 16 676 60 c 0
EndSplineSet
EndChar

StartChar: uniFF10
Encoding: 65296 65296 353
Width: 615
VWidth: 0
Flags: HMW
LayerCount: 2
Fore
SplineSet
164 350 m 0
 164 208 221 114 307 114 c 0
 393 114 449 208 449 350 c 0
 449 492 393 586 307 586 c 0
 221 586 164 492 164 350 c 0
25 350 m 0
 25 572 139 712 307 712 c 0
 479 712 589 572 589 350 c 0
 589 128 479 -12 307 -12 c 0
 139 -12 25 128 25 350 c 0
EndSplineSet
EndChar

StartChar: uniFF11
Encoding: 65297 65297 354
Width: 615
VWidth: 0
Flags: HMW
LayerCount: 2
Fore
SplineSet
111 517 m 1
 111 646 l 1
 418 712 l 1
 418 0 l 1
 278 0 l 1
 278 560 l 1
 111 517 l 1
EndSplineSet
EndChar

StartChar: uniFF12
Encoding: 65298 65298 355
Width: 615
VWidth: 0
Flags: HMW
LayerCount: 2
Fore
SplineSet
17 0 m 1
 334 332 l 2
 387 388 420 432 420 488 c 0
 420 538 386 587 316 587 c 0
 244 587 194 530 194 446 c 1
 52 446 l 1
 52 595 149 713 320 713 c 0
 488 713 568 597 568 492 c 0
 568 418 529 356 470 303 c 2
 288 132 l 1
 581 132 l 1
 581 0 l 1
 17 0 l 1
EndSplineSet
EndChar

StartChar: uniFF13
Encoding: 65299 65299 356
Width: 615
VWidth: 0
Flags: HMW
LayerCount: 2
Fore
SplineSet
272 341 m 1
 272 410 l 1
 354 410 404 457 404 512 c 0
 404 560 376 594 318 594 c 0
 262 594 219 556 219 504 c 1
 86 504 l 1
 86 624 179 712 318 712 c 0
 464 712 548 626 548 520 c 0
 548 406 428 341 272 341 c 1
311 -14 m 0
 152 -14 56 91 56 211 c 1
 198 211 l 1
 198 143 252 105 316 105 c 0
 380 105 424 139 424 204 c 0
 424 270 370 312 272 312 c 1
 272 388 l 1
 442 388 568 330 568 189 c 0
 568 68 469 -14 311 -14 c 0
EndSplineSet
EndChar

StartChar: uniFF14
Encoding: 65300 65300 357
Width: 615
VWidth: 0
Flags: HMW
LayerCount: 2
Fore
SplineSet
14 129 m 1
 132 236 l 1
 417 236 l 0
 434 252 l 0
 592 252 l 1
 592 129 l 1
 14 129 l 1
152 164 m 1
 14 129 l 1
 392 700 l 1
 492 700 l 1
 492 0 l 1
 342 0 l 1
 342 165 l 0
 356 176 l 0
 356 472 l 1
 152 164 l 1
EndSplineSet
EndChar

StartChar: uniFF15
Encoding: 65301 65301 358
Width: 615
VWidth: 0
Flags: HMW
LayerCount: 2
Fore
SplineSet
574 226 m 0
 574 63 437 -12 302 -12 c 0
 173 -12 91 38 31 96 c 1
 99 208 l 1
 147 156 216 120 276 120 c 0
 365 120 418 162 418 238 c 0
 418 314 350 355 276 355 c 0
 218 355 155 346 84 306 c 1
 182 384 l 1
 232 438 294 457 362 457 c 0
 476 457 574 369 574 226 c 0
286 574 m 1
 230 391 l 1
 84 306 l 1
 180 700 l 1
 562 700 l 1
 562 574 l 1
 286 574 l 1
EndSplineSet
EndChar

StartChar: uniFF16
Encoding: 65302 65302 359
Width: 615
VWidth: 0
Flags: HMW
LayerCount: 2
Fore
SplineSet
178 241 m 0
 178 163 233 110 307 110 c 0
 381 110 436 163 436 241 c 0
 436 319 381 374 307 374 c 0
 233 374 178 319 178 241 c 0
318 698 m 1
 500 698 l 1
 276 434 l 1
 250 425 l 1
 284 460 316 468 364 468 c 0
 472 468 578 379 578 241 c 0
 578 77 457 -14 307 -14 c 0
 157 -14 36 77 36 241 c 0
 36 311 66 371 106 421 c 2
 318 698 l 1
EndSplineSet
EndChar

StartChar: uniFF17
Encoding: 65303 65303 360
Width: 615
VWidth: 0
Flags: HMW
LayerCount: 2
Fore
SplineSet
44 566 m 1
 44 700 l 1
 592 700 l 1
 254 0 l 1
 100 0 l 1
 378 566 l 1
 44 566 l 1
EndSplineSet
EndChar

StartChar: uniFF18
Encoding: 65304 65304 361
Width: 615
VWidth: 0
Flags: HMW
LayerCount: 2
Fore
SplineSet
93 531 m 0
 93 643 192 714 316 714 c 0
 440 714 540 643 540 531 c 0
 540 409 431 346 316 346 c 0
 201 346 93 409 93 531 c 0
228 517 m 0
 228 465 267 428 316 428 c 0
 365 428 404 465 404 517 c 0
 404 569 368 606 316 606 c 0
 264 606 228 569 228 517 c 0
68 190 m 0
 68 332 201 394 316 394 c 0
 431 394 564 332 564 190 c 0
 564 68 450 -14 316 -14 c 0
 182 -14 68 68 68 190 c 0
210 211 m 0
 210 143 260 104 316 104 c 0
 372 104 423 143 423 211 c 0
 423 269 372 316 316 316 c 0
 260 316 210 269 210 211 c 0
EndSplineSet
EndChar

StartChar: uniFF19
Encoding: 65305 65305 362
Width: 615
VWidth: 0
Flags: HMW
LayerCount: 2
Fore
SplineSet
436 459 m 0
 436 537 381 590 307 590 c 0
 233 590 178 537 178 459 c 0
 178 381 233 326 307 326 c 0
 381 326 436 381 436 459 c 0
296 2 m 1
 114 2 l 1
 338 266 l 1
 364 275 l 1
 330 240 298 232 250 232 c 0
 142 232 36 321 36 459 c 0
 36 623 157 714 307 714 c 0
 457 714 578 623 578 459 c 0
 578 389 548 329 508 279 c 2
 296 2 l 1
EndSplineSet
EndChar

StartChar: caron
Encoding: 711 711 363
Width: 480
VWidth: 0
Flags: HMW
LayerCount: 2
Fore
SplineSet
240 670 m 1
 336 758 l 1
 426 696 l 1
 240 556 l 1
 54 696 l 1
 144 758 l 1
 240 670 l 1
EndSplineSet
EndChar

StartChar: napostrophe
Encoding: 329 329 364
Width: 713
VWidth: 0
Flags: HMW
LayerCount: 2
Fore
SplineSet
348 460 m 1
 348 0 l 1
 218 0 l 1
 218 460 l 1
 348 460 l 1
515 280 m 2
 515 340 492 374 438 374 c 0
 384 374 348 338 348 280 c 1
 316 276 l 1
 316 385 380 470 488 470 c 0
 596 470 650 409 650 294 c 2
 650 0 l 1
 515 0 l 1
 515 280 l 2
116 700 m 1
 256 700 l 1
 154 452 l 1
 62 452 l 1
 116 700 l 1
EndSplineSet
EndChar

StartChar: IJ
Encoding: 306 306 365
Width: 583
VWidth: 0
Flags: HMW
LayerCount: 2
Fore
SplineSet
210 -76 m 1
 228 -96 258 -109 290 -109 c 0
 320 -109 356 -88 356 -26 c 2
 356 700 l 1
 508 700 l 1
 508 -56 l 2
 508 -182 417 -234 301 -234 c 0
 231 -234 164 -202 132 -178 c 1
 210 -76 l 1
76 700 m 1
 222 700 l 1
 222 0 l 1
 76 0 l 1
 76 700 l 1
EndSplineSet
EndChar

StartChar: ij
Encoding: 307 307 366
Width: 534
VWidth: 0
Flags: HMW
LayerCount: 2
Fore
SplineSet
321 638 m 0
 321 680 355 712 399 712 c 0
 443 712 477 680 477 638 c 0
 477 596 443 564 399 564 c 0
 355 564 321 596 321 638 c 0
240 -88 m 1
 254 -108 270 -114 288 -114 c 0
 318 -114 336 -91 336 -39 c 2
 336 460 l 1
 462 460 l 1
 462 -68 l 2
 462 -173 406 -234 300 -234 c 0
 240 -234 203 -206 184 -186 c 1
 240 -88 l 1
58 638 m 0
 58 680 92 712 136 712 c 0
 180 712 214 680 214 638 c 0
 214 596 180 564 136 564 c 0
 92 564 58 596 58 638 c 0
72 460 m 1
 198 460 l 1
 198 0 l 1
 72 0 l 1
 72 460 l 1
EndSplineSet
EndChar

StartChar: uni0237
Encoding: 567 567 367
Width: 264
VWidth: 0
Flags: HMW
LayerCount: 2
Fore
SplineSet
-28 -88 m 1
 -14 -108 0 -114 18 -114 c 0
 48 -114 66 -91 66 -39 c 2
 66 460 l 1
 193 460 l 1
 193 -68 l 2
 193 -173 137 -234 31 -234 c 0
 -29 -234 -65 -206 -84 -186 c 1
 -28 -88 l 1
EndSplineSet
EndChar

StartChar: Sacute
Encoding: 346 346 368
Width: 601
VWidth: 0
Flags: HMW
LayerCount: 2
Fore
SplineSet
140 244 m 1
 186 156 236 108 314 108 c 0
 376 108 410 138 410 190 c 0
 410 258 340 282 260 313 c 0
 190 339 74 393 74 524 c 0
 74 638 172 714 308 714 c 0
 447 714 524 633 552 562 c 1
 442 496 l 1
 412 550 375 590 314 590 c 0
 258 590 223 562 223 518 c 0
 223 464 300 438 384 408 c 0
 474 376 562 317 562 194 c 0
 562 58 466 -18 310 -18 c 0
 186 -18 80 57 36 172 c 1
 140 244 l 1
488 924 m 1
 308 774 l 1
 235 814 l 1
 385 974 l 1
 488 924 l 1
EndSplineSet
EndChar

StartChar: sacute
Encoding: 347 347 369
Width: 440
VWidth: 0
Flags: HMW
LayerCount: 2
Fore
SplineSet
86 171 m 1
 137 112 188 88 228 88 c 0
 262 88 284 98 284 126 c 0
 284 165 220 178 166 202 c 0
 105 229 46 261 46 340 c 0
 46 424 126 470 218 470 c 0
 295 470 366 438 406 396 c 1
 349 314 l 1
 317 348 263 370 226 370 c 0
 192 370 171 361 171 336 c 0
 171 306 232 290 288 268 c 0
 353 242 414 206 414 130 c 0
 414 27 348 -16 240 -16 c 0
 146 -16 66 28 21 90 c 1
 86 171 l 1
398 680 m 1
 218 530 l 1
 144 569 l 1
 294 729 l 1
 398 680 l 1
EndSplineSet
EndChar

StartChar: Scircumflex
Encoding: 348 348 370
Width: 601
VWidth: 0
Flags: HMW
LayerCount: 2
Fore
SplineSet
140 244 m 1
 186 156 236 108 314 108 c 0
 376 108 410 138 410 190 c 0
 410 258 340 282 260 313 c 0
 190 339 74 393 74 524 c 0
 74 638 172 714 308 714 c 0
 447 714 524 633 552 562 c 1
 442 496 l 1
 412 550 375 590 314 590 c 0
 258 590 223 562 223 518 c 0
 223 464 300 438 384 408 c 0
 474 376 562 317 562 194 c 0
 562 58 466 -18 310 -18 c 0
 186 -18 80 57 36 172 c 1
 140 244 l 1
308 863 m 1
 212 774 l 1
 122 836 l 1
 308 976 l 1
 494 836 l 1
 405 774 l 1
 308 863 l 1
EndSplineSet
EndChar

StartChar: scircumflex
Encoding: 349 349 371
Width: 440
VWidth: 0
Flags: HMW
LayerCount: 2
Fore
SplineSet
86 171 m 1
 137 112 188 88 228 88 c 0
 262 88 284 98 284 126 c 0
 284 165 220 178 166 202 c 0
 105 229 46 261 46 340 c 0
 46 424 126 470 218 470 c 0
 295 470 366 438 406 396 c 1
 349 314 l 1
 317 348 263 370 226 370 c 0
 192 370 171 361 171 336 c 0
 171 306 232 290 288 268 c 0
 353 242 414 206 414 130 c 0
 414 27 348 -16 240 -16 c 0
 146 -16 66 28 21 90 c 1
 86 171 l 1
227 618 m 1
 130 530 l 1
 41 592 l 1
 227 732 l 1
 414 592 l 1
 324 530 l 1
 227 618 l 1
EndSplineSet
EndChar

StartChar: uni1E9E
Encoding: 7838 7838 372
Width: 784
VWidth: 0
Flags: HMW
LayerCount: 2
Fore
SplineSet
506 -12 m 0
 652 -12 744 62 744 176 c 0
 744 318 594 312 594 362 c 0
 594 401 688 433 688 541 c 0
 688 640 595 714 423 714 c 0
 199 714 80 589 80 373 c 2
 80 -2 l 1
 228 -2 l 1
 227 360 l 2
 227 507 301 580 417 580 c 0
 495 580 532 544 532 506 c 0
 532 442 433 437 433 358 c 0
 433 258 592 282 592 186 c 0
 592 133 539 112 477 112 c 0
 424 112 376 130 322 158 c 1
 282 40 l 1
 343 8 420 -12 506 -12 c 0
EndSplineSet
EndChar

StartChar: Zacute
Encoding: 377 377 373
Width: 597
VWidth: 0
Flags: HW
LayerCount: 2
Fore
SplineSet
50 570 m 1
 50 700 l 1
 582 700 l 1
 240 126 l 1
 551 126 l 1
 551 0 l 1
 11 0 l 1
 350 570 l 1
 50 570 l 1
485 924 m 1
 305 774 l 1
 231 814 l 1
 381 974 l 1
 485 924 l 1
EndSplineSet
EndChar

StartChar: zacute
Encoding: 378 378 374
Width: 503
VWidth: 0
Flags: HW
LayerCount: 2
Fore
SplineSet
269 341 m 1
 54 341 l 1
 54 460 l 1
 489 460 l 1
 242 119 l 1
 460 119 l 1
 460 0 l 1
 15 0 l 1
 269 341 l 1
440 692 m 1
 260 542 l 1
 186 580 l 1
 336 740 l 1
 440 692 l 1
EndSplineSet
EndChar

StartChar: Zdotaccent
Encoding: 379 379 375
Width: 597
VWidth: 0
Flags: HW
LayerCount: 2
Fore
SplineSet
50 570 m 1
 50 700 l 1
 582 700 l 1
 240 126 l 1
 551 126 l 1
 551 0 l 1
 11 0 l 1
 350 570 l 1
 50 570 l 1
238 848 m 0
 238 890 272 922 316 922 c 0
 360 922 394 890 394 848 c 0
 394 806 360 774 316 774 c 0
 272 774 238 806 238 848 c 0
EndSplineSet
EndChar

StartChar: zdotaccent
Encoding: 380 380 376
Width: 503
VWidth: 0
Flags: HW
LayerCount: 2
Fore
SplineSet
269 341 m 1
 54 341 l 1
 54 460 l 1
 489 460 l 1
 242 119 l 1
 460 119 l 1
 460 0 l 1
 15 0 l 1
 269 341 l 1
193 622 m 0
 193 664 227 695 271 695 c 0
 315 695 350 664 350 622 c 0
 350 580 315 548 271 548 c 0
 227 548 193 580 193 622 c 0
EndSplineSet
EndChar

StartChar: Tcaron
Encoding: 356 356 377
Width: 532
VWidth: 0
Flags: HW
LayerCount: 2
Fore
SplineSet
6 570 m 1
 6 700 l 1
 527 700 l 1
 527 570 l 1
 338 570 l 1
 338 0 l 1
 194 0 l 1
 194 570 l 1
 6 570 l 1
266 888 m 1
 363 976 l 1
 452 914 l 1
 266 774 l 1
 80 914 l 1
 170 976 l 1
 266 888 l 1
EndSplineSet
EndChar

StartChar: tcaron
Encoding: 357 357 378
Width: 443
VWidth: 0
Flags: HW
LayerCount: 2
Fore
SplineSet
5 460 m 1
 290 460 l 1
 290 350 l 1
 5 350 l 1
 5 460 l 1
84 620 m 1
 210 620 l 1
 210 0 l 1
 84 0 l 1
 84 620 l 1
355 793 m 1
 485 762 l 1
 364 512 l 1
 267 534 l 1
 355 793 l 1
EndSplineSet
EndChar

StartChar: Uring
Encoding: 366 366 379
Width: 678
VWidth: 0
Flags: HW
LayerCount: 2
Fore
SplineSet
71 700 m 1
 214 700 l 1
 214 238 l 2
 214 160 257 107 339 107 c 0
 421 107 464 160 464 238 c 2
 464 700 l 1
 608 700 l 1
 608 230 l 2
 608 65 493 -24 339 -24 c 0
 185 -24 71 65 71 230 c 2
 71 700 l 1
221 886 m 0
 221 952 275 996 339 996 c 0
 403 996 458 952 458 886 c 0
 458 820 403 774 339 774 c 0
 275 774 221 820 221 886 c 0
292 886 m 0
 292 855 314 836 339 836 c 0
 364 836 386 855 386 886 c 0
 386 917 364 935 339 935 c 0
 314 935 292 917 292 886 c 0
EndSplineSet
EndChar

StartChar: uring
Encoding: 367 367 380
Width: 560
VWidth: 0
Flags: HW
LayerCount: 2
Fore
SplineSet
366 0 m 1
 366 460 l 1
 496 460 l 1
 496 0 l 1
 366 0 l 1
199 180 m 2
 199 120 220 86 274 86 c 0
 328 86 366 122 366 180 c 1
 392 184 l 1
 392 75 334 -10 226 -10 c 0
 118 -10 64 51 64 166 c 2
 64 460 l 1
 199 460 l 1
 199 180 l 2
162 641 m 0
 162 707 216 752 280 752 c 0
 344 752 398 707 398 641 c 0
 398 575 344 530 280 530 c 0
 216 530 162 575 162 641 c 0
232 641 m 0
 232 610 255 592 280 592 c 0
 305 592 328 610 328 641 c 0
 328 672 305 690 280 690 c 0
 255 690 232 672 232 641 c 0
EndSplineSet
EndChar

StartChar: Wcircumflex
Encoding: 372 372 381
Width: 1042
VWidth: 0
Flags: HW
LayerCount: 2
Fore
SplineSet
720 252 m 1
 868 700 l 1
 1036 700 l 1
 742 -39 l 1
 521 418 l 1
 300 -39 l 1
 6 700 l 1
 175 700 l 1
 322 252 l 1
 521 735 l 1
 720 252 l 1
521 884 m 1
 424 795 l 1
 335 856 l 1
 521 996 l 1
 708 856 l 1
 618 795 l 1
 521 884 l 1
EndSplineSet
EndChar

StartChar: wcircumflex
Encoding: 373 373 382
Width: 736
VWidth: 0
Flags: HW
LayerCount: 2
Fore
SplineSet
-4 460 m 1
 134 460 l 1
 236 206 l 1
 366 495 l 1
 500 204 l 1
 602 460 l 1
 741 460 l 1
 514 -31 l 1
 366 261 l 1
 222 -31 l 1
 -4 460 l 1
366 644 m 1
 269 555 l 1
 179 616 l 1
 366 756 l 1
 552 616 l 1
 462 555 l 1
 366 644 l 1
EndSplineSet
EndChar

StartChar: Ycircumflex
Encoding: 374 374 383
Width: 630
VWidth: 0
Flags: HW
LayerCount: 2
Fore
SplineSet
465 700 m 1
 630 700 l 1
 389 290 l 1
 389 0 l 1
 242 0 l 1
 242 289 l 1
 1 700 l 1
 166 700 l 1
 315 418 l 1
 465 700 l 1
315 863 m 1
 218 774 l 1
 130 836 l 1
 315 976 l 1
 502 836 l 1
 412 774 l 1
 315 863 l 1
EndSplineSet
EndChar

StartChar: ycircumflex
Encoding: 375 375 384
Width: 496
VWidth: 0
Flags: HW
LayerCount: 2
Fore
SplineSet
504 460 m 1
 204 -220 l 1
 70 -220 l 1
 186 46 l 1
 -6 460 l 1
 139 460 l 1
 286 94 l 1
 222 96 l 1
 368 460 l 1
 504 460 l 1
248 618 m 1
 152 530 l 1
 62 592 l 1
 248 732 l 1
 434 592 l 1
 346 530 l 1
 248 618 l 1
EndSplineSet
EndChar

StartChar: Utilde
Encoding: 360 360 385
Width: 678
VWidth: 0
Flags: HW
LayerCount: 2
Fore
SplineSet
71 700 m 1
 214 700 l 1
 214 238 l 2
 214 160 257 107 339 107 c 0
 421 107 464 160 464 238 c 2
 464 700 l 1
 608 700 l 1
 608 230 l 2
 608 65 493 -24 339 -24 c 0
 185 -24 71 65 71 230 c 2
 71 700 l 1
152 832 m 1
 162 881 210 922 268 922 c 0
 334 922 344 872 400 872 c 0
 423 872 443 892 463 924 c 1
 526 858 l 1
 510 821 458 777 400 777 c 0
 345 777 314 828 266 828 c 0
 227 828 218 792 218 777 c 1
 152 832 l 1
EndSplineSet
EndChar

StartChar: utilde
Encoding: 361 361 386
Width: 560
VWidth: 0
Flags: HW
LayerCount: 2
Fore
SplineSet
366 0 m 1
 366 460 l 1
 496 460 l 1
 496 0 l 1
 366 0 l 1
199 180 m 2
 199 120 220 86 274 86 c 0
 328 86 366 122 366 180 c 1
 392 184 l 1
 392 75 334 -10 226 -10 c 0
 118 -10 64 51 64 166 c 2
 64 460 l 1
 199 460 l 1
 199 180 l 2
93 588 m 1
 103 637 150 678 208 678 c 0
 274 678 284 628 340 628 c 0
 363 628 384 648 404 680 c 1
 467 614 l 1
 451 577 400 532 342 532 c 0
 287 532 255 584 207 584 c 0
 168 584 160 548 160 533 c 1
 93 588 l 1
EndSplineSet
EndChar

StartChar: Umacron
Encoding: 362 362 387
Width: 678
VWidth: 0
Flags: HW
LayerCount: 2
Fore
SplineSet
71 700 m 1
 214 700 l 1
 214 238 l 2
 214 160 257 107 339 107 c 0
 421 107 464 160 464 238 c 2
 464 700 l 1
 608 700 l 1
 608 230 l 2
 608 65 493 -24 339 -24 c 0
 185 -24 71 65 71 230 c 2
 71 700 l 1
157 774 m 1
 157 889 l 1
 522 889 l 1
 522 774 l 1
 157 774 l 1
EndSplineSet
EndChar

StartChar: umacron
Encoding: 363 363 388
Width: 560
VWidth: 0
Flags: HW
LayerCount: 2
Fore
SplineSet
366 0 m 1
 366 460 l 1
 496 460 l 1
 496 0 l 1
 366 0 l 1
199 180 m 2
 199 120 220 86 274 86 c 0
 328 86 366 122 366 180 c 1
 392 184 l 1
 392 75 334 -10 226 -10 c 0
 118 -10 64 51 64 166 c 2
 64 460 l 1
 199 460 l 1
 199 180 l 2
98 530 m 1
 98 645 l 1
 463 645 l 1
 463 530 l 1
 98 530 l 1
EndSplineSet
EndChar

StartChar: Ubreve
Encoding: 364 364 389
Width: 678
VWidth: 0
Flags: HW
LayerCount: 2
Fore
SplineSet
71 700 m 1
 214 700 l 1
 214 238 l 2
 214 160 257 107 339 107 c 0
 421 107 464 160 464 238 c 2
 464 700 l 1
 608 700 l 1
 608 230 l 2
 608 65 493 -24 339 -24 c 0
 185 -24 71 65 71 230 c 2
 71 700 l 1
176 918 m 1
 268 918 l 1
 268 886 291 854 339 854 c 0
 387 854 411 886 411 918 c 1
 502 918 l 1
 502 840 444 774 339 774 c 0
 234 774 176 840 176 918 c 1
EndSplineSet
EndChar

StartChar: ubreve
Encoding: 365 365 390
Width: 560
VWidth: 0
Flags: HW
LayerCount: 2
Fore
SplineSet
366 0 m 1
 366 460 l 1
 496 460 l 1
 496 0 l 1
 366 0 l 1
199 180 m 2
 199 120 220 86 274 86 c 0
 328 86 366 122 366 180 c 1
 392 184 l 1
 392 75 334 -10 226 -10 c 0
 118 -10 64 51 64 166 c 2
 64 460 l 1
 199 460 l 1
 199 180 l 2
118 675 m 1
 208 675 l 1
 208 643 232 611 280 611 c 0
 328 611 352 643 352 675 c 1
 442 675 l 1
 442 597 385 530 280 530 c 0
 175 530 118 597 118 675 c 1
EndSplineSet
EndChar

StartChar: uni0123
Encoding: 291 291 391
Width: 570
VWidth: 0
Flags: HW
LayerCount: 2
Fore
SplineSet
42 -32 m 1
 170 -32 l 1
 174 -92 218 -129 286 -129 c 0
 352 -129 412 -84 412 10 c 2
 412 460 l 1
 537 460 l 1
 537 10 l 2
 537 -162 424 -236 292 -236 c 0
 131 -236 50 -153 42 -32 c 1
33 234 m 0
 33 387 138 470 254 470 c 0
 369 470 452 383 452 234 c 0
 452 85 369 -2 254 -2 c 0
 138 -2 33 81 33 234 c 0
168 234 m 0
 168 152 224 106 292 106 c 0
 348 106 412 150 412 234 c 0
 412 318 348 362 292 362 c 0
 224 362 168 316 168 234 c 0
302 543 m 1
 178 594 l 1
 336 823 l 1
 428 786 l 1
 302 543 l 1
EndSplineSet
EndChar

StartChar: Hbar
Encoding: 294 294 392
Width: 764
VWidth: 0
Flags: HW
LayerCount: 2
Fore
SplineSet
123 307 m 1
 123 438 l 1
 638 438 l 1
 638 307 l 1
 123 307 l 1
546 700 m 1
 690 700 l 1
 690 0 l 1
 546 0 l 1
 546 700 l 1
76 700 m 1
 220 700 l 1
 220 0 l 1
 76 0 l 1
 76 700 l 1
5 538 m 1
 5 634 l 1
 760 634 l 1
 760 538 l 1
 5 538 l 1
EndSplineSet
EndChar

StartChar: hbar
Encoding: 295 295 393
Width: 555
VWidth: 0
Flags: HW
LayerCount: 2
Fore
SplineSet
194 780 m 1
 194 0 l 1
 64 0 l 1
 64 780 l 1
 194 780 l 1
362 280 m 2
 362 340 340 374 286 374 c 0
 232 374 194 338 194 280 c 1
 168 280 l 1
 168 389 226 475 334 475 c 0
 442 475 492 413 492 298 c 2
 492 0 l 1
 362 0 l 1
 362 280 l 2
5 606 m 1
 5 720 l 1
 331 720 l 1
 331 606 l 1
 5 606 l 1
EndSplineSet
EndChar

StartChar: uni0400
Encoding: 1024 1024 394
Width: 587
VWidth: 0
Flags: HW
LayerCount: 2
Fore
SplineSet
168 0 m 1
 168 122 l 1
 522 122 l 1
 522 0 l 1
 168 0 l 1
168 578 m 1
 168 700 l 1
 522 700 l 1
 522 578 l 1
 168 578 l 1
168 312 m 1
 168 431 l 1
 502 431 l 1
 502 312 l 1
 168 312 l 1
76 700 m 1
 216 700 l 1
 216 0 l 1
 76 0 l 1
 76 700 l 1
119 924 m 1
 222 974 l 1
 372 814 l 1
 299 774 l 1
 119 924 l 1
EndSplineSet
EndChar

StartChar: uni0401
Encoding: 1025 1025 395
Width: 587
VWidth: 0
Flags: HW
LayerCount: 2
Fore
SplineSet
168 0 m 1
 168 122 l 1
 522 122 l 1
 522 0 l 1
 168 0 l 1
168 578 m 1
 168 700 l 1
 522 700 l 1
 522 578 l 1
 168 578 l 1
168 312 m 1
 168 431 l 1
 502 431 l 1
 502 312 l 1
 168 312 l 1
76 700 m 1
 216 700 l 1
 216 0 l 1
 76 0 l 1
 76 700 l 1
336 848 m 0
 336 890 370 922 414 922 c 0
 458 922 492 890 492 848 c 0
 492 806 458 774 414 774 c 0
 370 774 336 806 336 848 c 0
106 848 m 0
 106 890 140 922 184 922 c 0
 228 922 262 890 262 848 c 0
 262 806 228 774 184 774 c 0
 140 774 106 806 106 848 c 0
EndSplineSet
EndChar

StartChar: uni0403
Encoding: 1027 1027 396
Width: 484
VWidth: 0
Flags: HW
LayerCount: 2
Fore
SplineSet
80 700 m 1
 476 700 l 1
 476 570 l 1
 224 570 l 1
 224 0 l 1
 80 0 l 1
 80 700 l 1
458 924 m 1
 278 774 l 1
 204 814 l 1
 354 974 l 1
 458 924 l 1
EndSplineSet
EndChar

StartChar: uni040C
Encoding: 1036 1036 397
Width: 659
VWidth: 0
Flags: HW
LayerCount: 2
Fore
SplineSet
76 700 m 1
 224 700 l 1
 224 0 l 1
 76 0 l 1
 76 700 l 1
473 700 m 1
 644 700 l 1
 354 372 l 1
 658 0 l 1
 484 0 l 1
 182 368 l 1
 473 700 l 1
540 924 m 1
 360 774 l 1
 286 814 l 1
 436 974 l 1
 540 924 l 1
EndSplineSet
EndChar

StartChar: uni040D
Encoding: 1037 1037 398
Width: 787
VWidth: 0
Flags: HW
LayerCount: 2
Fore
SplineSet
708 548 m 1
 76 -35 l 1
 81 152 l 1
 712 735 l 1
 708 548 l 1
216 700 m 1
 216 114 l 1
 76 -35 l 1
 76 700 l 1
 216 700 l 1
712 735 m 1
 712 0 l 1
 573 0 l 1
 573 581 l 1
 712 735 l 1
251 904 m 1
 354 952 l 1
 504 792 l 1
 431 754 l 1
 251 904 l 1
EndSplineSet
EndChar

StartChar: uni040E
Encoding: 1038 1038 399
Width: 593
VWidth: 0
Flags: HW
LayerCount: 2
Fore
SplineSet
600 700 m 1
 271 0 l 1
 126 0 l 1
 219 211 l 1
 -6 700 l 1
 154 700 l 1
 326 267 l 1
 258 270 l 1
 452 700 l 1
 600 700 l 1
136 918 m 1
 226 918 l 1
 226 886 250 854 298 854 c 0
 346 854 370 886 370 918 c 1
 460 918 l 1
 460 840 403 774 298 774 c 0
 193 774 136 840 136 918 c 1
EndSplineSet
EndChar

StartChar: uni0410
Encoding: 1040 1040 400
Width: 712
VWidth: 0
Flags: HW
LayerCount: 2
Fore
SplineSet
173 158 m 1
 190 272 l 1
 526 272 l 1
 543 158 l 1
 173 158 l 1
356 472 m 1
 252 231 l 1
 255 199 l 1
 164 0 l 1
 1 0 l 1
 356 742 l 1
 712 0 l 1
 549 0 l 1
 460 192 l 1
 461 229 l 1
 356 472 l 1
EndSplineSet
EndChar

StartChar: uni0411
Encoding: 1041 1041 401
Width: 635
VWidth: 0
Flags: HW
LayerCount: 2
Fore
SplineSet
127 312 m 1
 127 431 l 1
 358 431 l 2
 493 431 596 345 596 216 c 0
 596 87 493 0 358 0 c 2
 127 0 l 1
 127 122 l 1
 332 122 l 2
 404 122 449 152 449 216 c 0
 449 280 404 312 332 312 c 2
 127 312 l 1
80 700 m 1
 542 700 l 1
 542 578 l 1
 226 578 l 1
 226 0 l 1
 80 0 l 1
 80 700 l 1
EndSplineSet
EndChar

StartChar: uni0412
Encoding: 1042 1042 402
Width: 632
VWidth: 0
Flags: HW
LayerCount: 2
Fore
SplineSet
184 354 m 1
 184 420 l 1
 297 420 l 2
 359 420 398 452 398 504 c 0
 398 556 359 586 297 586 c 2
 220 586 l 1
 220 114 l 1
 312 114 l 2
 384 114 438 146 438 218 c 0
 438 286 384 316 312 316 c 2
 184 316 l 1
 184 394 l 1
 324 394 l 2
 459 394 586 338 586 200 c 0
 586 61 480 0 324 0 c 2
 76 0 l 1
 76 700 l 1
 310 700 l 2
 448 700 546 642 546 523 c 0
 546 415 448 354 310 354 c 2
 184 354 l 1
EndSplineSet
EndChar

StartChar: uni0413
Encoding: 1043 1043 403
Width: 484
VWidth: 0
Flags: HW
LayerCount: 2
Fore
SplineSet
80 700 m 1
 476 700 l 1
 476 570 l 1
 224 570 l 1
 224 0 l 1
 80 0 l 1
 80 700 l 1
EndSplineSet
EndChar

StartChar: uni0414
Encoding: 1044 1044 404
Width: 855
VWidth: 0
Flags: HW
LayerCount: 2
Fore
SplineSet
426 464 m 1
 266 30 l 1
 102 30 l 1
 426 735 l 1
 750 30 l 1
 586 30 l 1
 426 464 l 1
671 0 m 1
 181 0 l 1
 181 -110 l 1
 40 -110 l 1
 40 126 l 1
 812 126 l 1
 812 -110 l 1
 671 -110 l 1
 671 0 l 1
EndSplineSet
EndChar

StartChar: uni0415
Encoding: 1045 1045 405
Width: 587
VWidth: 0
Flags: HW
LayerCount: 2
Fore
SplineSet
168 0 m 1
 168 122 l 1
 522 122 l 1
 522 0 l 1
 168 0 l 1
168 578 m 1
 168 700 l 1
 522 700 l 1
 522 578 l 1
 168 578 l 1
168 312 m 1
 168 431 l 1
 502 431 l 1
 502 312 l 1
 168 312 l 1
76 700 m 1
 216 700 l 1
 216 0 l 1
 76 0 l 1
 76 700 l 1
EndSplineSet
EndChar

StartChar: uni0416
Encoding: 1046 1046 406
Width: 1028
VWidth: 0
Flags: HW
LayerCount: 2
Fore
SplineSet
186 700 m 1
 478 370 l 1
 172 0 l 1
 1 0 l 1
 310 372 l 1
 16 700 l 1
 186 700 l 1
443 700 m 1
 591 700 l 1
 591 0 l 1
 443 0 l 1
 443 700 l 1
838 700 m 1
 1013 700 l 1
 718 372 l 1
 1028 0 l 1
 853 0 l 1
 556 370 l 1
 838 700 l 1
EndSplineSet
EndChar

StartChar: uni0417
Encoding: 1047 1047 407
Width: 649
VWidth: 0
Flags: HW
LayerCount: 2
Fore
SplineSet
298 341 m 1
 298 410 l 1
 400 410 452 453 452 508 c 0
 452 558 414 594 340 594 c 0
 264 594 215 556 215 504 c 1
 82 504 l 1
 82 624 176 712 340 712 c 0
 506 712 596 626 596 520 c 0
 596 406 466 341 298 341 c 1
342 -14 m 0
 144 -14 52 91 52 211 c 1
 194 211 l 1
 198 143 251 105 337 105 c 0
 423 105 472 139 472 204 c 0
 472 270 412 312 298 312 c 1
 298 388 l 1
 479 388 616 330 616 189 c 0
 616 68 521 -14 342 -14 c 0
EndSplineSet
EndChar

StartChar: uni0418
Encoding: 1048 1048 408
Width: 787
VWidth: 0
Flags: HW
LayerCount: 2
Fore
SplineSet
708 548 m 1
 76 -35 l 1
 81 152 l 1
 712 735 l 1
 708 548 l 1
216 700 m 1
 216 114 l 1
 76 -35 l 1
 76 700 l 1
 216 700 l 1
712 735 m 1
 712 0 l 1
 573 0 l 1
 573 581 l 1
 712 735 l 1
EndSplineSet
EndChar

StartChar: uni0419
Encoding: 1049 1049 409
Width: 787
VWidth: 0
Flags: HW
LayerCount: 2
Fore
SplineSet
708 548 m 1
 76 -35 l 1
 81 152 l 1
 712 735 l 1
 708 548 l 1
216 700 m 1
 216 114 l 1
 76 -35 l 1
 76 700 l 1
 216 700 l 1
712 735 m 1
 712 0 l 1
 573 0 l 1
 573 581 l 1
 712 735 l 1
257 914 m 1
 348 914 l 1
 348 882 371 850 419 850 c 0
 467 850 491 882 491 914 c 1
 582 914 l 1
 582 836 524 769 419 769 c 0
 314 769 257 836 257 914 c 1
EndSplineSet
EndChar

StartChar: uni041A
Encoding: 1050 1050 410
Width: 659
VWidth: 0
Flags: HW
LayerCount: 2
Fore
SplineSet
76 700 m 1
 224 700 l 1
 224 0 l 1
 76 0 l 1
 76 700 l 1
473 700 m 1
 644 700 l 1
 354 372 l 1
 658 0 l 1
 484 0 l 1
 182 368 l 1
 473 700 l 1
EndSplineSet
EndChar

StartChar: uni041B
Encoding: 1051 1051 411
Width: 736
VWidth: 0
Flags: HW
LayerCount: 2
Fore
SplineSet
656 700 m 25
 656 0 l 1
 510 0 l 1
 510 570 l 1
 255 570 l 25
 255 279 l 2
 255 101 180 0 10 0 c 1
 10 122 l 1
 74 122 112 186 112 278 c 2
 112 700 l 25
 656 700 l 25
EndSplineSet
EndChar

StartChar: uni041C
Encoding: 1052 1052 412
Width: 866
VWidth: 0
Flags: HW
LayerCount: 2
Fore
SplineSet
232 391 m 1
 186 0 l 1
 36 0 l 1
 140 735 l 1
 434 284 l 1
 726 735 l 1
 832 0 l 1
 681 0 l 1
 636 391 l 1
 434 65 l 1
 232 391 l 1
EndSplineSet
EndChar

StartChar: uni041D
Encoding: 1053 1053 413
Width: 764
VWidth: 0
Flags: HW
LayerCount: 2
Fore
SplineSet
123 307 m 1
 123 438 l 1
 638 438 l 1
 638 307 l 1
 123 307 l 1
546 700 m 1
 690 700 l 1
 690 0 l 1
 546 0 l 1
 546 700 l 1
76 700 m 1
 220 700 l 1
 220 0 l 1
 76 0 l 1
 76 700 l 1
EndSplineSet
EndChar

StartChar: uni041E
Encoding: 1054 1054 414
Width: 811
VWidth: 0
Flags: HW
LayerCount: 2
Fore
SplineSet
188 350 m 0
 188 216 277 120 406 120 c 0
 535 120 624 216 624 350 c 0
 624 484 538 580 406 580 c 0
 277 580 188 484 188 350 c 0
36 350 m 0
 36 562 196 714 406 714 c 0
 618 714 776 562 776 350 c 0
 776 138 621 -18 406 -18 c 0
 191 -18 36 138 36 350 c 0
EndSplineSet
EndChar

StartChar: uni041F
Encoding: 1055 1055 415
Width: 754
VWidth: 0
Flags: HW
LayerCount: 2
Fore
SplineSet
528 570 m 1
 226 570 l 1
 226 0 l 1
 80 0 l 1
 80 700 l 1
 674 700 l 1
 674 0 l 1
 528 0 l 1
 528 570 l 1
EndSplineSet
EndChar

StartChar: uni0420
Encoding: 1056 1056 416
Width: 600
VWidth: 0
Flags: HW
LayerCount: 2
Fore
SplineSet
76 700 m 1
 220 700 l 1
 220 0 l 1
 76 0 l 1
 76 700 l 1
164 578 m 1
 164 700 l 1
 303 700 l 2
 469 700 564 614 564 476 c 0
 564 338 469 254 303 254 c 2
 164 254 l 1
 164 376 l 1
 303 376 l 2
 377 376 425 410 425 476 c 0
 425 542 377 578 303 578 c 2
 164 578 l 1
EndSplineSet
EndChar

StartChar: uni0421
Encoding: 1057 1057 417
Width: 695
VWidth: 0
Flags: HW
LayerCount: 2
Fore
SplineSet
192 350 m 0
 192 211 296 124 416 124 c 0
 515 124 583 166 630 220 c 1
 630 58 l 1
 573 12 512 -14 410 -14 c 0
 194 -14 36 134 36 350 c 0
 36 566 194 714 410 714 c 0
 512 714 573 688 630 642 c 1
 630 480 l 1
 583 534 515 576 416 576 c 0
 296 576 192 489 192 350 c 0
EndSplineSet
EndChar

StartChar: uni0422
Encoding: 1058 1058 418
Width: 532
VWidth: 0
Flags: HW
LayerCount: 2
Fore
SplineSet
6 570 m 1
 6 700 l 1
 527 700 l 1
 527 570 l 1
 338 570 l 1
 338 0 l 1
 194 0 l 1
 194 570 l 1
 6 570 l 1
EndSplineSet
EndChar

StartChar: uni0423
Encoding: 1059 1059 419
Width: 602
VWidth: 0
Flags: HW
LayerCount: 2
Fore
SplineSet
609 700 m 1
 280 0 l 1
 130 0 l 1
 224 211 l 1
 -6 700 l 1
 158 700 l 1
 330 267 l 1
 264 270 l 1
 456 700 l 1
 609 700 l 1
EndSplineSet
EndChar

StartChar: uni0424
Encoding: 1060 1060 420
Width: 888
VWidth: 0
Flags: HW
LayerCount: 2
Fore
SplineSet
370 700 m 1
 518 700 l 1
 518 0 l 1
 370 0 l 1
 370 700 l 1
702 350 m 0
 702 452 622 491 502 491 c 2
 386 491 l 2
 266 491 186 452 186 350 c 0
 186 248 266 209 386 209 c 2
 502 209 l 2
 622 209 702 248 702 350 c 0
848 350 m 0
 848 181 708 80 524 80 c 2
 364 80 l 2
 180 80 40 181 40 350 c 0
 40 519 180 620 364 620 c 2
 524 620 l 2
 708 620 848 519 848 350 c 0
EndSplineSet
EndChar

StartChar: uni0425
Encoding: 1061 1061 421
Width: 646
VWidth: 0
Flags: HW
LayerCount: 2
Fore
SplineSet
450 700 m 1
 626 700 l 1
 410 362 l 1
 641 0 l 1
 464 0 l 1
 326 250 l 1
 182 0 l 1
 6 0 l 1
 242 362 l 1
 31 700 l 1
 207 700 l 1
 327 480 l 1
 450 700 l 1
EndSplineSet
EndChar

StartChar: uni0426
Encoding: 1062 1062 422
Width: 830
VWidth: 0
Flags: HW
LayerCount: 2
Fore
SplineSet
222 130 m 1
 546 130 l 1
 546 700 l 1
 692 700 l 1
 692 130 l 1
 794 130 l 1
 794 -128 l 1
 658 -128 l 1
 658 0 l 1
 76 0 l 1
 76 700 l 1
 222 700 l 1
 222 130 l 1
EndSplineSet
EndChar

StartChar: uni0427
Encoding: 1063 1063 423
Width: 687
VWidth: 0
Flags: HW
LayerCount: 2
Fore
SplineSet
304 238 m 1
 338 366 l 1
 520 366 l 1
 520 238 l 1
 304 238 l 1
458 700 m 1
 607 700 l 1
 607 0 l 1
 458 0 l 1
 458 700 l 1
219 700 m 1
 219 498 l 2
 219 416 266 366 338 366 c 1
 304 238 l 1
 156 238 76 348 76 483 c 2
 76 700 l 1
 219 700 l 1
EndSplineSet
EndChar

StartChar: uni0428
Encoding: 1064 1064 424
Width: 1052
VWidth: 0
Flags: HW
LayerCount: 2
Fore
SplineSet
828 130 m 1
 828 700 l 1
 973 700 l 1
 973 0 l 1
 80 0 l 1
 80 700 l 1
 224 700 l 1
 224 130 l 1
 456 130 l 1
 456 700 l 1
 596 700 l 1
 596 130 l 1
 828 130 l 1
EndSplineSet
EndChar

StartChar: uni0429
Encoding: 1065 1065 425
Width: 1114
VWidth: 0
Flags: HW
LayerCount: 2
Fore
SplineSet
828 130 m 1
 828 700 l 1
 973 700 l 1
 973 130 l 1
 1076 130 l 1
 1076 -128 l 1
 939 -128 l 1
 939 0 l 1
 80 0 l 1
 80 700 l 1
 224 700 l 1
 224 130 l 1
 456 130 l 1
 456 700 l 1
 596 700 l 1
 596 130 l 1
 828 130 l 1
EndSplineSet
EndChar

StartChar: uni042A
Encoding: 1066 1066 426
Width: 712
VWidth: 0
Flags: HW
LayerCount: 2
Fore
SplineSet
276 324 m 1
 276 446 l 1
 415 446 l 2
 581 446 677 362 677 224 c 0
 677 86 581 0 415 0 c 2
 276 0 l 1
 276 122 l 1
 415 122 l 2
 489 122 537 158 537 224 c 0
 537 290 489 324 415 324 c 2
 276 324 l 1
190 570 m 1
 10 570 l 1
 10 700 l 1
 334 700 l 1
 334 0 l 1
 190 0 l 1
 190 570 l 1
EndSplineSet
EndChar

StartChar: uni042B
Encoding: 1067 1067 427
Width: 865
VWidth: 0
Flags: HW
LayerCount: 2
Fore
SplineSet
644 700 m 1
 790 700 l 1
 790 0 l 1
 644 0 l 1
 644 700 l 1
76 700 m 1
 220 700 l 1
 220 0 l 1
 76 0 l 1
 76 700 l 1
164 324 m 1
 164 446 l 1
 303 446 l 2
 469 446 564 362 564 224 c 0
 564 86 469 0 303 0 c 2
 164 0 l 1
 164 122 l 1
 303 122 l 2
 377 122 425 158 425 224 c 0
 425 290 377 324 303 324 c 2
 164 324 l 1
EndSplineSet
EndChar

StartChar: uni042C
Encoding: 1068 1068 428
Width: 600
VWidth: 0
Flags: HW
LayerCount: 2
Fore
SplineSet
76 700 m 1
 220 700 l 1
 220 0 l 1
 76 0 l 1
 76 700 l 1
164 324 m 1
 164 446 l 1
 303 446 l 2
 469 446 564 362 564 224 c 0
 564 86 469 0 303 0 c 2
 164 0 l 1
 164 122 l 1
 303 122 l 2
 377 122 425 158 425 224 c 0
 425 290 377 324 303 324 c 2
 164 324 l 1
EndSplineSet
EndChar

StartChar: uni042D
Encoding: 1069 1069 429
Width: 695
VWidth: 0
Flags: HW
LayerCount: 2
Fore
SplineSet
136 290 m 1
 136 410 l 1
 524 410 l 1
 524 290 l 1
 136 290 l 1
517 350 m 0
 517 489 399 580 279 580 c 0
 180 580 108 537 66 493 c 1
 66 642 l 1
 123 688 184 714 286 714 c 0
 502 714 660 566 660 350 c 0
 660 134 502 -14 286 -14 c 0
 184 -14 123 12 66 58 c 1
 66 207 l 1
 108 163 180 120 279 120 c 0
 399 120 517 211 517 350 c 0
EndSplineSet
EndChar

StartChar: uni042E
Encoding: 1070 1070 430
Width: 1108
VWidth: 0
Flags: HW
LayerCount: 2
Fore
SplineSet
123 307 m 1
 123 438 l 1
 426 438 l 1
 426 307 l 1
 123 307 l 1
76 700 m 1
 220 700 l 1
 220 0 l 1
 76 0 l 1
 76 700 l 1
485 350 m 0
 485 216 574 120 703 120 c 0
 832 120 920 216 920 350 c 0
 920 484 835 580 703 580 c 0
 574 580 485 484 485 350 c 0
332 350 m 0
 332 562 493 714 703 714 c 0
 915 714 1074 562 1074 350 c 0
 1074 138 918 -18 703 -18 c 0
 488 -18 332 138 332 350 c 0
EndSplineSet
EndChar

StartChar: uni042F
Encoding: 1071 1071 431
Width: 620
VWidth: 0
Flags: HW
LayerCount: 2
Fore
SplineSet
386 326 m 1
 176 0 l 1
 6 0 l 1
 234 326 l 1
 386 326 l 1
546 700 m 1
 546 0 l 1
 402 0 l 1
 402 700 l 1
 546 700 l 1
457 576 m 1
 318 576 l 2
 244 576 196 538 196 472 c 0
 196 406 244 368 318 368 c 2
 457 368 l 1
 457 254 l 1
 310 254 l 2
 144 254 48 343 48 476 c 0
 48 609 144 700 310 700 c 2
 457 700 l 1
 457 576 l 1
EndSplineSet
EndChar

StartChar: uni0430
Encoding: 1072 1072 432
Width: 526
VWidth: 0
Flags: HW
LayerCount: 2
Fore
SplineSet
157 137 m 0
 157 99 190 80 232 80 c 0
 294 80 345 106 345 184 c 1
 361 130 l 1
 361 41 285 -10 190 -10 c 0
 96 -10 26 40 26 132 c 0
 26 225 103 281 224 281 c 0
 298 281 360 248 378 228 c 1
 378 164 l 1
 340 192 304 206 250 206 c 0
 190 206 157 179 157 137 c 0
115 328 m 1
 68 418 l 1
 116 443 185 472 268 472 c 0
 386 472 471 419 471 326 c 2
 471 0 l 1
 345 0 l 1
 345 305 l 2
 345 346 309 370 259 370 c 0
 193 370 137 342 115 328 c 1
EndSplineSet
Substitution2: "alt a" a.alt
EndChar

StartChar: uni0431
Encoding: 1073 1073 433
Width: 589
VWidth: 0
Flags: HW
LayerCount: 2
Fore
SplineSet
300 360 m 1
 308 470 l 1
 452 470 555 369 555 230 c 0
 555 91 451 -10 299 -10 c 0
 147 -10 35 91 35 290 c 1
 176 230 l 1
 176 152 231 100 299 100 c 0
 367 100 422 152 422 230 c 0
 422 308 368 360 300 360 c 1
118 230 m 1
 118 379 193 470 308 470 c 1
 300 360 l 1
 240 360 176 314 176 230 c 1
 118 230 l 1
35 290 m 1
 35 477 77 598 235 660 c 0
 326 695 371 732 381 780 c 1
 507 780 l 1
 497 691 415 618 306 578 c 0
 182 533 149 440 149 340 c 2
 166 233 l 1
 35 290 l 1
EndSplineSet
EndChar

StartChar: uni0432
Encoding: 1074 1074 434
Width: 502
VWidth: 0
Flags: HW
LayerCount: 2
Fore
SplineSet
150 240 m 1
 306 240 l 2
 401 240 474 214 474 125 c 0
 474 56 431 0 326 0 c 2
 150 0 l 1
 150 88 l 1
 284 88 l 2
 330 88 350 111 350 139 c 0
 350 167 330 190 284 190 c 2
 150 190 l 1
 150 240 l 1
150 220 m 1
 150 276 l 1
 274 276 l 2
 308 276 330 296 330 324 c 0
 330 352 308 372 274 372 c 2
 150 372 l 1
 150 460 l 1
 296 460 l 2
 381 460 454 424 454 335 c 0
 454 256 381 220 296 220 c 2
 150 220 l 1
75 460 m 1
 201 460 l 1
 201 0 l 1
 75 0 l 1
 75 460 l 1
EndSplineSet
EndChar

StartChar: uni0433
Encoding: 1075 1075 435
Width: 349
VWidth: 0
Flags: HW
LayerCount: 2
Fore
SplineSet
66 460 m 1
 346 460 l 1
 346 350 l 1
 195 350 l 1
 195 0 l 1
 66 0 l 1
 66 460 l 1
EndSplineSet
EndChar

StartChar: uni0434
Encoding: 1076 1076 436
Width: 690
VWidth: 0
Flags: HW
LayerCount: 2
Fore
SplineSet
342 291 m 1
 225 30 l 1
 96 52 l 1
 342 495 l 1
 589 52 l 1
 460 30 l 1
 342 291 l 1
522 0 m 1
 169 0 l 1
 169 -90 l 1
 40 -90 l 1
 40 106 l 1
 645 106 l 1
 645 -90 l 1
 522 -90 l 1
 522 0 l 1
EndSplineSet
EndChar

StartChar: uni0435
Encoding: 1077 1077 437
Width: 557
VWidth: 0
Flags: HW
LayerCount: 2
Fore
SplineSet
108 202 m 1
 108 281 l 1
 382 281 l 1
 374 341 342 378 280 378 c 0
 214 378 166 334 166 256 c 1
 164 230 l 1
 164 132 214 89 282 89 c 0
 340 89 382 114 406 156 c 1
 520 120 l 1
 474 42 410 -10 282 -10 c 0
 126 -10 33 91 33 230 c 0
 33 247 34 263 37 279 c 0
 56 392 142 470 282 470 c 0
 434 470 522 381 522 236 c 0
 522 228 522 216 520 202 c 1
 108 202 l 1
EndSplineSet
EndChar

StartChar: uni0436
Encoding: 1078 1078 438
Width: 819
VWidth: 0
Flags: HW
LayerCount: 2
Fore
SplineSet
646 460 m 1
 799 460 l 1
 598 264 l 1
 819 0 l 1
 666 0 l 1
 446 270 l 1
 646 460 l 1
471 460 m 1
 471 0 l 1
 348 0 l 1
 348 460 l 1
 471 460 l 1
172 460 m 1
 372 270 l 1
 152 0 l 1
 0 0 l 1
 222 264 l 1
 20 460 l 1
 172 460 l 1
EndSplineSet
EndChar

StartChar: uni0437
Encoding: 1079 1079 439
Width: 516
VWidth: 0
Flags: HW
LayerCount: 2
Fore
SplineSet
262 230 m 1
 262 276 l 1
 310 276 330 298 330 326 c 0
 330 354 308 372 272 372 c 0
 229 372 205 343 205 312 c 1
 84 312 l 1
 84 404 159 470 271 470 c 0
 375 470 452 414 452 340 c 0
 452 272 388 226 262 230 c 1
269 -10 m 0
 144 -10 70 56 60 154 c 1
 185 154 l 1
 195 114 220 86 268 86 c 0
 316 86 349 109 349 145 c 0
 349 183 318 204 262 204 c 1
 262 260 l 1
 394 264 472 217 472 134 c 0
 472 46 384 -10 269 -10 c 0
EndSplineSet
EndChar

StartChar: uni0438
Encoding: 1080 1080 440
Width: 577
VWidth: 0
Flags: HW
LayerCount: 2
Fore
SplineSet
506 345 m 1
 66 -35 l 1
 72 115 l 1
 511 495 l 1
 506 345 l 1
193 460 m 1
 193 96 l 1
 66 -35 l 1
 66 460 l 1
 193 460 l 1
511 495 m 1
 511 0 l 1
 385 0 l 1
 385 364 l 1
 511 495 l 1
EndSplineSet
EndChar

StartChar: uni0439
Encoding: 1081 1081 441
Width: 577
VWidth: 0
Flags: HW
LayerCount: 2
Fore
SplineSet
506 345 m 1
 66 -35 l 1
 72 115 l 1
 511 495 l 1
 506 345 l 1
193 460 m 1
 193 96 l 1
 66 -35 l 1
 66 460 l 1
 193 460 l 1
511 495 m 1
 511 0 l 1
 385 0 l 1
 385 364 l 1
 511 495 l 1
132 695 m 1
 223 695 l 1
 223 663 246 631 294 631 c 0
 342 631 366 663 366 695 c 1
 457 695 l 1
 457 617 399 551 294 551 c 0
 189 551 132 617 132 695 c 1
EndSplineSet
EndChar

StartChar: uni043A
Encoding: 1082 1082 442
Width: 535
VWidth: 0
Flags: HW
LayerCount: 2
Fore
SplineSet
62 460 m 1
 187 460 l 1
 187 0 l 1
 62 0 l 1
 62 460 l 1
356 460 m 1
 512 460 l 1
 314 270 l 1
 532 0 l 1
 377 0 l 1
 158 270 l 1
 356 460 l 1
EndSplineSet
EndChar

StartChar: uni043B
Encoding: 1083 1083 443
Width: 603
VWidth: 0
Flags: HW
LayerCount: 2
Fore
SplineSet
524 460 m 25
 524 0 l 1
 398 0 l 1
 398 341 l 1
 209 341 l 25
 209 160 l 2
 209 51 158 0 10 0 c 1
 10 117 l 1
 50 117 83 128 83 186 c 2
 83 460 l 25
 524 460 l 25
EndSplineSet
EndChar

StartChar: uni043C
Encoding: 1084 1084 444
Width: 642
VWidth: 0
Flags: HW
LayerCount: 2
Fore
SplineSet
504 0 m 1
 437 330 l 1
 504 495 l 1
 637 0 l 1
 504 0 l 1
290 113 m 1
 504 495 l 1
 514 304 l 1
 320 -31 l 1
 290 113 l 1
320 -31 m 1
 128 304 l 1
 138 495 l 1
 350 113 l 1
 320 -31 l 1
5 0 m 1
 138 495 l 1
 205 330 l 1
 139 0 l 1
 5 0 l 1
EndSplineSet
EndChar

StartChar: uni043D
Encoding: 1085 1085 445
Width: 600
VWidth: 0
Flags: HW
LayerCount: 2
Fore
SplineSet
111 192 m 1
 111 294 l 1
 473 294 l 1
 473 192 l 1
 111 192 l 1
410 460 m 1
 536 460 l 1
 536 0 l 1
 410 0 l 1
 410 460 l 1
64 460 m 1
 190 460 l 1
 190 0 l 1
 64 0 l 1
 64 460 l 1
EndSplineSet
EndChar

StartChar: uni043E
Encoding: 1086 1086 446
Width: 576
VWidth: 0
Flags: HW
LayerCount: 2
Fore
SplineSet
33 230 m 0
 33 373 142 470 288 470 c 0
 434 470 544 373 544 230 c 0
 544 87 434 -10 288 -10 c 0
 142 -10 33 87 33 230 c 0
166 230 m 0
 166 152 220 100 288 100 c 0
 356 100 410 152 410 230 c 0
 410 308 356 360 288 360 c 0
 220 360 166 308 166 230 c 0
EndSplineSet
EndChar

StartChar: uni043F
Encoding: 1087 1087 447
Width: 560
VWidth: 0
Flags: HW
LayerCount: 2
Fore
SplineSet
496 460 m 1
 496 0 l 1
 370 0 l 1
 370 346 l 1
 190 346 l 1
 190 0 l 1
 64 0 l 1
 64 460 l 1
 496 460 l 1
EndSplineSet
EndChar

StartChar: uni0440
Encoding: 1088 1088 448
Width: 602
VWidth: 0
Flags: HW
LayerCount: 2
Fore
SplineSet
192 -220 m 1
 62 -220 l 1
 62 460 l 1
 192 460 l 1
 192 -220 l 1
570 230 m 0
 570 72 464 -14 348 -14 c 0
 229 -14 156 81 156 230 c 0
 156 379 229 474 348 474 c 0
 464 474 570 388 570 230 c 0
434 230 m 0
 434 312 378 358 310 358 c 0
 254 358 192 314 192 230 c 0
 192 146 254 102 310 102 c 0
 378 102 434 148 434 230 c 0
EndSplineSet
EndChar

StartChar: uni0441
Encoding: 1089 1089 449
Width: 488
VWidth: 0
Flags: HW
LayerCount: 2
Fore
SplineSet
164 230 m 0
 164 150 222 97 296 97 c 0
 356 97 414 126 439 170 c 1
 439 37 l 1
 407 7 355 -10 288 -10 c 0
 140 -10 30 87 30 230 c 0
 30 373 140 470 288 470 c 0
 355 470 407 451 439 424 c 1
 439 290 l 1
 414 334 352 363 296 363 c 0
 222 363 164 306 164 230 c 0
EndSplineSet
EndChar

StartChar: uni0442
Encoding: 1090 1090 450
Width: 317
VWidth: 0
Flags: HW
LayerCount: 2
Fore
SplineSet
5 460 m 1
 312 460 l 1
 312 350 l 1
 5 350 l 1
 5 460 l 1
96 440 m 1
 222 440 l 1
 222 0 l 1
 96 0 l 1
 96 440 l 1
EndSplineSet
EndChar

StartChar: uni0443
Encoding: 1091 1091 451
Width: 496
VWidth: 0
Flags: HW
LayerCount: 2
Fore
SplineSet
504 460 m 1
 204 -220 l 1
 70 -220 l 1
 186 46 l 1
 -6 460 l 1
 139 460 l 1
 286 94 l 1
 222 96 l 1
 368 460 l 1
 504 460 l 1
EndSplineSet
EndChar

StartChar: uni0444
Encoding: 1092 1092 452
Width: 642
VWidth: 0
Flags: HW
LayerCount: 2
Fore
SplineSet
260 560 m 1
 384 560 l 1
 384 -100 l 1
 260 -100 l 1
 260 560 l 1
33 230 m 0
 33 373 143 470 322 470 c 0
 501 470 610 373 610 230 c 0
 610 87 501 -10 322 -10 c 0
 143 -10 33 87 33 230 c 0
153 230 m 0
 153 152 208 100 322 100 c 0
 436 100 490 152 490 230 c 0
 490 308 436 360 322 360 c 0
 208 360 153 308 153 230 c 0
EndSplineSet
EndChar

StartChar: uni0445
Encoding: 1093 1093 453
Width: 498
VWidth: 0
Flags: HW
LayerCount: 2
Fore
SplineSet
344 460 m 1
 488 460 l 1
 318 236 l 1
 498 0 l 1
 354 0 l 1
 252 146 l 1
 149 0 l 1
 0 0 l 1
 182 236 l 1
 10 460 l 1
 159 460 l 1
 252 328 l 1
 344 460 l 1
EndSplineSet
EndChar

StartChar: uni0446
Encoding: 1094 1094 454
Width: 604
VWidth: 0
Flags: HW
LayerCount: 2
Fore
SplineSet
500 110 m 1
 580 110 l 1
 580 -98 l 1
 460 -98 l 1
 460 0 l 1
 64 0 l 1
 64 460 l 1
 194 460 l 1
 194 110 l 1
 370 110 l 1
 370 460 l 1
 500 460 l 1
 500 110 l 1
EndSplineSet
EndChar

StartChar: uni0447
Encoding: 1095 1095 455
Width: 528
VWidth: 0
Flags: HW
LayerCount: 2
Fore
SplineSet
230 122 m 1
 261 232 l 1
 387 232 l 1
 387 122 l 1
 230 122 l 1
330 460 m 1
 460 460 l 1
 460 0 l 1
 330 0 l 1
 330 460 l 1
180 460 m 1
 180 320 l 2
 180 258 203 232 261 232 c 1
 230 122 l 1
 91 122 50 193 50 328 c 2
 50 460 l 1
 180 460 l 1
EndSplineSet
EndChar

StartChar: uni0448
Encoding: 1096 1096 456
Width: 819
VWidth: 0
Flags: HW
LayerCount: 2
Fore
SplineSet
472 110 m 1
 630 110 l 1
 630 460 l 1
 756 460 l 1
 756 0 l 1
 64 0 l 1
 64 460 l 1
 190 460 l 1
 190 110 l 1
 347 110 l 1
 347 460 l 1
 472 460 l 1
 472 110 l 1
EndSplineSet
EndChar

StartChar: uni0449
Encoding: 1097 1097 457
Width: 859
VWidth: 0
Flags: HW
LayerCount: 2
Fore
SplineSet
472 110 m 1
 629 110 l 1
 629 460 l 1
 756 460 l 1
 756 110 l 1
 836 110 l 1
 836 -98 l 1
 715 -98 l 1
 715 0 l 1
 64 0 l 1
 64 460 l 1
 190 460 l 1
 190 110 l 1
 347 110 l 1
 347 460 l 1
 472 460 l 1
 472 110 l 1
EndSplineSet
EndChar

StartChar: uni044A
Encoding: 1098 1098 458
Width: 601
VWidth: 0
Flags: HW
LayerCount: 2
Fore
SplineSet
243 210 m 1
 243 300 l 1
 386 300 l 2
 481 300 554 255 554 156 c 0
 554 57 481 0 386 0 c 2
 243 0 l 1
 243 103 l 1
 368 103 l 2
 408 103 430 124 430 156 c 0
 430 188 408 210 368 210 c 2
 243 210 l 1
152 350 m 1
 5 350 l 1
 5 460 l 1
 274 460 l 1
 274 0 l 1
 152 0 l 1
 152 350 l 1
EndSplineSet
EndChar

StartChar: uni044B
Encoding: 1099 1099 459
Width: 727
VWidth: 0
Flags: HW
LayerCount: 2
Fore
SplineSet
534 460 m 1
 664 460 l 1
 664 0 l 1
 534 0 l 1
 534 460 l 1
64 460 m 1
 194 460 l 1
 194 0 l 1
 64 0 l 1
 64 460 l 1
161 210 m 1
 161 300 l 1
 304 300 l 2
 399 300 472 255 472 156 c 0
 472 57 399 0 304 0 c 2
 161 0 l 1
 161 103 l 1
 286 103 l 2
 326 103 349 124 349 156 c 0
 349 188 326 210 286 210 c 2
 161 210 l 1
EndSplineSet
EndChar

StartChar: uni044C
Encoding: 1100 1100 460
Width: 526
VWidth: 0
Flags: HW
LayerCount: 2
Fore
SplineSet
68 460 m 1
 199 460 l 1
 199 0 l 1
 68 0 l 1
 68 460 l 1
166 210 m 1
 166 300 l 1
 309 300 l 2
 404 300 477 255 477 156 c 0
 477 57 404 0 309 0 c 2
 166 0 l 1
 166 103 l 1
 290 103 l 2
 330 103 353 124 353 156 c 0
 353 188 330 210 290 210 c 2
 166 210 l 1
EndSplineSet
EndChar

StartChar: uni044D
Encoding: 1101 1101 461
Width: 488
VWidth: 0
Flags: HW
LayerCount: 2
Fore
SplineSet
120 276 m 1
 416 276 l 1
 376 184 l 1
 120 184 l 1
 120 276 l 1
326 230 m 0
 326 320 266 376 192 376 c 0
 136 376 75 348 50 304 c 1
 50 424 l 1
 82 451 135 470 202 470 c 0
 350 470 459 373 459 230 c 0
 459 87 350 -10 202 -10 c 0
 135 -10 82 7 50 37 c 1
 50 156 l 1
 75 112 132 84 192 84 c 0
 266 84 326 136 326 230 c 0
EndSplineSet
EndChar

StartChar: uni044E
Encoding: 1102 1102 462
Width: 798
VWidth: 0
Flags: HW
LayerCount: 2
Fore
SplineSet
111 192 m 1
 111 294 l 1
 351 294 l 1
 351 192 l 1
 111 192 l 1
64 460 m 1
 190 460 l 1
 190 0 l 1
 64 0 l 1
 64 460 l 1
254 230 m 0
 254 373 364 470 510 470 c 0
 656 470 766 373 766 230 c 0
 766 87 656 -10 510 -10 c 0
 364 -10 254 87 254 230 c 0
388 230 m 0
 388 152 442 100 510 100 c 0
 578 100 632 152 632 230 c 0
 632 308 578 360 510 360 c 0
 442 360 388 308 388 230 c 0
EndSplineSet
EndChar

StartChar: uni044F
Encoding: 1103 1103 463
Width: 526
VWidth: 0
Flags: HW
LayerCount: 2
Fore
SplineSet
180 0 m 1
 44 0 l 1
 192 218 l 1
 320 218 l 1
 180 0 l 1
484 0 m 1
 353 0 l 1
 353 460 l 1
 484 460 l 1
 484 0 l 1
400 262 m 1
 400 170 l 1
 256 170 l 2
 161 170 75 215 75 318 c 0
 75 421 161 460 256 460 c 2
 400 460 l 1
 400 355 l 1
 272 355 l 2
 228 355 204 340 204 308 c 0
 204 276 228 262 272 262 c 2
 400 262 l 1
EndSplineSet
EndChar

StartChar: uni0450
Encoding: 1104 1104 464
Width: 557
VWidth: 0
Flags: HW
LayerCount: 2
Fore
SplineSet
108 202 m 1
 108 281 l 1
 382 281 l 1
 374 341 342 378 280 378 c 0
 214 378 166 334 166 256 c 1
 164 230 l 1
 164 132 214 89 282 89 c 0
 340 89 382 114 406 156 c 1
 520 120 l 1
 474 42 410 -10 282 -10 c 0
 126 -10 33 91 33 230 c 0
 33 247 34 263 37 279 c 0
 56 392 142 470 282 470 c 0
 434 470 522 381 522 236 c 0
 522 228 522 216 520 202 c 1
 108 202 l 1
120 680 m 1
 223 729 l 1
 373 569 l 1
 300 530 l 1
 120 680 l 1
EndSplineSet
EndChar

